%TF.GenerationSoftware,KiCad,Pcbnew,9.0.0*%
%TF.CreationDate,2026-02-19T11:36:58+01:00*%
%TF.ProjectId,SwitchlessMOD,53776974-6368-46c6-9573-734d4f442e6b,rev?*%
%TF.SameCoordinates,Original*%
%TF.FileFunction,Copper,L2,Bot*%
%TF.FilePolarity,Positive*%
%FSLAX46Y46*%
G04 Gerber Fmt 4.6, Leading zero omitted, Abs format (unit mm)*
G04 Created by KiCad (PCBNEW 9.0.0) date 2026-02-19 11:36:58*
%MOMM*%
%LPD*%
G01*
G04 APERTURE LIST*
%TA.AperFunction,ComponentPad*%
%ADD10R,1.700000X1.700000*%
%TD*%
%TA.AperFunction,ComponentPad*%
%ADD11O,1.700000X1.700000*%
%TD*%
%TA.AperFunction,ViaPad*%
%ADD12C,0.600000*%
%TD*%
%TA.AperFunction,Conductor*%
%ADD13C,0.200000*%
%TD*%
%TA.AperFunction,Conductor*%
%ADD14C,0.300000*%
%TD*%
G04 APERTURE END LIST*
D10*
%TO.P,ICSP1,1,Pin_1*%
%TO.N,RA3*%
X134260000Y-97000000D03*
D11*
%TO.P,ICSP1,2,Pin_2*%
%TO.N,VDD*%
X136800000Y-97000000D03*
%TO.P,ICSP1,3,Pin_3*%
%TO.N,VSS*%
X139340000Y-97000000D03*
%TO.P,ICSP1,4,Pin_4*%
%TO.N,RA0*%
X141880000Y-97000000D03*
%TO.P,ICSP1,5,Pin_5*%
%TO.N,RA1*%
X144420000Y-97000000D03*
%TD*%
D12*
%TO.N,VSS*%
X137000000Y-111500000D03*
X144800000Y-90600000D03*
X142600000Y-111400000D03*
X129250000Y-91250000D03*
X142800000Y-100000000D03*
X149500000Y-91250000D03*
X139400000Y-94800000D03*
X149500000Y-112750000D03*
X143600000Y-102500000D03*
X133900000Y-90600000D03*
X129100000Y-112750000D03*
X137800000Y-100700000D03*
X145400000Y-93000000D03*
X143600000Y-101100000D03*
X141100000Y-107500000D03*
%TO.N,RA3*%
X134250000Y-101150000D03*
X136800000Y-106250000D03*
%TD*%
D13*
%TO.N,RA3*%
X134250000Y-101150000D02*
X134260000Y-101140000D01*
D14*
X134260000Y-101140000D02*
X134260000Y-97000000D01*
X134250000Y-103700000D02*
X134250000Y-101150000D01*
X136800000Y-106250000D02*
X134250000Y-103700000D01*
%TD*%
%TA.AperFunction,Conductor*%
%TO.N,VSS*%
G36*
X148003582Y-89500648D02*
G01*
X148336932Y-89517025D01*
X148349040Y-89518218D01*
X148676697Y-89566821D01*
X148688630Y-89569194D01*
X148850526Y-89609747D01*
X149009954Y-89649682D01*
X149021598Y-89653215D01*
X149092830Y-89678702D01*
X149333477Y-89764807D01*
X149344698Y-89769454D01*
X149644176Y-89911096D01*
X149654884Y-89916820D01*
X149846517Y-90031681D01*
X149939003Y-90087115D01*
X149949121Y-90093875D01*
X150215187Y-90291203D01*
X150224593Y-90298923D01*
X150470032Y-90521376D01*
X150478623Y-90529967D01*
X150614132Y-90679478D01*
X150701076Y-90775406D01*
X150708796Y-90784812D01*
X150906124Y-91050878D01*
X150912884Y-91060996D01*
X151083172Y-91345103D01*
X151088907Y-91355831D01*
X151126056Y-91434377D01*
X151230539Y-91655287D01*
X151235195Y-91666530D01*
X151346784Y-91978401D01*
X151350317Y-91990045D01*
X151430804Y-92311366D01*
X151433178Y-92323302D01*
X151481781Y-92650959D01*
X151482974Y-92663068D01*
X151499351Y-92996416D01*
X151499500Y-93002501D01*
X151499500Y-110996948D01*
X151499351Y-111003033D01*
X151482947Y-111336928D01*
X151481754Y-111349037D01*
X151433151Y-111676694D01*
X151430777Y-111688630D01*
X151350292Y-112009944D01*
X151346759Y-112021588D01*
X151235170Y-112333459D01*
X151230514Y-112344702D01*
X151088885Y-112644151D01*
X151083148Y-112654883D01*
X150912862Y-112938988D01*
X150906102Y-112949106D01*
X150708775Y-113215170D01*
X150701055Y-113224576D01*
X150478611Y-113470006D01*
X150470006Y-113478611D01*
X150224576Y-113701055D01*
X150215170Y-113708775D01*
X149949106Y-113906102D01*
X149938988Y-113912862D01*
X149654883Y-114083148D01*
X149644151Y-114088885D01*
X149344702Y-114230514D01*
X149333459Y-114235170D01*
X149021588Y-114346759D01*
X149009944Y-114350292D01*
X148688630Y-114430777D01*
X148676694Y-114433151D01*
X148349037Y-114481754D01*
X148336928Y-114482947D01*
X148021989Y-114498419D01*
X148003031Y-114499351D01*
X147996949Y-114499500D01*
X131003051Y-114499500D01*
X130996968Y-114499351D01*
X130976900Y-114498365D01*
X130663071Y-114482947D01*
X130650962Y-114481754D01*
X130323305Y-114433151D01*
X130311369Y-114430777D01*
X129990055Y-114350292D01*
X129978411Y-114346759D01*
X129666540Y-114235170D01*
X129655301Y-114230515D01*
X129355844Y-114088883D01*
X129345121Y-114083150D01*
X129061011Y-113912862D01*
X129050893Y-113906102D01*
X128784829Y-113708775D01*
X128775423Y-113701055D01*
X128736475Y-113665755D01*
X128529986Y-113478604D01*
X128521395Y-113470013D01*
X128298944Y-113224576D01*
X128291224Y-113215170D01*
X128093897Y-112949106D01*
X128087137Y-112938988D01*
X127916844Y-112654871D01*
X127911120Y-112644163D01*
X127769479Y-112344688D01*
X127764829Y-112333459D01*
X127653240Y-112021588D01*
X127649707Y-112009944D01*
X127640958Y-111975015D01*
X127569219Y-111688617D01*
X127566848Y-111676694D01*
X127518245Y-111349037D01*
X127517052Y-111336927D01*
X127500649Y-111003032D01*
X127500500Y-110996948D01*
X127500500Y-96102135D01*
X132909500Y-96102135D01*
X132909500Y-97897870D01*
X132909501Y-97897876D01*
X132915908Y-97957483D01*
X132966202Y-98092328D01*
X132966206Y-98092335D01*
X133052452Y-98207544D01*
X133052455Y-98207547D01*
X133167664Y-98293793D01*
X133167671Y-98293797D01*
X133212618Y-98310561D01*
X133302517Y-98344091D01*
X133362127Y-98350500D01*
X133485500Y-98350499D01*
X133552539Y-98370183D01*
X133598294Y-98422987D01*
X133609500Y-98474499D01*
X133609500Y-100630099D01*
X133589815Y-100697138D01*
X133588602Y-100698990D01*
X133540609Y-100770815D01*
X133540602Y-100770828D01*
X133480264Y-100916498D01*
X133480261Y-100916510D01*
X133449500Y-101071153D01*
X133449500Y-101228846D01*
X133480261Y-101383489D01*
X133480264Y-101383501D01*
X133540602Y-101529172D01*
X133540606Y-101529179D01*
X133578602Y-101586044D01*
X133599480Y-101652721D01*
X133599500Y-101654935D01*
X133599500Y-103764069D01*
X133599500Y-103764071D01*
X133599499Y-103764071D01*
X133624497Y-103889738D01*
X133624499Y-103889744D01*
X133673534Y-104008125D01*
X133744726Y-104114673D01*
X133744727Y-104114674D01*
X135982984Y-106352930D01*
X136016469Y-106414253D01*
X136016920Y-106416420D01*
X136030261Y-106483489D01*
X136030264Y-106483501D01*
X136090602Y-106629172D01*
X136090609Y-106629185D01*
X136178210Y-106760288D01*
X136178213Y-106760292D01*
X136289707Y-106871786D01*
X136289711Y-106871789D01*
X136420814Y-106959390D01*
X136420827Y-106959397D01*
X136566498Y-107019735D01*
X136566503Y-107019737D01*
X136721153Y-107050499D01*
X136721156Y-107050500D01*
X136721158Y-107050500D01*
X136878844Y-107050500D01*
X136878845Y-107050499D01*
X137033497Y-107019737D01*
X137179179Y-106959394D01*
X137310289Y-106871789D01*
X137421789Y-106760289D01*
X137509394Y-106629179D01*
X137569737Y-106483497D01*
X137600500Y-106328842D01*
X137600500Y-106171158D01*
X137600500Y-106171155D01*
X137600499Y-106171153D01*
X137569738Y-106016510D01*
X137569737Y-106016503D01*
X137569735Y-106016498D01*
X137509397Y-105870827D01*
X137509390Y-105870814D01*
X137421789Y-105739711D01*
X137421786Y-105739707D01*
X137310292Y-105628213D01*
X137310288Y-105628210D01*
X137179185Y-105540609D01*
X137179172Y-105540602D01*
X137033501Y-105480264D01*
X137033489Y-105480261D01*
X136966420Y-105466920D01*
X136904509Y-105434535D01*
X136902930Y-105432984D01*
X134936819Y-103466873D01*
X134903334Y-103405550D01*
X134900500Y-103379192D01*
X134900500Y-101654935D01*
X134920185Y-101587896D01*
X134921366Y-101586090D01*
X134959394Y-101529179D01*
X135019737Y-101383497D01*
X135050500Y-101228842D01*
X135050500Y-101071158D01*
X135050500Y-101071155D01*
X135050499Y-101071153D01*
X135019738Y-100916510D01*
X135019737Y-100916503D01*
X134959397Y-100770828D01*
X134959397Y-100770827D01*
X134959390Y-100770814D01*
X134931398Y-100728921D01*
X134910520Y-100662243D01*
X134910500Y-100660030D01*
X134910500Y-98474499D01*
X134930185Y-98407460D01*
X134982989Y-98361705D01*
X135034500Y-98350499D01*
X135157871Y-98350499D01*
X135157872Y-98350499D01*
X135217483Y-98344091D01*
X135352331Y-98293796D01*
X135467546Y-98207546D01*
X135553796Y-98092331D01*
X135602810Y-97960916D01*
X135644681Y-97904984D01*
X135710145Y-97880566D01*
X135778418Y-97895417D01*
X135806673Y-97916569D01*
X135920213Y-98030109D01*
X136092179Y-98155048D01*
X136092181Y-98155049D01*
X136092184Y-98155051D01*
X136281588Y-98251557D01*
X136483757Y-98317246D01*
X136693713Y-98350500D01*
X136693714Y-98350500D01*
X136906286Y-98350500D01*
X136906287Y-98350500D01*
X137116243Y-98317246D01*
X137318412Y-98251557D01*
X137507816Y-98155051D01*
X137594138Y-98092335D01*
X137679786Y-98030109D01*
X137679788Y-98030106D01*
X137679792Y-98030104D01*
X137830104Y-97879792D01*
X137830106Y-97879788D01*
X137830109Y-97879786D01*
X137955048Y-97707820D01*
X137955051Y-97707816D01*
X137959793Y-97698508D01*
X138007763Y-97647711D01*
X138075583Y-97630911D01*
X138141719Y-97653445D01*
X138180763Y-97698500D01*
X138185377Y-97707555D01*
X138310272Y-97879459D01*
X138310276Y-97879464D01*
X138460535Y-98029723D01*
X138460540Y-98029727D01*
X138632442Y-98154620D01*
X138821782Y-98251095D01*
X139023871Y-98316757D01*
X139090000Y-98327231D01*
X139090000Y-97433012D01*
X139147007Y-97465925D01*
X139274174Y-97500000D01*
X139405826Y-97500000D01*
X139532993Y-97465925D01*
X139590000Y-97433012D01*
X139590000Y-98327230D01*
X139656126Y-98316757D01*
X139656129Y-98316757D01*
X139858217Y-98251095D01*
X140047557Y-98154620D01*
X140219459Y-98029727D01*
X140219464Y-98029723D01*
X140369723Y-97879464D01*
X140369727Y-97879459D01*
X140494620Y-97707558D01*
X140499232Y-97698507D01*
X140547205Y-97647709D01*
X140615025Y-97630912D01*
X140681161Y-97653447D01*
X140720204Y-97698504D01*
X140724949Y-97707817D01*
X140849890Y-97879786D01*
X141000213Y-98030109D01*
X141172179Y-98155048D01*
X141172181Y-98155049D01*
X141172184Y-98155051D01*
X141361588Y-98251557D01*
X141563757Y-98317246D01*
X141773713Y-98350500D01*
X141773714Y-98350500D01*
X141986286Y-98350500D01*
X141986287Y-98350500D01*
X142196243Y-98317246D01*
X142398412Y-98251557D01*
X142587816Y-98155051D01*
X142674138Y-98092335D01*
X142759786Y-98030109D01*
X142759788Y-98030106D01*
X142759792Y-98030104D01*
X142910104Y-97879792D01*
X142910106Y-97879788D01*
X142910109Y-97879786D01*
X143035048Y-97707820D01*
X143035047Y-97707820D01*
X143035051Y-97707816D01*
X143039514Y-97699054D01*
X143087488Y-97648259D01*
X143155308Y-97631463D01*
X143221444Y-97653999D01*
X143260486Y-97699056D01*
X143264951Y-97707820D01*
X143389890Y-97879786D01*
X143540213Y-98030109D01*
X143712179Y-98155048D01*
X143712181Y-98155049D01*
X143712184Y-98155051D01*
X143901588Y-98251557D01*
X144103757Y-98317246D01*
X144313713Y-98350500D01*
X144313714Y-98350500D01*
X144526286Y-98350500D01*
X144526287Y-98350500D01*
X144736243Y-98317246D01*
X144938412Y-98251557D01*
X145127816Y-98155051D01*
X145214138Y-98092335D01*
X145299786Y-98030109D01*
X145299788Y-98030106D01*
X145299792Y-98030104D01*
X145450104Y-97879792D01*
X145450106Y-97879788D01*
X145450109Y-97879786D01*
X145575048Y-97707820D01*
X145575047Y-97707820D01*
X145575051Y-97707816D01*
X145671557Y-97518412D01*
X145737246Y-97316243D01*
X145770500Y-97106287D01*
X145770500Y-96893713D01*
X145737246Y-96683757D01*
X145671557Y-96481588D01*
X145575051Y-96292184D01*
X145575049Y-96292181D01*
X145575048Y-96292179D01*
X145450109Y-96120213D01*
X145299786Y-95969890D01*
X145127820Y-95844951D01*
X144938414Y-95748444D01*
X144938413Y-95748443D01*
X144938412Y-95748443D01*
X144736243Y-95682754D01*
X144736241Y-95682753D01*
X144736240Y-95682753D01*
X144574957Y-95657208D01*
X144526287Y-95649500D01*
X144313713Y-95649500D01*
X144265042Y-95657208D01*
X144103760Y-95682753D01*
X143901585Y-95748444D01*
X143712179Y-95844951D01*
X143540213Y-95969890D01*
X143389890Y-96120213D01*
X143264949Y-96292182D01*
X143260484Y-96300946D01*
X143212509Y-96351742D01*
X143144688Y-96368536D01*
X143078553Y-96345998D01*
X143039516Y-96300946D01*
X143035050Y-96292182D01*
X142910109Y-96120213D01*
X142759786Y-95969890D01*
X142587820Y-95844951D01*
X142398414Y-95748444D01*
X142398413Y-95748443D01*
X142398412Y-95748443D01*
X142196243Y-95682754D01*
X142196241Y-95682753D01*
X142196240Y-95682753D01*
X142034957Y-95657208D01*
X141986287Y-95649500D01*
X141773713Y-95649500D01*
X141725042Y-95657208D01*
X141563760Y-95682753D01*
X141361585Y-95748444D01*
X141172179Y-95844951D01*
X141000213Y-95969890D01*
X140849890Y-96120213D01*
X140724949Y-96292182D01*
X140720202Y-96301499D01*
X140672227Y-96352293D01*
X140604405Y-96369087D01*
X140538271Y-96346548D01*
X140499234Y-96301495D01*
X140494622Y-96292444D01*
X140369727Y-96120540D01*
X140369723Y-96120535D01*
X140219464Y-95970276D01*
X140219459Y-95970272D01*
X140047557Y-95845379D01*
X139858215Y-95748903D01*
X139656124Y-95683241D01*
X139590000Y-95672768D01*
X139590000Y-96566988D01*
X139532993Y-96534075D01*
X139405826Y-96500000D01*
X139274174Y-96500000D01*
X139147007Y-96534075D01*
X139090000Y-96566988D01*
X139090000Y-95672768D01*
X139089999Y-95672768D01*
X139023875Y-95683241D01*
X138821784Y-95748903D01*
X138632442Y-95845379D01*
X138460540Y-95970272D01*
X138460535Y-95970276D01*
X138310276Y-96120535D01*
X138310272Y-96120540D01*
X138185378Y-96292443D01*
X138180762Y-96301502D01*
X138132784Y-96352295D01*
X138064963Y-96369087D01*
X137998829Y-96346546D01*
X137959794Y-96301493D01*
X137955051Y-96292184D01*
X137955049Y-96292181D01*
X137955048Y-96292179D01*
X137830109Y-96120213D01*
X137679786Y-95969890D01*
X137507820Y-95844951D01*
X137318414Y-95748444D01*
X137318413Y-95748443D01*
X137318412Y-95748443D01*
X137116243Y-95682754D01*
X137116241Y-95682753D01*
X137116240Y-95682753D01*
X136954957Y-95657208D01*
X136906287Y-95649500D01*
X136693713Y-95649500D01*
X136645042Y-95657208D01*
X136483760Y-95682753D01*
X136281585Y-95748444D01*
X136092179Y-95844951D01*
X135920215Y-95969889D01*
X135806673Y-96083431D01*
X135745350Y-96116915D01*
X135675658Y-96111931D01*
X135619725Y-96070059D01*
X135602810Y-96039082D01*
X135553797Y-95907671D01*
X135553793Y-95907664D01*
X135467547Y-95792455D01*
X135467544Y-95792452D01*
X135352335Y-95706206D01*
X135352328Y-95706202D01*
X135217482Y-95655908D01*
X135217483Y-95655908D01*
X135157883Y-95649501D01*
X135157881Y-95649500D01*
X135157873Y-95649500D01*
X135157864Y-95649500D01*
X133362129Y-95649500D01*
X133362123Y-95649501D01*
X133302516Y-95655908D01*
X133167671Y-95706202D01*
X133167664Y-95706206D01*
X133052455Y-95792452D01*
X133052452Y-95792455D01*
X132966206Y-95907664D01*
X132966202Y-95907671D01*
X132915908Y-96042517D01*
X132909501Y-96102116D01*
X132909500Y-96102135D01*
X127500500Y-96102135D01*
X127500500Y-92753246D01*
X127500670Y-92746756D01*
X127517961Y-92416821D01*
X127519318Y-92403913D01*
X127570493Y-92080804D01*
X127573186Y-92068129D01*
X127657863Y-91752113D01*
X127661871Y-91739781D01*
X127779109Y-91434365D01*
X127784375Y-91422536D01*
X127932912Y-91131014D01*
X127939373Y-91119824D01*
X128117570Y-90845425D01*
X128125179Y-90834953D01*
X128331072Y-90580696D01*
X128339739Y-90571071D01*
X128571071Y-90339739D01*
X128580696Y-90331072D01*
X128834953Y-90125179D01*
X128845425Y-90117570D01*
X129119824Y-89939373D01*
X129131014Y-89932912D01*
X129422536Y-89784375D01*
X129434365Y-89779109D01*
X129739785Y-89661869D01*
X129752113Y-89657863D01*
X130068129Y-89573186D01*
X130080804Y-89570493D01*
X130403915Y-89519317D01*
X130416819Y-89517961D01*
X130746756Y-89500669D01*
X130753246Y-89500500D01*
X130815892Y-89500500D01*
X130934108Y-89500500D01*
X147997499Y-89500500D01*
X148003582Y-89500648D01*
G37*
%TD.AperFunction*%
%TD*%
M02*
