%TF.GenerationSoftware,KiCad,Pcbnew,9.0.0*%
%TF.CreationDate,2026-02-19T11:36:58+01:00*%
%TF.ProjectId,SwitchlessMOD,53776974-6368-46c6-9573-734d4f442e6b,rev?*%
%TF.SameCoordinates,Original*%
%TF.FileFunction,Copper,L1,Top*%
%TF.FilePolarity,Positive*%
%FSLAX46Y46*%
G04 Gerber Fmt 4.6, Leading zero omitted, Abs format (unit mm)*
G04 Created by KiCad (PCBNEW 9.0.0) date 2026-02-19 11:36:58*
%MOMM*%
%LPD*%
G01*
G04 APERTURE LIST*
G04 Aperture macros list*
%AMRoundRect*
0 Rectangle with rounded corners*
0 $1 Rounding radius*
0 $2 $3 $4 $5 $6 $7 $8 $9 X,Y pos of 4 corners*
0 Add a 4 corners polygon primitive as box body*
4,1,4,$2,$3,$4,$5,$6,$7,$8,$9,$2,$3,0*
0 Add four circle primitives for the rounded corners*
1,1,$1+$1,$2,$3*
1,1,$1+$1,$4,$5*
1,1,$1+$1,$6,$7*
1,1,$1+$1,$8,$9*
0 Add four rect primitives between the rounded corners*
20,1,$1+$1,$2,$3,$4,$5,0*
20,1,$1+$1,$4,$5,$6,$7,0*
20,1,$1+$1,$6,$7,$8,$9,0*
20,1,$1+$1,$8,$9,$2,$3,0*%
%AMFreePoly0*
4,1,18,-1.000000,0.600000,-0.600000,1.000000,0.750000,1.000000,0.845671,0.980970,0.926777,0.926777,0.980970,0.845671,1.000000,0.750000,1.000000,-0.750000,0.980970,-0.845671,0.926777,-0.926777,0.845671,-0.980970,0.750000,-1.000000,-0.750000,-1.000000,-0.845671,-0.980970,-0.926777,-0.926777,-0.980970,-0.845671,-1.000000,-0.750000,-1.000000,0.600000,-1.000000,0.600000,$1*%
G04 Aperture macros list end*
%TA.AperFunction,SMDPad,CuDef*%
%ADD10RoundRect,0.250000X-0.750000X-0.750000X0.750000X-0.750000X0.750000X0.750000X-0.750000X0.750000X0*%
%TD*%
%TA.AperFunction,SMDPad,CuDef*%
%ADD11RoundRect,0.225000X-0.225000X-0.250000X0.225000X-0.250000X0.225000X0.250000X-0.225000X0.250000X0*%
%TD*%
%TA.AperFunction,SMDPad,CuDef*%
%ADD12RoundRect,0.250000X0.750000X-0.750000X0.750000X0.750000X-0.750000X0.750000X-0.750000X-0.750000X0*%
%TD*%
%TA.AperFunction,SMDPad,CuDef*%
%ADD13RoundRect,0.250000X0.262500X0.450000X-0.262500X0.450000X-0.262500X-0.450000X0.262500X-0.450000X0*%
%TD*%
%TA.AperFunction,SMDPad,CuDef*%
%ADD14RoundRect,0.100000X-0.637500X-0.100000X0.637500X-0.100000X0.637500X0.100000X-0.637500X0.100000X0*%
%TD*%
%TA.AperFunction,ComponentPad*%
%ADD15R,1.700000X1.700000*%
%TD*%
%TA.AperFunction,ComponentPad*%
%ADD16O,1.700000X1.700000*%
%TD*%
%TA.AperFunction,SMDPad,CuDef*%
%ADD17FreePoly0,0.000000*%
%TD*%
%TA.AperFunction,ViaPad*%
%ADD18C,0.600000*%
%TD*%
%TA.AperFunction,Conductor*%
%ADD19C,0.300000*%
%TD*%
%TA.AperFunction,Conductor*%
%ADD20C,0.200000*%
%TD*%
G04 APERTURE END LIST*
D10*
%TO.P,RC4/G,6*%
%TO.N,G*%
X130600000Y-107500000D03*
%TD*%
D11*
%TO.P,C2,1*%
%TO.N,VDD*%
X140205000Y-101750000D03*
%TO.P,C2,2*%
%TO.N,VSS*%
X141755000Y-101750000D03*
%TD*%
D10*
%TO.P,GND,14*%
%TO.N,VSS*%
X139500000Y-111400000D03*
%TD*%
%TO.P,RESET IN,3*%
%TO.N,RESET IN*%
X130600000Y-97000000D03*
%TD*%
%TO.P,RC3/R,7*%
%TO.N,R*%
X130600000Y-111000000D03*
%TD*%
%TO.P,RA1,12*%
%TO.N,RA1*%
X148000000Y-97000000D03*
%TD*%
%TO.P,LANG,10*%
%TO.N,LANG*%
X148000000Y-104000000D03*
%TD*%
D12*
%TO.P,50/60Hz,11*%
%TO.N,VIDEO 50{slash}60HZ*%
X148000000Y-100500000D03*
%TD*%
D10*
%TO.P,RA3,4*%
%TO.N,RA3*%
X130600000Y-100500000D03*
%TD*%
%TO.P,RC1,9*%
%TO.N,RC1*%
X148000000Y-107500000D03*
%TD*%
%TO.P,RC2,8*%
%TO.N,RC2*%
X148000000Y-111000000D03*
%TD*%
D13*
%TO.P,R2,1*%
%TO.N,Net-(U1-P1B{slash}C2OUT{slash}RC4)*%
X135162500Y-107500000D03*
%TO.P,R2,2*%
%TO.N,G*%
X133337500Y-107500000D03*
%TD*%
D10*
%TO.P,GND,14*%
%TO.N,VSS*%
X142750000Y-93000000D03*
%TD*%
%TO.P,RC5/B,5*%
%TO.N,B*%
X130600000Y-104000000D03*
%TD*%
D13*
%TO.P,R3,1*%
%TO.N,Net-(U1-P1A{slash}CCP1{slash}RC5)*%
X135162500Y-104000000D03*
%TO.P,R3,2*%
%TO.N,B*%
X133337500Y-104000000D03*
%TD*%
%TO.P,R1,1*%
%TO.N,Net-(U1-P1C{slash}AN7{slash}RC3)*%
X135162500Y-111000000D03*
%TO.P,R1,2*%
%TO.N,R*%
X133337500Y-111000000D03*
%TD*%
D14*
%TO.P,U1,1,VDD*%
%TO.N,VDD*%
X138250000Y-104300000D03*
%TO.P,U1,2,RA5/T1CKI/OSC1/CLKIN*%
%TO.N,RESET OUT*%
X138250000Y-104950000D03*
%TO.P,U1,3,RA4/AN3/~{T1G}/OSC2/CLKOUT*%
%TO.N,RESET IN*%
X138250000Y-105600000D03*
%TO.P,U1,4,RA3/~{MCLR}/Vpp*%
%TO.N,RA3*%
X138250000Y-106250000D03*
%TO.P,U1,5,P1A/CCP1/RC5*%
%TO.N,Net-(U1-P1A{slash}CCP1{slash}RC5)*%
X138250000Y-106900000D03*
%TO.P,U1,6,P1B/C2OUT/RC4*%
%TO.N,Net-(U1-P1B{slash}C2OUT{slash}RC4)*%
X138250000Y-107550000D03*
%TO.P,U1,7,P1C/AN7/RC3*%
%TO.N,Net-(U1-P1C{slash}AN7{slash}RC3)*%
X138250000Y-108200000D03*
%TO.P,U1,8,P1D/AN6/RC2*%
%TO.N,RC2*%
X143975000Y-108200000D03*
%TO.P,U1,9,C2IN-/AN5/RC1*%
%TO.N,RC1*%
X143975000Y-107550000D03*
%TO.P,U1,10,C2IN+/AN4/RC0*%
%TO.N,LANG*%
X143975000Y-106900000D03*
%TO.P,U1,11,RA2/AN2/T0CKI/INT/C1OUT*%
%TO.N,VIDEO 50{slash}60HZ*%
X143975000Y-106250000D03*
%TO.P,U1,12,RA1/AN1/C1IN-/Vref/ICSPCLK*%
%TO.N,RA1*%
X143975000Y-105600000D03*
%TO.P,U1,13,RA0/AN0/C1IN+/ICSPDAT/ULPWU*%
%TO.N,RA0*%
X143975000Y-104950000D03*
%TO.P,U1,14,VSS*%
%TO.N,VSS*%
X143975000Y-104300000D03*
%TD*%
D11*
%TO.P,C1,1*%
%TO.N,VDD*%
X138545000Y-93000000D03*
%TO.P,C1,2*%
%TO.N,VSS*%
X140095000Y-93000000D03*
%TD*%
D10*
%TO.P,RA0,13*%
%TO.N,RA0*%
X148000000Y-93500000D03*
%TD*%
D15*
%TO.P,ICSP1,1,Pin_1*%
%TO.N,RA3*%
X134260000Y-97000000D03*
D16*
%TO.P,ICSP1,2,Pin_2*%
%TO.N,VDD*%
X136800000Y-97000000D03*
%TO.P,ICSP1,3,Pin_3*%
%TO.N,VSS*%
X139340000Y-97000000D03*
%TO.P,ICSP1,4,Pin_4*%
%TO.N,RA0*%
X141880000Y-97000000D03*
%TO.P,ICSP1,5,Pin_5*%
%TO.N,RA1*%
X144420000Y-97000000D03*
%TD*%
D17*
%TO.P,VDD,1*%
%TO.N,VDD*%
X136000000Y-93000000D03*
%TD*%
D10*
%TO.P,REEST OUT,2*%
%TO.N,RESET OUT*%
X130600000Y-93500000D03*
%TD*%
D18*
%TO.N,VSS*%
X137000000Y-111500000D03*
X144800000Y-90600000D03*
X142600000Y-111400000D03*
X129250000Y-91250000D03*
X142800000Y-100000000D03*
X149500000Y-91250000D03*
X139400000Y-94800000D03*
X149500000Y-112750000D03*
X143600000Y-102500000D03*
X133900000Y-90600000D03*
X129100000Y-112750000D03*
X137800000Y-100700000D03*
X145400000Y-93000000D03*
X143600000Y-101100000D03*
X141100000Y-107500000D03*
%TO.N,RA3*%
X134250000Y-101150000D03*
X136800000Y-106250000D03*
%TD*%
D19*
%TO.N,VSS*%
X142500000Y-104300000D02*
X141755000Y-103555000D01*
X141755000Y-99415000D02*
X141755000Y-101750000D01*
X141755000Y-103555000D02*
X141755000Y-101750000D01*
X140095000Y-93000000D02*
X142750000Y-93000000D01*
X143975000Y-104300000D02*
X142500000Y-104300000D01*
X139340000Y-97000000D02*
X141755000Y-99415000D01*
%TO.N,VDD*%
X140205000Y-103795000D02*
X140205000Y-101750000D01*
X138545000Y-93000000D02*
X136000000Y-93000000D01*
D20*
X136000000Y-96200000D02*
X136800000Y-97000000D01*
D19*
X136000000Y-93000000D02*
X136000000Y-96200000D01*
X136800000Y-97000000D02*
X140205000Y-100405000D01*
X138250000Y-104300000D02*
X139700000Y-104300000D01*
X140205000Y-100405000D02*
X140205000Y-101750000D01*
X139700000Y-104300000D02*
X140205000Y-103795000D01*
%TO.N,B*%
X131000000Y-104000000D02*
X133337500Y-104000000D01*
%TO.N,R*%
X131000000Y-111000000D02*
X133337500Y-111000000D01*
%TO.N,G*%
X133337500Y-107500000D02*
X131000000Y-107500000D01*
%TO.N,RA3*%
X133600000Y-100500000D02*
X130600000Y-100500000D01*
X137540840Y-106250000D02*
X136800000Y-106250000D01*
X136800000Y-106250000D02*
X136750000Y-106250000D01*
X134250000Y-101150000D02*
X133600000Y-100500000D01*
X138250000Y-106250000D02*
X137540840Y-106250000D01*
%TO.N,RA0*%
X146300000Y-95200000D02*
X148000000Y-93500000D01*
D20*
X147750000Y-93500000D02*
X148000000Y-93500000D01*
X143975000Y-104950000D02*
X144712499Y-104950000D01*
D19*
X143680000Y-95200000D02*
X146300000Y-95200000D01*
X145072000Y-100192000D02*
X141880000Y-97000000D01*
X142500000Y-96500000D02*
X141750000Y-96500000D01*
X141880000Y-97000000D02*
X143680000Y-95200000D01*
X144712499Y-104950000D02*
X145072000Y-104590499D01*
X145072000Y-104590499D02*
X145072000Y-100192000D01*
%TO.N,RA1*%
X145600000Y-104712499D02*
X145600000Y-97800000D01*
D20*
X143975000Y-105600000D02*
X144712499Y-105600000D01*
D19*
X144712499Y-105600000D02*
X145600000Y-104712499D01*
X145600000Y-97800000D02*
X146400000Y-97000000D01*
D20*
X146650000Y-97000000D02*
X148000000Y-97000000D01*
D19*
X144420000Y-97000000D02*
X147750000Y-97000000D01*
%TO.N,RESET OUT*%
X131200000Y-93500000D02*
X132300000Y-94600000D01*
X132300000Y-97342000D02*
X137100000Y-102142000D01*
X137100000Y-102142000D02*
X137100000Y-104537499D01*
X132300000Y-94600000D02*
X132300000Y-97342000D01*
X137100000Y-104537499D02*
X137512501Y-104950000D01*
X137512501Y-104950000D02*
X138250000Y-104950000D01*
D20*
X130600000Y-93500000D02*
X131200000Y-93500000D01*
D19*
%TO.N,RESET IN*%
X138250000Y-105600000D02*
X137000000Y-105600000D01*
X137000000Y-105600000D02*
X136700000Y-105300000D01*
X136700000Y-105300000D02*
X136500000Y-105100000D01*
X136500000Y-105100000D02*
X136400000Y-105000000D01*
X130600000Y-97250000D02*
X130600000Y-97000000D01*
X136400000Y-102379346D02*
X131020654Y-97000000D01*
D20*
X130600000Y-97000000D02*
X130600000Y-96750000D01*
D19*
X136400000Y-105000000D02*
X136400000Y-102379346D01*
X131020654Y-97000000D02*
X130600000Y-97000000D01*
D20*
X138250000Y-105600000D02*
X137592630Y-105600000D01*
X136400000Y-105000000D02*
X136700000Y-105300000D01*
D19*
%TO.N,LANG*%
X145500000Y-106900000D02*
X147750000Y-104650000D01*
X143975000Y-106900000D02*
X145500000Y-106900000D01*
D20*
X148000000Y-104650000D02*
X148000000Y-104000000D01*
D19*
%TO.N,VIDEO 50{slash}60HZ*%
X145250000Y-106250000D02*
X146150000Y-105350000D01*
X146150000Y-102350000D02*
X148000000Y-100500000D01*
X143975000Y-106250000D02*
X145250000Y-106250000D01*
X146150000Y-105350000D02*
X146150000Y-102350000D01*
D20*
%TO.N,Net-(U1-P1C{slash}AN7{slash}RC3)*%
X135162500Y-111000000D02*
X135450000Y-111000000D01*
D19*
X135450000Y-111000000D02*
X138250000Y-108200000D01*
%TO.N,Net-(U1-P1B{slash}C2OUT{slash}RC4)*%
X138250000Y-107550000D02*
X135212500Y-107550000D01*
D20*
X135212500Y-107550000D02*
X135162500Y-107500000D01*
%TO.N,Net-(U1-P1A{slash}CCP1{slash}RC5)*%
X138250000Y-106900000D02*
X137500000Y-106900000D01*
D19*
X136400000Y-106900000D02*
X135162500Y-105662500D01*
D20*
X135162500Y-104562500D02*
X135162500Y-104000000D01*
D19*
X137500000Y-106900000D02*
X136400000Y-106900000D01*
X135162500Y-105662500D02*
X135162500Y-104562500D01*
%TO.N,RC1*%
X143975000Y-107550000D02*
X147700000Y-107550000D01*
D20*
X147950000Y-107550000D02*
X148000000Y-107500000D01*
%TO.N,RC2*%
X143975000Y-108200000D02*
X144200000Y-108425000D01*
D19*
X145200000Y-111000000D02*
X147750000Y-111000000D01*
X144200000Y-108425000D02*
X144200000Y-110000000D01*
X144200000Y-110000000D02*
X145200000Y-111000000D01*
%TD*%
%TA.AperFunction,Conductor*%
%TO.N,VSS*%
G36*
X135778418Y-97895417D02*
G01*
X135806673Y-97916569D01*
X135920213Y-98030109D01*
X136092179Y-98155048D01*
X136092181Y-98155049D01*
X136092184Y-98155051D01*
X136281588Y-98251557D01*
X136483757Y-98317246D01*
X136693713Y-98350500D01*
X136693714Y-98350500D01*
X136906286Y-98350500D01*
X136906287Y-98350500D01*
X137053207Y-98327230D01*
X137121055Y-98316484D01*
X137121315Y-98318128D01*
X137183852Y-98321250D01*
X137230711Y-98350657D01*
X139518181Y-100638126D01*
X139532884Y-100665053D01*
X139549477Y-100690872D01*
X139550368Y-100697072D01*
X139551666Y-100699449D01*
X139554500Y-100725807D01*
X139554500Y-100848125D01*
X139534815Y-100915164D01*
X139518182Y-100935806D01*
X139407029Y-101046959D01*
X139318001Y-101191294D01*
X139317996Y-101191305D01*
X139264651Y-101352290D01*
X139254500Y-101451647D01*
X139254500Y-102048337D01*
X139254501Y-102048355D01*
X139264650Y-102147707D01*
X139264651Y-102147710D01*
X139317996Y-102308694D01*
X139318001Y-102308705D01*
X139407029Y-102453040D01*
X139407032Y-102453044D01*
X139518181Y-102564193D01*
X139551666Y-102625516D01*
X139554500Y-102651874D01*
X139554500Y-103474192D01*
X139545855Y-103503632D01*
X139539332Y-103533619D01*
X139535577Y-103538634D01*
X139534815Y-103541231D01*
X139518181Y-103561873D01*
X139466873Y-103613181D01*
X139405550Y-103646666D01*
X139379192Y-103649500D01*
X139152323Y-103649500D01*
X139104870Y-103640061D01*
X139044262Y-103614956D01*
X139044260Y-103614955D01*
X138926870Y-103599501D01*
X138926867Y-103599500D01*
X138926861Y-103599500D01*
X138926854Y-103599500D01*
X137874500Y-103599500D01*
X137807461Y-103579815D01*
X137761706Y-103527011D01*
X137750500Y-103475500D01*
X137750500Y-102077928D01*
X137725502Y-101952261D01*
X137725501Y-101952260D01*
X137725501Y-101952256D01*
X137676465Y-101833873D01*
X137605277Y-101727331D01*
X137605275Y-101727329D01*
X137605273Y-101727326D01*
X137605272Y-101727325D01*
X134440126Y-98562180D01*
X134406641Y-98500857D01*
X134411625Y-98431165D01*
X134453497Y-98375232D01*
X134518961Y-98350815D01*
X134527807Y-98350499D01*
X135157871Y-98350499D01*
X135157872Y-98350499D01*
X135217483Y-98344091D01*
X135352331Y-98293796D01*
X135467546Y-98207546D01*
X135553796Y-98092331D01*
X135602810Y-97960916D01*
X135644681Y-97904984D01*
X135710145Y-97880566D01*
X135778418Y-97895417D01*
G37*
%TD.AperFunction*%
%TA.AperFunction,Conductor*%
G36*
X148003582Y-89500648D02*
G01*
X148336932Y-89517025D01*
X148349040Y-89518218D01*
X148676697Y-89566821D01*
X148688630Y-89569194D01*
X148850526Y-89609747D01*
X149009954Y-89649682D01*
X149021598Y-89653215D01*
X149092830Y-89678702D01*
X149333477Y-89764807D01*
X149344698Y-89769454D01*
X149644176Y-89911096D01*
X149654884Y-89916820D01*
X149846517Y-90031681D01*
X149939003Y-90087115D01*
X149949121Y-90093875D01*
X150215187Y-90291203D01*
X150224593Y-90298923D01*
X150470032Y-90521376D01*
X150478623Y-90529967D01*
X150614132Y-90679478D01*
X150701076Y-90775406D01*
X150708796Y-90784812D01*
X150906124Y-91050878D01*
X150912884Y-91060996D01*
X151083172Y-91345103D01*
X151088907Y-91355831D01*
X151212490Y-91617127D01*
X151230539Y-91655287D01*
X151235195Y-91666530D01*
X151346784Y-91978401D01*
X151350317Y-91990045D01*
X151430804Y-92311366D01*
X151433178Y-92323302D01*
X151481781Y-92650959D01*
X151482974Y-92663068D01*
X151499351Y-92996416D01*
X151499500Y-93002501D01*
X151499500Y-110996948D01*
X151499351Y-111003033D01*
X151482947Y-111336928D01*
X151481754Y-111349037D01*
X151433151Y-111676694D01*
X151430777Y-111688630D01*
X151350292Y-112009944D01*
X151346759Y-112021588D01*
X151235170Y-112333459D01*
X151230514Y-112344702D01*
X151088885Y-112644151D01*
X151083148Y-112654883D01*
X150912862Y-112938988D01*
X150906102Y-112949106D01*
X150708775Y-113215170D01*
X150701055Y-113224576D01*
X150478611Y-113470006D01*
X150470006Y-113478611D01*
X150224576Y-113701055D01*
X150215170Y-113708775D01*
X149949106Y-113906102D01*
X149938988Y-113912862D01*
X149654883Y-114083148D01*
X149644151Y-114088885D01*
X149344702Y-114230514D01*
X149333459Y-114235170D01*
X149021588Y-114346759D01*
X149009944Y-114350292D01*
X148688630Y-114430777D01*
X148676694Y-114433151D01*
X148349037Y-114481754D01*
X148336928Y-114482947D01*
X148021989Y-114498419D01*
X148003031Y-114499351D01*
X147996949Y-114499500D01*
X131003051Y-114499500D01*
X130996968Y-114499351D01*
X130976900Y-114498365D01*
X130663071Y-114482947D01*
X130650962Y-114481754D01*
X130323305Y-114433151D01*
X130311369Y-114430777D01*
X129990055Y-114350292D01*
X129978411Y-114346759D01*
X129666540Y-114235170D01*
X129655301Y-114230515D01*
X129355844Y-114088883D01*
X129345121Y-114083150D01*
X129061011Y-113912862D01*
X129050893Y-113906102D01*
X128784829Y-113708775D01*
X128775423Y-113701055D01*
X128736475Y-113665755D01*
X128529986Y-113478604D01*
X128521395Y-113470013D01*
X128298944Y-113224576D01*
X128291224Y-113215170D01*
X128093897Y-112949106D01*
X128087137Y-112938988D01*
X128063768Y-112899999D01*
X127916844Y-112654871D01*
X127911120Y-112644163D01*
X127769479Y-112344688D01*
X127764829Y-112333459D01*
X127753822Y-112302697D01*
X127660798Y-112042712D01*
X127653240Y-112021588D01*
X127649707Y-112009944D01*
X127634454Y-111949049D01*
X127569219Y-111688617D01*
X127566848Y-111676694D01*
X127565882Y-111670185D01*
X127518245Y-111349037D01*
X127517052Y-111336927D01*
X127500649Y-111003032D01*
X127500500Y-110996948D01*
X127500500Y-92753246D01*
X127500670Y-92746757D01*
X127502770Y-92706679D01*
X127503121Y-92699983D01*
X129099500Y-92699983D01*
X129099500Y-94300001D01*
X129099501Y-94300018D01*
X129110000Y-94402796D01*
X129110001Y-94402799D01*
X129158614Y-94549500D01*
X129165186Y-94569334D01*
X129257288Y-94718656D01*
X129381344Y-94842712D01*
X129530666Y-94934814D01*
X129697203Y-94989999D01*
X129799991Y-95000500D01*
X131400008Y-95000499D01*
X131444981Y-94995905D01*
X131509533Y-94989311D01*
X131509752Y-94991462D01*
X131569204Y-94995905D01*
X131625003Y-95037954D01*
X131649212Y-95103496D01*
X131649500Y-95111948D01*
X131649500Y-95388051D01*
X131629815Y-95455090D01*
X131577011Y-95500845D01*
X131509545Y-95510545D01*
X131509531Y-95510689D01*
X131508956Y-95510630D01*
X131507853Y-95510789D01*
X131504304Y-95510155D01*
X131400010Y-95499500D01*
X129799998Y-95499500D01*
X129799981Y-95499501D01*
X129697203Y-95510000D01*
X129697200Y-95510001D01*
X129530668Y-95565185D01*
X129530663Y-95565187D01*
X129381342Y-95657289D01*
X129257289Y-95781342D01*
X129165187Y-95930663D01*
X129165185Y-95930668D01*
X129141927Y-96000858D01*
X129110001Y-96097203D01*
X129110001Y-96097204D01*
X129110000Y-96097204D01*
X129099500Y-96199983D01*
X129099500Y-97800001D01*
X129099501Y-97800018D01*
X129110000Y-97902796D01*
X129110001Y-97902799D01*
X129165185Y-98069331D01*
X129165187Y-98069336D01*
X129179373Y-98092335D01*
X129257288Y-98218656D01*
X129381344Y-98342712D01*
X129530666Y-98434814D01*
X129697203Y-98489999D01*
X129799991Y-98500500D01*
X131400008Y-98500499D01*
X131502797Y-98489999D01*
X131502804Y-98489996D01*
X131509249Y-98488617D01*
X131578924Y-98493827D01*
X131622895Y-98522187D01*
X132738527Y-99637819D01*
X132772012Y-99699142D01*
X132767028Y-99768834D01*
X132725156Y-99824767D01*
X132659692Y-99849184D01*
X132650846Y-99849500D01*
X132224499Y-99849500D01*
X132157460Y-99829815D01*
X132111705Y-99777011D01*
X132100499Y-99725500D01*
X132100499Y-99699998D01*
X132100498Y-99699981D01*
X132089999Y-99597203D01*
X132089998Y-99597200D01*
X132034814Y-99430666D01*
X131942712Y-99281344D01*
X131818656Y-99157288D01*
X131669334Y-99065186D01*
X131502797Y-99010001D01*
X131502795Y-99010000D01*
X131400010Y-98999500D01*
X129799998Y-98999500D01*
X129799981Y-98999501D01*
X129697203Y-99010000D01*
X129697200Y-99010001D01*
X129530668Y-99065185D01*
X129530663Y-99065187D01*
X129381342Y-99157289D01*
X129257289Y-99281342D01*
X129165187Y-99430663D01*
X129165186Y-99430666D01*
X129110001Y-99597203D01*
X129110001Y-99597204D01*
X129110000Y-99597204D01*
X129099500Y-99699983D01*
X129099500Y-101300001D01*
X129099501Y-101300018D01*
X129110000Y-101402796D01*
X129110001Y-101402799D01*
X129151880Y-101529179D01*
X129165186Y-101569334D01*
X129257288Y-101718656D01*
X129381344Y-101842712D01*
X129530666Y-101934814D01*
X129697203Y-101989999D01*
X129799991Y-102000500D01*
X131400008Y-102000499D01*
X131502797Y-101989999D01*
X131669334Y-101934814D01*
X131818656Y-101842712D01*
X131942712Y-101718656D01*
X132034814Y-101569334D01*
X132089999Y-101402797D01*
X132100500Y-101300009D01*
X132100500Y-101274500D01*
X132120185Y-101207461D01*
X132172989Y-101161706D01*
X132224500Y-101150500D01*
X133279192Y-101150500D01*
X133308632Y-101159144D01*
X133338619Y-101165668D01*
X133343634Y-101169422D01*
X133346231Y-101170185D01*
X133366873Y-101186819D01*
X133432984Y-101252930D01*
X133466469Y-101314253D01*
X133466920Y-101316420D01*
X133480261Y-101383489D01*
X133480264Y-101383501D01*
X133540602Y-101529172D01*
X133540609Y-101529185D01*
X133628210Y-101660288D01*
X133628213Y-101660292D01*
X133739707Y-101771786D01*
X133739711Y-101771789D01*
X133870814Y-101859390D01*
X133870827Y-101859397D01*
X134016498Y-101919735D01*
X134016503Y-101919737D01*
X134171153Y-101950499D01*
X134171156Y-101950500D01*
X134171158Y-101950500D01*
X134328844Y-101950500D01*
X134328845Y-101950499D01*
X134483497Y-101919737D01*
X134629179Y-101859394D01*
X134742939Y-101783382D01*
X134809616Y-101762504D01*
X134876996Y-101780988D01*
X134899511Y-101798803D01*
X135705738Y-102605030D01*
X135739223Y-102666353D01*
X135734239Y-102736045D01*
X135692367Y-102791978D01*
X135626903Y-102816395D01*
X135584482Y-102811097D01*
X135584414Y-102811418D01*
X135580721Y-102810627D01*
X135579061Y-102810420D01*
X135577797Y-102810001D01*
X135577795Y-102810000D01*
X135475010Y-102799500D01*
X134849998Y-102799500D01*
X134849980Y-102799501D01*
X134747203Y-102810000D01*
X134747200Y-102810001D01*
X134580668Y-102865185D01*
X134580663Y-102865187D01*
X134431342Y-102957289D01*
X134337681Y-103050951D01*
X134276358Y-103084436D01*
X134206666Y-103079452D01*
X134162319Y-103050951D01*
X134068657Y-102957289D01*
X134068656Y-102957288D01*
X133975888Y-102900069D01*
X133919336Y-102865187D01*
X133919331Y-102865185D01*
X133917862Y-102864698D01*
X133752797Y-102810001D01*
X133752795Y-102810000D01*
X133650010Y-102799500D01*
X133024998Y-102799500D01*
X133024980Y-102799501D01*
X132922203Y-102810000D01*
X132922200Y-102810001D01*
X132755668Y-102865185D01*
X132755663Y-102865187D01*
X132606342Y-102957289D01*
X132482289Y-103081342D01*
X132390187Y-103230663D01*
X132390184Y-103230671D01*
X132378972Y-103264506D01*
X132365102Y-103284537D01*
X132354980Y-103306703D01*
X132345567Y-103312751D01*
X132339199Y-103321950D01*
X132316700Y-103331303D01*
X132296202Y-103344477D01*
X132279098Y-103346936D01*
X132274683Y-103348772D01*
X132261267Y-103349500D01*
X132224499Y-103349500D01*
X132157460Y-103329815D01*
X132111705Y-103277011D01*
X132100499Y-103225500D01*
X132100499Y-103199998D01*
X132100498Y-103199981D01*
X132089999Y-103097203D01*
X132089998Y-103097200D01*
X132084117Y-103079452D01*
X132034814Y-102930666D01*
X131942712Y-102781344D01*
X131818656Y-102657288D01*
X131713635Y-102592511D01*
X131669336Y-102565187D01*
X131669331Y-102565185D01*
X131663760Y-102563339D01*
X131502797Y-102510001D01*
X131502795Y-102510000D01*
X131400010Y-102499500D01*
X129799998Y-102499500D01*
X129799981Y-102499501D01*
X129697203Y-102510000D01*
X129697200Y-102510001D01*
X129530668Y-102565185D01*
X129530663Y-102565187D01*
X129381342Y-102657289D01*
X129257289Y-102781342D01*
X129165187Y-102930663D01*
X129165186Y-102930666D01*
X129110001Y-103097203D01*
X129110001Y-103097204D01*
X129110000Y-103097204D01*
X129099500Y-103199983D01*
X129099500Y-104800001D01*
X129099501Y-104800018D01*
X129110000Y-104902796D01*
X129110001Y-104902799D01*
X129144683Y-105007461D01*
X129165186Y-105069334D01*
X129257288Y-105218656D01*
X129381344Y-105342712D01*
X129530666Y-105434814D01*
X129697203Y-105489999D01*
X129799991Y-105500500D01*
X131400008Y-105500499D01*
X131502797Y-105489999D01*
X131669334Y-105434814D01*
X131818656Y-105342712D01*
X131942712Y-105218656D01*
X132034814Y-105069334D01*
X132089999Y-104902797D01*
X132100500Y-104800009D01*
X132100500Y-104774500D01*
X132103050Y-104765814D01*
X132101762Y-104756853D01*
X132112740Y-104732812D01*
X132120185Y-104707461D01*
X132127025Y-104701533D01*
X132130787Y-104693297D01*
X132153021Y-104679007D01*
X132172989Y-104661706D01*
X132183503Y-104659418D01*
X132189565Y-104655523D01*
X132224500Y-104650500D01*
X132261267Y-104650500D01*
X132328306Y-104670185D01*
X132374061Y-104722989D01*
X132378972Y-104735494D01*
X132390186Y-104769334D01*
X132482288Y-104918656D01*
X132606344Y-105042712D01*
X132755666Y-105134814D01*
X132922203Y-105189999D01*
X133024991Y-105200500D01*
X133650008Y-105200499D01*
X133650016Y-105200498D01*
X133650019Y-105200498D01*
X133706302Y-105194748D01*
X133752797Y-105189999D01*
X133919334Y-105134814D01*
X134068656Y-105042712D01*
X134162319Y-104949049D01*
X134167533Y-104946201D01*
X134170855Y-104941272D01*
X134197854Y-104929645D01*
X134223642Y-104915564D01*
X134229568Y-104915987D01*
X134235028Y-104913637D01*
X134264020Y-104918451D01*
X134293334Y-104920548D01*
X134299603Y-104924360D01*
X134303953Y-104925083D01*
X134322729Y-104938424D01*
X134333222Y-104944806D01*
X134335503Y-104946871D01*
X134431344Y-105042712D01*
X134462784Y-105062104D01*
X134471222Y-105069743D01*
X134483760Y-105090219D01*
X134499820Y-105108073D01*
X134502845Y-105121387D01*
X134507709Y-105129329D01*
X134507441Y-105141610D01*
X134512000Y-105161667D01*
X134512000Y-105726569D01*
X134512000Y-105726571D01*
X134511999Y-105726571D01*
X134525472Y-105794297D01*
X134532929Y-105831784D01*
X134536999Y-105852244D01*
X134586035Y-105970627D01*
X134649217Y-106065187D01*
X134657226Y-106077173D01*
X134712347Y-106132294D01*
X134745832Y-106193617D01*
X134740848Y-106263309D01*
X134698976Y-106319242D01*
X134663671Y-106337680D01*
X134580669Y-106365185D01*
X134580666Y-106365186D01*
X134580663Y-106365187D01*
X134431342Y-106457289D01*
X134337681Y-106550951D01*
X134276358Y-106584436D01*
X134206666Y-106579452D01*
X134162319Y-106550951D01*
X134068657Y-106457289D01*
X134068656Y-106457288D01*
X133975888Y-106400069D01*
X133919336Y-106365187D01*
X133919331Y-106365185D01*
X133917862Y-106364698D01*
X133752797Y-106310001D01*
X133752795Y-106310000D01*
X133650010Y-106299500D01*
X133024998Y-106299500D01*
X133024980Y-106299501D01*
X132922203Y-106310000D01*
X132922200Y-106310001D01*
X132755668Y-106365185D01*
X132755663Y-106365187D01*
X132606342Y-106457289D01*
X132482289Y-106581342D01*
X132390187Y-106730663D01*
X132390184Y-106730671D01*
X132378972Y-106764506D01*
X132365102Y-106784537D01*
X132354980Y-106806703D01*
X132345567Y-106812751D01*
X132339199Y-106821950D01*
X132316700Y-106831303D01*
X132296202Y-106844477D01*
X132279098Y-106846936D01*
X132274683Y-106848772D01*
X132261267Y-106849500D01*
X132224499Y-106849500D01*
X132157460Y-106829815D01*
X132111705Y-106777011D01*
X132100499Y-106725500D01*
X132100499Y-106699998D01*
X132100498Y-106699981D01*
X132089999Y-106597203D01*
X132089998Y-106597200D01*
X132075347Y-106552986D01*
X132034814Y-106430666D01*
X131942712Y-106281344D01*
X131818656Y-106157288D01*
X131669334Y-106065186D01*
X131502797Y-106010001D01*
X131502795Y-106010000D01*
X131400010Y-105999500D01*
X129799998Y-105999500D01*
X129799981Y-105999501D01*
X129697203Y-106010000D01*
X129697200Y-106010001D01*
X129530668Y-106065185D01*
X129530663Y-106065187D01*
X129381342Y-106157289D01*
X129257289Y-106281342D01*
X129165187Y-106430663D01*
X129165186Y-106430666D01*
X129110001Y-106597203D01*
X129110001Y-106597204D01*
X129110000Y-106597204D01*
X129099500Y-106699983D01*
X129099500Y-108300001D01*
X129099501Y-108300018D01*
X129110000Y-108402796D01*
X129110001Y-108402799D01*
X129145776Y-108510760D01*
X129165186Y-108569334D01*
X129257288Y-108718656D01*
X129381344Y-108842712D01*
X129530666Y-108934814D01*
X129697203Y-108989999D01*
X129799991Y-109000500D01*
X131400008Y-109000499D01*
X131502797Y-108989999D01*
X131669334Y-108934814D01*
X131818656Y-108842712D01*
X131942712Y-108718656D01*
X132034814Y-108569334D01*
X132089999Y-108402797D01*
X132100500Y-108300009D01*
X132100500Y-108274500D01*
X132103050Y-108265814D01*
X132101762Y-108256853D01*
X132112740Y-108232812D01*
X132120185Y-108207461D01*
X132127025Y-108201533D01*
X132130787Y-108193297D01*
X132153021Y-108179007D01*
X132172989Y-108161706D01*
X132183503Y-108159418D01*
X132189565Y-108155523D01*
X132224500Y-108150500D01*
X132261267Y-108150500D01*
X132328306Y-108170185D01*
X132374061Y-108222989D01*
X132378972Y-108235494D01*
X132390184Y-108269328D01*
X132390187Y-108269336D01*
X132424212Y-108324500D01*
X132482288Y-108418656D01*
X132606344Y-108542712D01*
X132755666Y-108634814D01*
X132922203Y-108689999D01*
X133024991Y-108700500D01*
X133650008Y-108700499D01*
X133650016Y-108700498D01*
X133650019Y-108700498D01*
X133706302Y-108694748D01*
X133752797Y-108689999D01*
X133919334Y-108634814D01*
X134068656Y-108542712D01*
X134162319Y-108449049D01*
X134223642Y-108415564D01*
X134293334Y-108420548D01*
X134337681Y-108449049D01*
X134431344Y-108542712D01*
X134580666Y-108634814D01*
X134747203Y-108689999D01*
X134849991Y-108700500D01*
X135475008Y-108700499D01*
X135475016Y-108700498D01*
X135475019Y-108700498D01*
X135531302Y-108694748D01*
X135577797Y-108689999D01*
X135744334Y-108634814D01*
X135893656Y-108542712D01*
X136017712Y-108418656D01*
X136109814Y-108269334D01*
X136109814Y-108269332D01*
X136113605Y-108263187D01*
X136115399Y-108264293D01*
X136154687Y-108219663D01*
X136220908Y-108200500D01*
X136888001Y-108200500D01*
X136890170Y-108201137D01*
X136892360Y-108200577D01*
X136923526Y-108210931D01*
X136955040Y-108220185D01*
X136956520Y-108221893D01*
X136958666Y-108222606D01*
X136979297Y-108248179D01*
X137000795Y-108272989D01*
X137001560Y-108275775D01*
X137002537Y-108276986D01*
X137004238Y-108285526D01*
X137011283Y-108311179D01*
X137012001Y-108317823D01*
X137012001Y-108339360D01*
X137024989Y-108438023D01*
X137025149Y-108439502D01*
X137019206Y-108472541D01*
X137014039Y-108505675D01*
X137012975Y-108507187D01*
X137012781Y-108508268D01*
X137010463Y-108510760D01*
X136989548Y-108540504D01*
X135738728Y-109791324D01*
X135677405Y-109824809D01*
X135612043Y-109821349D01*
X135577797Y-109810001D01*
X135526403Y-109804750D01*
X135475010Y-109799500D01*
X134849998Y-109799500D01*
X134849980Y-109799501D01*
X134747203Y-109810000D01*
X134747200Y-109810001D01*
X134580668Y-109865185D01*
X134580663Y-109865187D01*
X134431342Y-109957289D01*
X134337681Y-110050951D01*
X134276358Y-110084436D01*
X134206666Y-110079452D01*
X134162319Y-110050951D01*
X134068657Y-109957289D01*
X134068656Y-109957288D01*
X133919334Y-109865186D01*
X133752797Y-109810001D01*
X133752795Y-109810000D01*
X133650010Y-109799500D01*
X133024998Y-109799500D01*
X133024980Y-109799501D01*
X132922203Y-109810000D01*
X132922200Y-109810001D01*
X132755668Y-109865185D01*
X132755663Y-109865187D01*
X132606342Y-109957289D01*
X132482289Y-110081342D01*
X132390187Y-110230663D01*
X132390184Y-110230671D01*
X132378972Y-110264506D01*
X132365102Y-110284537D01*
X132354980Y-110306703D01*
X132345567Y-110312751D01*
X132339199Y-110321950D01*
X132316700Y-110331303D01*
X132296202Y-110344477D01*
X132279098Y-110346936D01*
X132274683Y-110348772D01*
X132261267Y-110349500D01*
X132224499Y-110349500D01*
X132157460Y-110329815D01*
X132111705Y-110277011D01*
X132100499Y-110225500D01*
X132100499Y-110199998D01*
X132100498Y-110199981D01*
X132089999Y-110097203D01*
X132089998Y-110097200D01*
X132076904Y-110057684D01*
X132034814Y-109930666D01*
X131942712Y-109781344D01*
X131818656Y-109657288D01*
X131669334Y-109565186D01*
X131502797Y-109510001D01*
X131502795Y-109510000D01*
X131400010Y-109499500D01*
X129799998Y-109499500D01*
X129799981Y-109499501D01*
X129697203Y-109510000D01*
X129697200Y-109510001D01*
X129530668Y-109565185D01*
X129530663Y-109565187D01*
X129381342Y-109657289D01*
X129257289Y-109781342D01*
X129165187Y-109930663D01*
X129165186Y-109930666D01*
X129110001Y-110097203D01*
X129110001Y-110097204D01*
X129110000Y-110097204D01*
X129099500Y-110199983D01*
X129099500Y-111800001D01*
X129099501Y-111800018D01*
X129110000Y-111902796D01*
X129110001Y-111902799D01*
X129156364Y-112042710D01*
X129165186Y-112069334D01*
X129257288Y-112218656D01*
X129381344Y-112342712D01*
X129530666Y-112434814D01*
X129697203Y-112489999D01*
X129799991Y-112500500D01*
X131400008Y-112500499D01*
X131502797Y-112489999D01*
X131669334Y-112434814D01*
X131818656Y-112342712D01*
X131942712Y-112218656D01*
X132034814Y-112069334D01*
X132089999Y-111902797D01*
X132100500Y-111800009D01*
X132100500Y-111774500D01*
X132103050Y-111765814D01*
X132101762Y-111756853D01*
X132112740Y-111732812D01*
X132120185Y-111707461D01*
X132127025Y-111701533D01*
X132130787Y-111693297D01*
X132153021Y-111679007D01*
X132172989Y-111661706D01*
X132183503Y-111659418D01*
X132189565Y-111655523D01*
X132224500Y-111650500D01*
X132261267Y-111650500D01*
X132328306Y-111670185D01*
X132374061Y-111722989D01*
X132378972Y-111735494D01*
X132390186Y-111769334D01*
X132482288Y-111918656D01*
X132606344Y-112042712D01*
X132755666Y-112134814D01*
X132922203Y-112189999D01*
X133024991Y-112200500D01*
X133650008Y-112200499D01*
X133650016Y-112200498D01*
X133650019Y-112200498D01*
X133706302Y-112194748D01*
X133752797Y-112189999D01*
X133919334Y-112134814D01*
X134068656Y-112042712D01*
X134162319Y-111949049D01*
X134223642Y-111915564D01*
X134293334Y-111920548D01*
X134337681Y-111949049D01*
X134431344Y-112042712D01*
X134580666Y-112134814D01*
X134747203Y-112189999D01*
X134849991Y-112200500D01*
X135475008Y-112200499D01*
X135475016Y-112200498D01*
X135475019Y-112200498D01*
X135480031Y-112199986D01*
X138000001Y-112199986D01*
X138010494Y-112302697D01*
X138065641Y-112469119D01*
X138065643Y-112469124D01*
X138157684Y-112618345D01*
X138281654Y-112742315D01*
X138430875Y-112834356D01*
X138430880Y-112834358D01*
X138597302Y-112889505D01*
X138597309Y-112889506D01*
X138700019Y-112899999D01*
X139249999Y-112899999D01*
X139750000Y-112899999D01*
X140299972Y-112899999D01*
X140299986Y-112899998D01*
X140402697Y-112889505D01*
X140569119Y-112834358D01*
X140569124Y-112834356D01*
X140718345Y-112742315D01*
X140842315Y-112618345D01*
X140934356Y-112469124D01*
X140934358Y-112469119D01*
X140989505Y-112302697D01*
X140989506Y-112302690D01*
X140999999Y-112199986D01*
X141000000Y-112199973D01*
X141000000Y-111650000D01*
X139750000Y-111650000D01*
X139750000Y-112899999D01*
X139249999Y-112899999D01*
X139250000Y-112899998D01*
X139250000Y-111650000D01*
X138000001Y-111650000D01*
X138000001Y-112199986D01*
X135480031Y-112199986D01*
X135531302Y-112194748D01*
X135577797Y-112189999D01*
X135744334Y-112134814D01*
X135893656Y-112042712D01*
X136017712Y-111918656D01*
X136109814Y-111769334D01*
X136164999Y-111602797D01*
X136175500Y-111500009D01*
X136175499Y-111245806D01*
X136195183Y-111178768D01*
X136211813Y-111158131D01*
X136769931Y-110600013D01*
X138000000Y-110600013D01*
X138000000Y-111150000D01*
X139250000Y-111150000D01*
X139750000Y-111150000D01*
X140999999Y-111150000D01*
X140999999Y-110600028D01*
X140999998Y-110600013D01*
X140989505Y-110497302D01*
X140934358Y-110330880D01*
X140934356Y-110330875D01*
X140842315Y-110181654D01*
X140718345Y-110057684D01*
X140569124Y-109965643D01*
X140569119Y-109965641D01*
X140402697Y-109910494D01*
X140402690Y-109910493D01*
X140299986Y-109900000D01*
X139750000Y-109900000D01*
X139750000Y-111150000D01*
X139250000Y-111150000D01*
X139250000Y-109900000D01*
X138700028Y-109900000D01*
X138700012Y-109900001D01*
X138597302Y-109910494D01*
X138430880Y-109965641D01*
X138430875Y-109965643D01*
X138281654Y-110057684D01*
X138157684Y-110181654D01*
X138065643Y-110330875D01*
X138065641Y-110330880D01*
X138010494Y-110497302D01*
X138010493Y-110497309D01*
X138000000Y-110600013D01*
X136769931Y-110600013D01*
X138433127Y-108936818D01*
X138494450Y-108903333D01*
X138520808Y-108900499D01*
X138926863Y-108900499D01*
X139044253Y-108885046D01*
X139044257Y-108885044D01*
X139044262Y-108885044D01*
X139190341Y-108824536D01*
X139315782Y-108728282D01*
X139412036Y-108602841D01*
X139472544Y-108456762D01*
X139488000Y-108339361D01*
X139487999Y-108060640D01*
X139472544Y-107943238D01*
X139472542Y-107943234D01*
X139463935Y-107922455D01*
X139456465Y-107852986D01*
X139463935Y-107827545D01*
X139472544Y-107806762D01*
X139488000Y-107689361D01*
X139487999Y-107410640D01*
X139472544Y-107293238D01*
X139472542Y-107293234D01*
X139463935Y-107272455D01*
X139456465Y-107202986D01*
X139463935Y-107177545D01*
X139472544Y-107156762D01*
X139488000Y-107039361D01*
X139487999Y-106760640D01*
X139472544Y-106643238D01*
X139472542Y-106643234D01*
X139463935Y-106622455D01*
X139456465Y-106552986D01*
X139463935Y-106527545D01*
X139472544Y-106506762D01*
X139488000Y-106389361D01*
X139487999Y-106110640D01*
X139472544Y-105993238D01*
X139472542Y-105993234D01*
X139463935Y-105972455D01*
X139456465Y-105902986D01*
X139463935Y-105877545D01*
X139472544Y-105856762D01*
X139488000Y-105739361D01*
X139487999Y-105460640D01*
X139472544Y-105343238D01*
X139472542Y-105343234D01*
X139463935Y-105322455D01*
X139456191Y-105254562D01*
X139458521Y-105240613D01*
X139472544Y-105206762D01*
X139488000Y-105089361D01*
X139488000Y-105064211D01*
X139489696Y-105054062D01*
X139500624Y-105031506D01*
X139507685Y-105007461D01*
X139515595Y-105000606D01*
X139520161Y-104991184D01*
X139541550Y-104978116D01*
X139560489Y-104961706D01*
X139572792Y-104959029D01*
X139579784Y-104954758D01*
X139591228Y-104955018D01*
X139612000Y-104950500D01*
X139764071Y-104950500D01*
X139868911Y-104929645D01*
X139889744Y-104925501D01*
X140008127Y-104876465D01*
X140016386Y-104870946D01*
X140016392Y-104870944D01*
X140016391Y-104870943D01*
X140114669Y-104805277D01*
X140710277Y-104209669D01*
X140781465Y-104103127D01*
X140830501Y-103984744D01*
X140839998Y-103936999D01*
X140855500Y-103859069D01*
X140855500Y-102651874D01*
X140864134Y-102622468D01*
X140870633Y-102592511D01*
X140874417Y-102587449D01*
X140875185Y-102584835D01*
X140891762Y-102564249D01*
X140892624Y-102563387D01*
X140953924Y-102529869D01*
X141023618Y-102534813D01*
X141068034Y-102563339D01*
X141077267Y-102572572D01*
X141077271Y-102572575D01*
X141221507Y-102661542D01*
X141221518Y-102661547D01*
X141382393Y-102714855D01*
X141481683Y-102724999D01*
X142005000Y-102724999D01*
X142028308Y-102724999D01*
X142028322Y-102724998D01*
X142127607Y-102714855D01*
X142288481Y-102661547D01*
X142288492Y-102661542D01*
X142432728Y-102572575D01*
X142432732Y-102572572D01*
X142552572Y-102452732D01*
X142552575Y-102452728D01*
X142641542Y-102308492D01*
X142641547Y-102308481D01*
X142694855Y-102147606D01*
X142704999Y-102048322D01*
X142705000Y-102048309D01*
X142705000Y-102000000D01*
X142005000Y-102000000D01*
X142005000Y-102724999D01*
X141481683Y-102724999D01*
X141505000Y-102724998D01*
X141505000Y-101500000D01*
X142005000Y-101500000D01*
X142704999Y-101500000D01*
X142704999Y-101451692D01*
X142704998Y-101451677D01*
X142694855Y-101352392D01*
X142641547Y-101191518D01*
X142641542Y-101191507D01*
X142552575Y-101047271D01*
X142552572Y-101047267D01*
X142432732Y-100927427D01*
X142432728Y-100927424D01*
X142288492Y-100838457D01*
X142288481Y-100838452D01*
X142127606Y-100785144D01*
X142028322Y-100775000D01*
X142005000Y-100775000D01*
X142005000Y-101500000D01*
X141505000Y-101500000D01*
X141505000Y-100774999D01*
X141481693Y-100775000D01*
X141481674Y-100775001D01*
X141382392Y-100785144D01*
X141221518Y-100838452D01*
X141221507Y-100838457D01*
X141077271Y-100927424D01*
X141077264Y-100927430D01*
X141068028Y-100936665D01*
X141060085Y-100941001D01*
X141054663Y-100948245D01*
X141029900Y-100957480D01*
X141006703Y-100970146D01*
X140997676Y-100969499D01*
X140989199Y-100972662D01*
X140963375Y-100967044D01*
X140937011Y-100965157D01*
X140927961Y-100959340D01*
X140920926Y-100957810D01*
X140892672Y-100936659D01*
X140891819Y-100935806D01*
X140858334Y-100874483D01*
X140855500Y-100848125D01*
X140855500Y-100340928D01*
X140830502Y-100215261D01*
X140830501Y-100215260D01*
X140830501Y-100215256D01*
X140781465Y-100096873D01*
X140781464Y-100096872D01*
X140781461Y-100096866D01*
X140710277Y-99990332D01*
X140710276Y-99990331D01*
X140619669Y-99899724D01*
X139877233Y-99157288D01*
X139126319Y-98406373D01*
X139092834Y-98345050D01*
X139090000Y-98318692D01*
X139090000Y-97433012D01*
X139147007Y-97465925D01*
X139274174Y-97500000D01*
X139405826Y-97500000D01*
X139532993Y-97465925D01*
X139590000Y-97433012D01*
X139590000Y-98327230D01*
X139656126Y-98316757D01*
X139656129Y-98316757D01*
X139858217Y-98251095D01*
X140047557Y-98154620D01*
X140219459Y-98029727D01*
X140219464Y-98029723D01*
X140369723Y-97879464D01*
X140369727Y-97879459D01*
X140494620Y-97707558D01*
X140499232Y-97698507D01*
X140547205Y-97647709D01*
X140615025Y-97630912D01*
X140681161Y-97653447D01*
X140720204Y-97698504D01*
X140724949Y-97707817D01*
X140849890Y-97879786D01*
X141000213Y-98030109D01*
X141172179Y-98155048D01*
X141172181Y-98155049D01*
X141172184Y-98155051D01*
X141361588Y-98251557D01*
X141563757Y-98317246D01*
X141773713Y-98350500D01*
X141773714Y-98350500D01*
X141986286Y-98350500D01*
X141986287Y-98350500D01*
X142133207Y-98327230D01*
X142201055Y-98316484D01*
X142201315Y-98318128D01*
X142263852Y-98321250D01*
X142310711Y-98350657D01*
X144385181Y-100425127D01*
X144418666Y-100486450D01*
X144421500Y-100512808D01*
X144421500Y-103476000D01*
X144401815Y-103543039D01*
X144349011Y-103588794D01*
X144297500Y-103600000D01*
X144175000Y-103600000D01*
X144175000Y-104125500D01*
X144172449Y-104134185D01*
X144173738Y-104143147D01*
X144162759Y-104167187D01*
X144155315Y-104192539D01*
X144148474Y-104198466D01*
X144144713Y-104206703D01*
X144122478Y-104220992D01*
X144102511Y-104238294D01*
X144091996Y-104240581D01*
X144085935Y-104244477D01*
X144051000Y-104249500D01*
X143899000Y-104249500D01*
X143831961Y-104229815D01*
X143786206Y-104177011D01*
X143775000Y-104125500D01*
X143775000Y-103600000D01*
X143298175Y-103600000D01*
X143180871Y-103615442D01*
X143180866Y-103615444D01*
X143034914Y-103675899D01*
X142909575Y-103772075D01*
X142813399Y-103897413D01*
X142752944Y-104043368D01*
X142745487Y-104100000D01*
X142963197Y-104100000D01*
X142988516Y-104107434D01*
X143014638Y-104111174D01*
X143021512Y-104117123D01*
X143030236Y-104119685D01*
X143047514Y-104139625D01*
X143067471Y-104156896D01*
X143070038Y-104165619D01*
X143075991Y-104172489D01*
X143079746Y-104198606D01*
X143087197Y-104223923D01*
X143084641Y-104232647D01*
X143085935Y-104241647D01*
X143074972Y-104265651D01*
X143067554Y-104290975D01*
X143059315Y-104299935D01*
X143056910Y-104305203D01*
X143044458Y-104317662D01*
X143036201Y-104324824D01*
X143034659Y-104325464D01*
X142909218Y-104421718D01*
X142878739Y-104461438D01*
X142869261Y-104469662D01*
X142848440Y-104479186D01*
X142829947Y-104492690D01*
X142812134Y-104495794D01*
X142805723Y-104498727D01*
X142800003Y-104497908D01*
X142788000Y-104500000D01*
X142745490Y-104500000D01*
X142745488Y-104500001D01*
X142752941Y-104556622D01*
X142752945Y-104556634D01*
X142761337Y-104576895D01*
X142768804Y-104646364D01*
X142761338Y-104671794D01*
X142752456Y-104693238D01*
X142752455Y-104693239D01*
X142737000Y-104810638D01*
X142737000Y-105089363D01*
X142752453Y-105206753D01*
X142752457Y-105206765D01*
X142761066Y-105227550D01*
X142768533Y-105297019D01*
X142761066Y-105322450D01*
X142752457Y-105343234D01*
X142752455Y-105343239D01*
X142737000Y-105460638D01*
X142737000Y-105739363D01*
X142752453Y-105856753D01*
X142752457Y-105856765D01*
X142761066Y-105877550D01*
X142768533Y-105947019D01*
X142761066Y-105972450D01*
X142752457Y-105993234D01*
X142752455Y-105993239D01*
X142737000Y-106110638D01*
X142737000Y-106389363D01*
X142752453Y-106506753D01*
X142752457Y-106506765D01*
X142761066Y-106527550D01*
X142768533Y-106597019D01*
X142761066Y-106622450D01*
X142752457Y-106643234D01*
X142752455Y-106643239D01*
X142737000Y-106760638D01*
X142737000Y-107039363D01*
X142752453Y-107156753D01*
X142752457Y-107156765D01*
X142761066Y-107177550D01*
X142768533Y-107247019D01*
X142761066Y-107272450D01*
X142752457Y-107293234D01*
X142752455Y-107293239D01*
X142737000Y-107410638D01*
X142737000Y-107689363D01*
X142752453Y-107806753D01*
X142752457Y-107806765D01*
X142761066Y-107827550D01*
X142768533Y-107897019D01*
X142761066Y-107922450D01*
X142752457Y-107943234D01*
X142752455Y-107943239D01*
X142737000Y-108060638D01*
X142737000Y-108339363D01*
X142752453Y-108456753D01*
X142752456Y-108456762D01*
X142773790Y-108508268D01*
X142812964Y-108602841D01*
X142909218Y-108728282D01*
X143034659Y-108824536D01*
X143180738Y-108885044D01*
X143298139Y-108900500D01*
X143425500Y-108900499D01*
X143492539Y-108920183D01*
X143538294Y-108972987D01*
X143549500Y-109024499D01*
X143549500Y-110064069D01*
X143549500Y-110064071D01*
X143549499Y-110064071D01*
X143574497Y-110189738D01*
X143574499Y-110189744D01*
X143605466Y-110264506D01*
X143623535Y-110308127D01*
X143643692Y-110338294D01*
X143694726Y-110414673D01*
X144785325Y-111505272D01*
X144785332Y-111505278D01*
X144891863Y-111576459D01*
X144891867Y-111576461D01*
X144891874Y-111576466D01*
X144949898Y-111600500D01*
X144949899Y-111600500D01*
X144949900Y-111600501D01*
X144955443Y-111602797D01*
X145010256Y-111625501D01*
X145010260Y-111625501D01*
X145010261Y-111625502D01*
X145135928Y-111650500D01*
X145135931Y-111650500D01*
X145264069Y-111650500D01*
X146375501Y-111650500D01*
X146442540Y-111670185D01*
X146488295Y-111722989D01*
X146499501Y-111774500D01*
X146499501Y-111800018D01*
X146510000Y-111902796D01*
X146510001Y-111902799D01*
X146556364Y-112042710D01*
X146565186Y-112069334D01*
X146657288Y-112218656D01*
X146781344Y-112342712D01*
X146930666Y-112434814D01*
X147097203Y-112489999D01*
X147199991Y-112500500D01*
X148800008Y-112500499D01*
X148902797Y-112489999D01*
X149069334Y-112434814D01*
X149218656Y-112342712D01*
X149342712Y-112218656D01*
X149434814Y-112069334D01*
X149489999Y-111902797D01*
X149500500Y-111800009D01*
X149500499Y-110199992D01*
X149489999Y-110097203D01*
X149434814Y-109930666D01*
X149342712Y-109781344D01*
X149218656Y-109657288D01*
X149069334Y-109565186D01*
X148902797Y-109510001D01*
X148902795Y-109510000D01*
X148800010Y-109499500D01*
X147199998Y-109499500D01*
X147199981Y-109499501D01*
X147097203Y-109510000D01*
X147097200Y-109510001D01*
X146930668Y-109565185D01*
X146930663Y-109565187D01*
X146781342Y-109657289D01*
X146657289Y-109781342D01*
X146565187Y-109930663D01*
X146565186Y-109930666D01*
X146510001Y-110097203D01*
X146510001Y-110097204D01*
X146510000Y-110097204D01*
X146499500Y-110199983D01*
X146499500Y-110225500D01*
X146479815Y-110292539D01*
X146427011Y-110338294D01*
X146375500Y-110349500D01*
X145520808Y-110349500D01*
X145453769Y-110329815D01*
X145433127Y-110313181D01*
X144886819Y-109766873D01*
X144853334Y-109705550D01*
X144850500Y-109679192D01*
X144850500Y-108933563D01*
X144870185Y-108866524D01*
X144908951Y-108829561D01*
X144908892Y-108829484D01*
X144909611Y-108828932D01*
X144912505Y-108826173D01*
X144915333Y-108824538D01*
X144915341Y-108824536D01*
X145040782Y-108728282D01*
X145137036Y-108602841D01*
X145197544Y-108456762D01*
X145213000Y-108339361D01*
X145213000Y-108324500D01*
X145232685Y-108257461D01*
X145285489Y-108211706D01*
X145337000Y-108200500D01*
X146377357Y-108200500D01*
X146444396Y-108220185D01*
X146490151Y-108272989D01*
X146500715Y-108311898D01*
X146510001Y-108402797D01*
X146510001Y-108402799D01*
X146545776Y-108510760D01*
X146565186Y-108569334D01*
X146657288Y-108718656D01*
X146781344Y-108842712D01*
X146930666Y-108934814D01*
X147097203Y-108989999D01*
X147199991Y-109000500D01*
X148800008Y-109000499D01*
X148902797Y-108989999D01*
X149069334Y-108934814D01*
X149218656Y-108842712D01*
X149342712Y-108718656D01*
X149434814Y-108569334D01*
X149489999Y-108402797D01*
X149500500Y-108300009D01*
X149500499Y-106699992D01*
X149489999Y-106597203D01*
X149434814Y-106430666D01*
X149342712Y-106281344D01*
X149218656Y-106157288D01*
X149069334Y-106065186D01*
X148902797Y-106010001D01*
X148902795Y-106010000D01*
X148800016Y-105999500D01*
X148800009Y-105999500D01*
X147619807Y-105999500D01*
X147552768Y-105979815D01*
X147507013Y-105927011D01*
X147497069Y-105857853D01*
X147526094Y-105794297D01*
X147532126Y-105787819D01*
X147783127Y-105536818D01*
X147844450Y-105503333D01*
X147870808Y-105500499D01*
X148800002Y-105500499D01*
X148800008Y-105500499D01*
X148902797Y-105489999D01*
X149069334Y-105434814D01*
X149218656Y-105342712D01*
X149342712Y-105218656D01*
X149434814Y-105069334D01*
X149489999Y-104902797D01*
X149500500Y-104800009D01*
X149500499Y-103199992D01*
X149489999Y-103097203D01*
X149434814Y-102930666D01*
X149342712Y-102781344D01*
X149218656Y-102657288D01*
X149113635Y-102592511D01*
X149069336Y-102565187D01*
X149069331Y-102565185D01*
X149063760Y-102563339D01*
X148902797Y-102510001D01*
X148902795Y-102510000D01*
X148800016Y-102499500D01*
X147219806Y-102499500D01*
X147152767Y-102479815D01*
X147107012Y-102427011D01*
X147097068Y-102357853D01*
X147126093Y-102294297D01*
X147132105Y-102287840D01*
X147383127Y-102036817D01*
X147444450Y-102003333D01*
X147470808Y-102000499D01*
X148800002Y-102000499D01*
X148800008Y-102000499D01*
X148902797Y-101989999D01*
X149069334Y-101934814D01*
X149218656Y-101842712D01*
X149342712Y-101718656D01*
X149434814Y-101569334D01*
X149489999Y-101402797D01*
X149500500Y-101300009D01*
X149500499Y-99699992D01*
X149489999Y-99597203D01*
X149434814Y-99430666D01*
X149342712Y-99281344D01*
X149218656Y-99157288D01*
X149069334Y-99065186D01*
X148902797Y-99010001D01*
X148902795Y-99010000D01*
X148800010Y-98999500D01*
X147199998Y-98999500D01*
X147199981Y-98999501D01*
X147097203Y-99010000D01*
X147097200Y-99010001D01*
X146930668Y-99065185D01*
X146930663Y-99065187D01*
X146781342Y-99157289D01*
X146657289Y-99281342D01*
X146565187Y-99430663D01*
X146565186Y-99430666D01*
X146510001Y-99597203D01*
X146510001Y-99597204D01*
X146510000Y-99597204D01*
X146499500Y-99699983D01*
X146499500Y-101029191D01*
X146490855Y-101058631D01*
X146484332Y-101088618D01*
X146480577Y-101093633D01*
X146479815Y-101096230D01*
X146463181Y-101116872D01*
X146462181Y-101117872D01*
X146400858Y-101151357D01*
X146331166Y-101146373D01*
X146275233Y-101104501D01*
X146250816Y-101039037D01*
X146250500Y-101030191D01*
X146250500Y-98120807D01*
X146270185Y-98053768D01*
X146286815Y-98033130D01*
X146344739Y-97975206D01*
X146406061Y-97941722D01*
X146475753Y-97946706D01*
X146531686Y-97988578D01*
X146550124Y-98023882D01*
X146565184Y-98069328D01*
X146565187Y-98069336D01*
X146579373Y-98092335D01*
X146657288Y-98218656D01*
X146781344Y-98342712D01*
X146930666Y-98434814D01*
X147097203Y-98489999D01*
X147199991Y-98500500D01*
X148800008Y-98500499D01*
X148902797Y-98489999D01*
X149069334Y-98434814D01*
X149218656Y-98342712D01*
X149342712Y-98218656D01*
X149434814Y-98069334D01*
X149489999Y-97902797D01*
X149500500Y-97800009D01*
X149500499Y-96199992D01*
X149492349Y-96120213D01*
X149489999Y-96097203D01*
X149489998Y-96097200D01*
X149447938Y-95970272D01*
X149434814Y-95930666D01*
X149342712Y-95781344D01*
X149218656Y-95657288D01*
X149124310Y-95599095D01*
X149069336Y-95565187D01*
X149069331Y-95565185D01*
X149049498Y-95558613D01*
X148902797Y-95510001D01*
X148902795Y-95510000D01*
X148800016Y-95499500D01*
X147219806Y-95499500D01*
X147152767Y-95479815D01*
X147107012Y-95427011D01*
X147097068Y-95357853D01*
X147126093Y-95294297D01*
X147132105Y-95287839D01*
X147383127Y-95036817D01*
X147444450Y-95003333D01*
X147470808Y-95000499D01*
X148800002Y-95000499D01*
X148800008Y-95000499D01*
X148902797Y-94989999D01*
X149069334Y-94934814D01*
X149218656Y-94842712D01*
X149342712Y-94718656D01*
X149434814Y-94569334D01*
X149489999Y-94402797D01*
X149500500Y-94300009D01*
X149500499Y-92699992D01*
X149499513Y-92690344D01*
X149489999Y-92597203D01*
X149489998Y-92597200D01*
X149475513Y-92553488D01*
X149434814Y-92430666D01*
X149342712Y-92281344D01*
X149218656Y-92157288D01*
X149107063Y-92088457D01*
X149069336Y-92065187D01*
X149069331Y-92065185D01*
X149067862Y-92064698D01*
X148902797Y-92010001D01*
X148902795Y-92010000D01*
X148800010Y-91999500D01*
X147199998Y-91999500D01*
X147199981Y-91999501D01*
X147097203Y-92010000D01*
X147097200Y-92010001D01*
X146930668Y-92065185D01*
X146930663Y-92065187D01*
X146781342Y-92157289D01*
X146657289Y-92281342D01*
X146565187Y-92430663D01*
X146565185Y-92430668D01*
X146561590Y-92441518D01*
X146510001Y-92597203D01*
X146510001Y-92597204D01*
X146510000Y-92597204D01*
X146499500Y-92699983D01*
X146499500Y-94029191D01*
X146479815Y-94096230D01*
X146463181Y-94116872D01*
X146066873Y-94513181D01*
X146005550Y-94546666D01*
X145979192Y-94549500D01*
X144060523Y-94549500D01*
X143993484Y-94529815D01*
X143947729Y-94477011D01*
X143937785Y-94407853D01*
X143966810Y-94344297D01*
X143972842Y-94337819D01*
X144092315Y-94218345D01*
X144184356Y-94069124D01*
X144184358Y-94069119D01*
X144239505Y-93902697D01*
X144239506Y-93902690D01*
X144249999Y-93799986D01*
X144250000Y-93799973D01*
X144250000Y-93250000D01*
X143000000Y-93250000D01*
X143000000Y-94499999D01*
X143160692Y-94499999D01*
X143227731Y-94519684D01*
X143273486Y-94572488D01*
X143283430Y-94641646D01*
X143254405Y-94705202D01*
X143248373Y-94711680D01*
X142310710Y-95649342D01*
X142249387Y-95682827D01*
X142201245Y-95682315D01*
X142201055Y-95683516D01*
X142035458Y-95657288D01*
X141986287Y-95649500D01*
X141773713Y-95649500D01*
X141730502Y-95656344D01*
X141563760Y-95682753D01*
X141361585Y-95748444D01*
X141172179Y-95844951D01*
X141000213Y-95969890D01*
X140849890Y-96120213D01*
X140724949Y-96292182D01*
X140720202Y-96301499D01*
X140672227Y-96352293D01*
X140604405Y-96369087D01*
X140538271Y-96346548D01*
X140499234Y-96301495D01*
X140494622Y-96292444D01*
X140369727Y-96120540D01*
X140369723Y-96120535D01*
X140219464Y-95970276D01*
X140219459Y-95970272D01*
X140047557Y-95845379D01*
X139858215Y-95748903D01*
X139656124Y-95683241D01*
X139590000Y-95672768D01*
X139590000Y-96566988D01*
X139532993Y-96534075D01*
X139405826Y-96500000D01*
X139274174Y-96500000D01*
X139147007Y-96534075D01*
X139090000Y-96566988D01*
X139090000Y-95672768D01*
X139089999Y-95672768D01*
X139023875Y-95683241D01*
X138821784Y-95748903D01*
X138632442Y-95845379D01*
X138460540Y-95970272D01*
X138460535Y-95970276D01*
X138310276Y-96120535D01*
X138310272Y-96120540D01*
X138185378Y-96292443D01*
X138180762Y-96301502D01*
X138132784Y-96352295D01*
X138064963Y-96369087D01*
X137998829Y-96346546D01*
X137959794Y-96301493D01*
X137955051Y-96292184D01*
X137955049Y-96292181D01*
X137955048Y-96292179D01*
X137830109Y-96120213D01*
X137679786Y-95969890D01*
X137507820Y-95844951D01*
X137318414Y-95748444D01*
X137318413Y-95748443D01*
X137318412Y-95748443D01*
X137116243Y-95682754D01*
X137116241Y-95682753D01*
X137116240Y-95682753D01*
X136949498Y-95656344D01*
X136906287Y-95649500D01*
X136774500Y-95649500D01*
X136707461Y-95629815D01*
X136661706Y-95577011D01*
X136650500Y-95525500D01*
X136650500Y-94624499D01*
X136670185Y-94557460D01*
X136722989Y-94511705D01*
X136774500Y-94500499D01*
X136800002Y-94500499D01*
X136800008Y-94500499D01*
X136902797Y-94489999D01*
X137069334Y-94434814D01*
X137218656Y-94342712D01*
X137342712Y-94218656D01*
X137434814Y-94069334D01*
X137489999Y-93902797D01*
X137500500Y-93800009D01*
X137500500Y-93774500D01*
X137503050Y-93765814D01*
X137501762Y-93756853D01*
X137512740Y-93732812D01*
X137520185Y-93707461D01*
X137527025Y-93701533D01*
X137530787Y-93693297D01*
X137553021Y-93679007D01*
X137572989Y-93661706D01*
X137583503Y-93659418D01*
X137589565Y-93655523D01*
X137624500Y-93650500D01*
X137645453Y-93650500D01*
X137712492Y-93670185D01*
X137742724Y-93697595D01*
X137747032Y-93703044D01*
X137866956Y-93822968D01*
X137866958Y-93822969D01*
X137866959Y-93822970D01*
X138011294Y-93911998D01*
X138011297Y-93911999D01*
X138011303Y-93912003D01*
X138172292Y-93965349D01*
X138271655Y-93975500D01*
X138818344Y-93975499D01*
X138818352Y-93975498D01*
X138818355Y-93975498D01*
X138872760Y-93969940D01*
X138917708Y-93965349D01*
X139078697Y-93912003D01*
X139223044Y-93822968D01*
X139232668Y-93813343D01*
X139293987Y-93779856D01*
X139363679Y-93784835D01*
X139408034Y-93813339D01*
X139417267Y-93822572D01*
X139417271Y-93822575D01*
X139561507Y-93911542D01*
X139561518Y-93911547D01*
X139722393Y-93964855D01*
X139821683Y-93974999D01*
X140345000Y-93974999D01*
X140368308Y-93974999D01*
X140368322Y-93974998D01*
X140467607Y-93964855D01*
X140628481Y-93911547D01*
X140628492Y-93911542D01*
X140772728Y-93822575D01*
X140772732Y-93822572D01*
X140892572Y-93702732D01*
X140892575Y-93702728D01*
X140981542Y-93558492D01*
X140981547Y-93558481D01*
X141008295Y-93477762D01*
X141048067Y-93420317D01*
X141112583Y-93393494D01*
X141181359Y-93405809D01*
X141232559Y-93453352D01*
X141250001Y-93516766D01*
X141250001Y-93799986D01*
X141260494Y-93902697D01*
X141315641Y-94069119D01*
X141315643Y-94069124D01*
X141407684Y-94218345D01*
X141531654Y-94342315D01*
X141680875Y-94434356D01*
X141680880Y-94434358D01*
X141847302Y-94489505D01*
X141847309Y-94489506D01*
X141950019Y-94499999D01*
X142499999Y-94499999D01*
X142500000Y-94499998D01*
X142500000Y-93250000D01*
X141250000Y-93250000D01*
X141235180Y-93264820D01*
X141173857Y-93298304D01*
X141104165Y-93293319D01*
X141059819Y-93264819D01*
X141045000Y-93250000D01*
X140345000Y-93250000D01*
X140345000Y-93974999D01*
X139821683Y-93974999D01*
X139845000Y-93974998D01*
X139845000Y-92025000D01*
X140345000Y-92025000D01*
X140345000Y-92750000D01*
X141044998Y-92750000D01*
X141059817Y-92735181D01*
X141121140Y-92701695D01*
X141190831Y-92706679D01*
X141235180Y-92735180D01*
X141250000Y-92750000D01*
X142500000Y-92750000D01*
X143000000Y-92750000D01*
X144249999Y-92750000D01*
X144249999Y-92200028D01*
X144249998Y-92200013D01*
X144239505Y-92097302D01*
X144184358Y-91930880D01*
X144184356Y-91930875D01*
X144092315Y-91781654D01*
X143968345Y-91657684D01*
X143819124Y-91565643D01*
X143819119Y-91565641D01*
X143652697Y-91510494D01*
X143652690Y-91510493D01*
X143549986Y-91500000D01*
X143000000Y-91500000D01*
X143000000Y-92750000D01*
X142500000Y-92750000D01*
X142500000Y-91500000D01*
X141950028Y-91500000D01*
X141950012Y-91500001D01*
X141847302Y-91510494D01*
X141680880Y-91565641D01*
X141680875Y-91565643D01*
X141531654Y-91657684D01*
X141407684Y-91781654D01*
X141315643Y-91930875D01*
X141315641Y-91930880D01*
X141260494Y-92097302D01*
X141260493Y-92097309D01*
X141250000Y-92200013D01*
X141250000Y-92483230D01*
X141230315Y-92550269D01*
X141177511Y-92596024D01*
X141108353Y-92605968D01*
X141044797Y-92576943D01*
X141008294Y-92522234D01*
X140981547Y-92441518D01*
X140981542Y-92441507D01*
X140892575Y-92297271D01*
X140892572Y-92297267D01*
X140772732Y-92177427D01*
X140772728Y-92177424D01*
X140628492Y-92088457D01*
X140628481Y-92088452D01*
X140467606Y-92035144D01*
X140368322Y-92025000D01*
X140345000Y-92025000D01*
X139845000Y-92025000D01*
X139845000Y-92024999D01*
X139821693Y-92025000D01*
X139821674Y-92025001D01*
X139722392Y-92035144D01*
X139561518Y-92088452D01*
X139561507Y-92088457D01*
X139417271Y-92177424D01*
X139417265Y-92177428D01*
X139408031Y-92186663D01*
X139346707Y-92220146D01*
X139277015Y-92215159D01*
X139232672Y-92186660D01*
X139223044Y-92177032D01*
X139223040Y-92177029D01*
X139078705Y-92088001D01*
X139078699Y-92087998D01*
X139078697Y-92087997D01*
X139039683Y-92075069D01*
X138917709Y-92034651D01*
X138818346Y-92024500D01*
X138271662Y-92024500D01*
X138271644Y-92024501D01*
X138172292Y-92034650D01*
X138172289Y-92034651D01*
X138011305Y-92087996D01*
X138011294Y-92088001D01*
X137866959Y-92177029D01*
X137747032Y-92296955D01*
X137742724Y-92302405D01*
X137740366Y-92304074D01*
X137739166Y-92306703D01*
X137712023Y-92324146D01*
X137685704Y-92342785D01*
X137682080Y-92343389D01*
X137680388Y-92344477D01*
X137645453Y-92349500D01*
X137624499Y-92349500D01*
X137557460Y-92329815D01*
X137511705Y-92277011D01*
X137500499Y-92225500D01*
X137500499Y-92199998D01*
X137500498Y-92199981D01*
X137489999Y-92097203D01*
X137489998Y-92097200D01*
X137486948Y-92087996D01*
X137434814Y-91930666D01*
X137342712Y-91781344D01*
X137218656Y-91657288D01*
X137069334Y-91565186D01*
X136902797Y-91510001D01*
X136902795Y-91510000D01*
X136800010Y-91499500D01*
X135359029Y-91499500D01*
X135274950Y-91510060D01*
X135141984Y-91565136D01*
X135075065Y-91617121D01*
X135075058Y-91617127D01*
X134617117Y-92075067D01*
X134617108Y-92075077D01*
X134565136Y-92141982D01*
X134510060Y-92274950D01*
X134499500Y-92359019D01*
X134499500Y-93800001D01*
X134499501Y-93800018D01*
X134510000Y-93902796D01*
X134510001Y-93902799D01*
X134534092Y-93975499D01*
X134565186Y-94069334D01*
X134657288Y-94218656D01*
X134781344Y-94342712D01*
X134930666Y-94434814D01*
X135097203Y-94489999D01*
X135199991Y-94500500D01*
X135225498Y-94500499D01*
X135292536Y-94520181D01*
X135338293Y-94572984D01*
X135349500Y-94624499D01*
X135349500Y-95532056D01*
X135329815Y-95599095D01*
X135277011Y-95644850D01*
X135212246Y-95655345D01*
X135157873Y-95649500D01*
X135157865Y-95649500D01*
X133362129Y-95649500D01*
X133362123Y-95649501D01*
X133302516Y-95655908D01*
X133167671Y-95706202D01*
X133167668Y-95706204D01*
X133148811Y-95720321D01*
X133083346Y-95744738D01*
X133015073Y-95729886D01*
X132965668Y-95680481D01*
X132950500Y-95621054D01*
X132950500Y-94535928D01*
X132925502Y-94410261D01*
X132925501Y-94410260D01*
X132925501Y-94410256D01*
X132876465Y-94291873D01*
X132805277Y-94185331D01*
X132805275Y-94185329D01*
X132805273Y-94185326D01*
X132136818Y-93516871D01*
X132103333Y-93455548D01*
X132100499Y-93429190D01*
X132100499Y-92699998D01*
X132100498Y-92699981D01*
X132089999Y-92597203D01*
X132089998Y-92597200D01*
X132075513Y-92553488D01*
X132034814Y-92430666D01*
X131942712Y-92281344D01*
X131818656Y-92157288D01*
X131707063Y-92088457D01*
X131669336Y-92065187D01*
X131669331Y-92065185D01*
X131667862Y-92064698D01*
X131502797Y-92010001D01*
X131502795Y-92010000D01*
X131400010Y-91999500D01*
X129799998Y-91999500D01*
X129799981Y-91999501D01*
X129697203Y-92010000D01*
X129697200Y-92010001D01*
X129530668Y-92065185D01*
X129530663Y-92065187D01*
X129381342Y-92157289D01*
X129257289Y-92281342D01*
X129165187Y-92430663D01*
X129165185Y-92430668D01*
X129161590Y-92441518D01*
X129110001Y-92597203D01*
X129110001Y-92597204D01*
X129110000Y-92597204D01*
X129099500Y-92699983D01*
X127503121Y-92699983D01*
X127517961Y-92416819D01*
X127519318Y-92403913D01*
X127526428Y-92359023D01*
X127570493Y-92080804D01*
X127573186Y-92068129D01*
X127657863Y-91752113D01*
X127661871Y-91739781D01*
X127779109Y-91434365D01*
X127784375Y-91422536D01*
X127932912Y-91131014D01*
X127939373Y-91119824D01*
X128117570Y-90845425D01*
X128125179Y-90834953D01*
X128331072Y-90580696D01*
X128339739Y-90571071D01*
X128571071Y-90339739D01*
X128580696Y-90331072D01*
X128834953Y-90125179D01*
X128845425Y-90117570D01*
X129119824Y-89939373D01*
X129131014Y-89932912D01*
X129422536Y-89784375D01*
X129434365Y-89779109D01*
X129739785Y-89661869D01*
X129752113Y-89657863D01*
X130068129Y-89573186D01*
X130080804Y-89570493D01*
X130403915Y-89519317D01*
X130416819Y-89517961D01*
X130746756Y-89500669D01*
X130753246Y-89500500D01*
X130815892Y-89500500D01*
X130934108Y-89500500D01*
X147997499Y-89500500D01*
X148003582Y-89500648D01*
G37*
%TD.AperFunction*%
%TD*%
M02*
