M48
; DRILL file {KiCad 9.0.0} date 2026-02-19T11:21:27+0100
; FORMAT={-:-/ absolute / metric / decimal}
; #@! TF.CreationDate,2026-02-19T11:21:27+01:00
; #@! TF.GenerationSoftware,Kicad,Pcbnew,9.0.0
; #@! TF.FileFunction,Plated,1,2,PTH
FMAT,2
METRIC
; #@! TA.AperFunction,Plated,PTH,ViaDrill
T1C0.300
; #@! TA.AperFunction,Plated,PTH,ComponentDrill
T2C1.000
%
G90
G05
T1
X129.1Y-112.75
X129.25Y-91.25
X133.9Y-90.6
X134.25Y-101.15
X136.8Y-106.25
X137.0Y-111.5
X137.8Y-100.7
X139.4Y-94.8
X141.1Y-107.5
X142.6Y-111.4
X142.8Y-100.0
X143.6Y-101.1
X143.6Y-102.5
X144.8Y-90.6
X145.4Y-93.0
X149.5Y-91.25
X149.5Y-112.75
T2
X134.26Y-97.0
X136.8Y-97.0
X139.34Y-97.0
X141.88Y-97.0
X144.42Y-97.0
M30
