%TF.GenerationSoftware,KiCad,Pcbnew,9.0.0*%
%TF.CreationDate,2026-02-19T11:36:58+01:00*%
%TF.ProjectId,SwitchlessMOD,53776974-6368-46c6-9573-734d4f442e6b,rev?*%
%TF.SameCoordinates,Original*%
%TF.FileFunction,Legend,Bot*%
%TF.FilePolarity,Positive*%
%FSLAX46Y46*%
G04 Gerber Fmt 4.6, Leading zero omitted, Abs format (unit mm)*
G04 Created by KiCad (PCBNEW 9.0.0) date 2026-02-19 11:36:58*
%MOMM*%
%LPD*%
G01*
G04 APERTURE LIST*
%ADD10C,0.160000*%
%ADD11C,0.200000*%
%ADD12C,0.300000*%
%ADD13C,0.000000*%
G04 APERTURE END LIST*
D10*
X147804260Y-93293775D02*
X147804260Y-92493775D01*
X147461403Y-93293775D02*
X147461403Y-92874727D01*
X147461403Y-92874727D02*
X147499498Y-92798537D01*
X147499498Y-92798537D02*
X147575689Y-92760441D01*
X147575689Y-92760441D02*
X147689975Y-92760441D01*
X147689975Y-92760441D02*
X147766165Y-92798537D01*
X147766165Y-92798537D02*
X147804260Y-92836632D01*
X147194736Y-92760441D02*
X146889974Y-92760441D01*
X147080450Y-92493775D02*
X147080450Y-93179489D01*
X147080450Y-93179489D02*
X147042355Y-93255680D01*
X147042355Y-93255680D02*
X146966165Y-93293775D01*
X146966165Y-93293775D02*
X146889974Y-93293775D01*
X146737593Y-92760441D02*
X146432831Y-92760441D01*
X146623307Y-92493775D02*
X146623307Y-93179489D01*
X146623307Y-93179489D02*
X146585212Y-93255680D01*
X146585212Y-93255680D02*
X146509022Y-93293775D01*
X146509022Y-93293775D02*
X146432831Y-93293775D01*
X146166164Y-92760441D02*
X146166164Y-93560441D01*
X146166164Y-92798537D02*
X146089974Y-92760441D01*
X146089974Y-92760441D02*
X145937593Y-92760441D01*
X145937593Y-92760441D02*
X145861402Y-92798537D01*
X145861402Y-92798537D02*
X145823307Y-92836632D01*
X145823307Y-92836632D02*
X145785212Y-92912822D01*
X145785212Y-92912822D02*
X145785212Y-93141394D01*
X145785212Y-93141394D02*
X145823307Y-93217584D01*
X145823307Y-93217584D02*
X145861402Y-93255680D01*
X145861402Y-93255680D02*
X145937593Y-93293775D01*
X145937593Y-93293775D02*
X146089974Y-93293775D01*
X146089974Y-93293775D02*
X146166164Y-93255680D01*
X145480450Y-93255680D02*
X145404259Y-93293775D01*
X145404259Y-93293775D02*
X145251878Y-93293775D01*
X145251878Y-93293775D02*
X145175688Y-93255680D01*
X145175688Y-93255680D02*
X145137592Y-93179489D01*
X145137592Y-93179489D02*
X145137592Y-93141394D01*
X145137592Y-93141394D02*
X145175688Y-93065203D01*
X145175688Y-93065203D02*
X145251878Y-93027108D01*
X145251878Y-93027108D02*
X145366164Y-93027108D01*
X145366164Y-93027108D02*
X145442354Y-92989013D01*
X145442354Y-92989013D02*
X145480450Y-92912822D01*
X145480450Y-92912822D02*
X145480450Y-92874727D01*
X145480450Y-92874727D02*
X145442354Y-92798537D01*
X145442354Y-92798537D02*
X145366164Y-92760441D01*
X145366164Y-92760441D02*
X145251878Y-92760441D01*
X145251878Y-92760441D02*
X145175688Y-92798537D01*
X144794735Y-93217584D02*
X144756640Y-93255680D01*
X144756640Y-93255680D02*
X144794735Y-93293775D01*
X144794735Y-93293775D02*
X144832831Y-93255680D01*
X144832831Y-93255680D02*
X144794735Y-93217584D01*
X144794735Y-93217584D02*
X144794735Y-93293775D01*
X144794735Y-92798537D02*
X144756640Y-92836632D01*
X144756640Y-92836632D02*
X144794735Y-92874727D01*
X144794735Y-92874727D02*
X144832831Y-92836632D01*
X144832831Y-92836632D02*
X144794735Y-92798537D01*
X144794735Y-92798537D02*
X144794735Y-92874727D01*
X143842355Y-92455680D02*
X144528069Y-93484251D01*
X143004260Y-92455680D02*
X143689974Y-93484251D01*
X142813784Y-92760441D02*
X142661403Y-93293775D01*
X142661403Y-93293775D02*
X142509022Y-92912822D01*
X142509022Y-92912822D02*
X142356641Y-93293775D01*
X142356641Y-93293775D02*
X142204260Y-92760441D01*
X141975689Y-92760441D02*
X141823308Y-93293775D01*
X141823308Y-93293775D02*
X141670927Y-92912822D01*
X141670927Y-92912822D02*
X141518546Y-93293775D01*
X141518546Y-93293775D02*
X141366165Y-92760441D01*
X141137594Y-92760441D02*
X140985213Y-93293775D01*
X140985213Y-93293775D02*
X140832832Y-92912822D01*
X140832832Y-92912822D02*
X140680451Y-93293775D01*
X140680451Y-93293775D02*
X140528070Y-92760441D01*
X140223308Y-93217584D02*
X140185213Y-93255680D01*
X140185213Y-93255680D02*
X140223308Y-93293775D01*
X140223308Y-93293775D02*
X140261404Y-93255680D01*
X140261404Y-93255680D02*
X140223308Y-93217584D01*
X140223308Y-93217584D02*
X140223308Y-93293775D01*
X139499499Y-92760441D02*
X139499499Y-93408060D01*
X139499499Y-93408060D02*
X139537594Y-93484251D01*
X139537594Y-93484251D02*
X139575690Y-93522346D01*
X139575690Y-93522346D02*
X139651880Y-93560441D01*
X139651880Y-93560441D02*
X139766166Y-93560441D01*
X139766166Y-93560441D02*
X139842356Y-93522346D01*
X139499499Y-93255680D02*
X139575690Y-93293775D01*
X139575690Y-93293775D02*
X139728071Y-93293775D01*
X139728071Y-93293775D02*
X139804261Y-93255680D01*
X139804261Y-93255680D02*
X139842356Y-93217584D01*
X139842356Y-93217584D02*
X139880452Y-93141394D01*
X139880452Y-93141394D02*
X139880452Y-92912822D01*
X139880452Y-92912822D02*
X139842356Y-92836632D01*
X139842356Y-92836632D02*
X139804261Y-92798537D01*
X139804261Y-92798537D02*
X139728071Y-92760441D01*
X139728071Y-92760441D02*
X139575690Y-92760441D01*
X139575690Y-92760441D02*
X139499499Y-92798537D01*
X138775689Y-93293775D02*
X138775689Y-92874727D01*
X138775689Y-92874727D02*
X138813784Y-92798537D01*
X138813784Y-92798537D02*
X138889975Y-92760441D01*
X138889975Y-92760441D02*
X139042356Y-92760441D01*
X139042356Y-92760441D02*
X139118546Y-92798537D01*
X138775689Y-93255680D02*
X138851880Y-93293775D01*
X138851880Y-93293775D02*
X139042356Y-93293775D01*
X139042356Y-93293775D02*
X139118546Y-93255680D01*
X139118546Y-93255680D02*
X139156642Y-93179489D01*
X139156642Y-93179489D02*
X139156642Y-93103299D01*
X139156642Y-93103299D02*
X139118546Y-93027108D01*
X139118546Y-93027108D02*
X139042356Y-92989013D01*
X139042356Y-92989013D02*
X138851880Y-92989013D01*
X138851880Y-92989013D02*
X138775689Y-92950918D01*
X138394736Y-93293775D02*
X138394736Y-92760441D01*
X138394736Y-92836632D02*
X138356641Y-92798537D01*
X138356641Y-92798537D02*
X138280451Y-92760441D01*
X138280451Y-92760441D02*
X138166165Y-92760441D01*
X138166165Y-92760441D02*
X138089974Y-92798537D01*
X138089974Y-92798537D02*
X138051879Y-92874727D01*
X138051879Y-92874727D02*
X138051879Y-93293775D01*
X138051879Y-92874727D02*
X138013784Y-92798537D01*
X138013784Y-92798537D02*
X137937593Y-92760441D01*
X137937593Y-92760441D02*
X137823308Y-92760441D01*
X137823308Y-92760441D02*
X137747117Y-92798537D01*
X137747117Y-92798537D02*
X137709022Y-92874727D01*
X137709022Y-92874727D02*
X137709022Y-93293775D01*
X137023307Y-93255680D02*
X137099498Y-93293775D01*
X137099498Y-93293775D02*
X137251879Y-93293775D01*
X137251879Y-93293775D02*
X137328069Y-93255680D01*
X137328069Y-93255680D02*
X137366165Y-93179489D01*
X137366165Y-93179489D02*
X137366165Y-92874727D01*
X137366165Y-92874727D02*
X137328069Y-92798537D01*
X137328069Y-92798537D02*
X137251879Y-92760441D01*
X137251879Y-92760441D02*
X137099498Y-92760441D01*
X137099498Y-92760441D02*
X137023307Y-92798537D01*
X137023307Y-92798537D02*
X136985212Y-92874727D01*
X136985212Y-92874727D02*
X136985212Y-92950918D01*
X136985212Y-92950918D02*
X137366165Y-93027108D01*
X136642355Y-93293775D02*
X136642355Y-92760441D01*
X136642355Y-92912822D02*
X136604260Y-92836632D01*
X136604260Y-92836632D02*
X136566165Y-92798537D01*
X136566165Y-92798537D02*
X136489974Y-92760441D01*
X136489974Y-92760441D02*
X136413784Y-92760441D01*
X135804260Y-92760441D02*
X135804260Y-93408060D01*
X135804260Y-93408060D02*
X135842355Y-93484251D01*
X135842355Y-93484251D02*
X135880451Y-93522346D01*
X135880451Y-93522346D02*
X135956641Y-93560441D01*
X135956641Y-93560441D02*
X136070927Y-93560441D01*
X136070927Y-93560441D02*
X136147117Y-93522346D01*
X135804260Y-93255680D02*
X135880451Y-93293775D01*
X135880451Y-93293775D02*
X136032832Y-93293775D01*
X136032832Y-93293775D02*
X136109022Y-93255680D01*
X136109022Y-93255680D02*
X136147117Y-93217584D01*
X136147117Y-93217584D02*
X136185213Y-93141394D01*
X136185213Y-93141394D02*
X136185213Y-92912822D01*
X136185213Y-92912822D02*
X136147117Y-92836632D01*
X136147117Y-92836632D02*
X136109022Y-92798537D01*
X136109022Y-92798537D02*
X136032832Y-92760441D01*
X136032832Y-92760441D02*
X135880451Y-92760441D01*
X135880451Y-92760441D02*
X135804260Y-92798537D01*
X135080450Y-93293775D02*
X135080450Y-92874727D01*
X135080450Y-92874727D02*
X135118545Y-92798537D01*
X135118545Y-92798537D02*
X135194736Y-92760441D01*
X135194736Y-92760441D02*
X135347117Y-92760441D01*
X135347117Y-92760441D02*
X135423307Y-92798537D01*
X135080450Y-93255680D02*
X135156641Y-93293775D01*
X135156641Y-93293775D02*
X135347117Y-93293775D01*
X135347117Y-93293775D02*
X135423307Y-93255680D01*
X135423307Y-93255680D02*
X135461403Y-93179489D01*
X135461403Y-93179489D02*
X135461403Y-93103299D01*
X135461403Y-93103299D02*
X135423307Y-93027108D01*
X135423307Y-93027108D02*
X135347117Y-92989013D01*
X135347117Y-92989013D02*
X135156641Y-92989013D01*
X135156641Y-92989013D02*
X135080450Y-92950918D01*
X134699497Y-93293775D02*
X134699497Y-92760441D01*
X134699497Y-92912822D02*
X134661402Y-92836632D01*
X134661402Y-92836632D02*
X134623307Y-92798537D01*
X134623307Y-92798537D02*
X134547116Y-92760441D01*
X134547116Y-92760441D02*
X134470926Y-92760441D01*
X133861402Y-93293775D02*
X133861402Y-92874727D01*
X133861402Y-92874727D02*
X133899497Y-92798537D01*
X133899497Y-92798537D02*
X133975688Y-92760441D01*
X133975688Y-92760441D02*
X134128069Y-92760441D01*
X134128069Y-92760441D02*
X134204259Y-92798537D01*
X133861402Y-93255680D02*
X133937593Y-93293775D01*
X133937593Y-93293775D02*
X134128069Y-93293775D01*
X134128069Y-93293775D02*
X134204259Y-93255680D01*
X134204259Y-93255680D02*
X134242355Y-93179489D01*
X134242355Y-93179489D02*
X134242355Y-93103299D01*
X134242355Y-93103299D02*
X134204259Y-93027108D01*
X134204259Y-93027108D02*
X134128069Y-92989013D01*
X134128069Y-92989013D02*
X133937593Y-92989013D01*
X133937593Y-92989013D02*
X133861402Y-92950918D01*
X133137592Y-92760441D02*
X133137592Y-93408060D01*
X133137592Y-93408060D02*
X133175687Y-93484251D01*
X133175687Y-93484251D02*
X133213783Y-93522346D01*
X133213783Y-93522346D02*
X133289973Y-93560441D01*
X133289973Y-93560441D02*
X133404259Y-93560441D01*
X133404259Y-93560441D02*
X133480449Y-93522346D01*
X133137592Y-93255680D02*
X133213783Y-93293775D01*
X133213783Y-93293775D02*
X133366164Y-93293775D01*
X133366164Y-93293775D02*
X133442354Y-93255680D01*
X133442354Y-93255680D02*
X133480449Y-93217584D01*
X133480449Y-93217584D02*
X133518545Y-93141394D01*
X133518545Y-93141394D02*
X133518545Y-92912822D01*
X133518545Y-92912822D02*
X133480449Y-92836632D01*
X133480449Y-92836632D02*
X133442354Y-92798537D01*
X133442354Y-92798537D02*
X133366164Y-92760441D01*
X133366164Y-92760441D02*
X133213783Y-92760441D01*
X133213783Y-92760441D02*
X133137592Y-92798537D01*
X132451877Y-93255680D02*
X132528068Y-93293775D01*
X132528068Y-93293775D02*
X132680449Y-93293775D01*
X132680449Y-93293775D02*
X132756639Y-93255680D01*
X132756639Y-93255680D02*
X132794735Y-93179489D01*
X132794735Y-93179489D02*
X132794735Y-92874727D01*
X132794735Y-92874727D02*
X132756639Y-92798537D01*
X132756639Y-92798537D02*
X132680449Y-92760441D01*
X132680449Y-92760441D02*
X132528068Y-92760441D01*
X132528068Y-92760441D02*
X132451877Y-92798537D01*
X132451877Y-92798537D02*
X132413782Y-92874727D01*
X132413782Y-92874727D02*
X132413782Y-92950918D01*
X132413782Y-92950918D02*
X132794735Y-93027108D01*
X132070925Y-93217584D02*
X132032830Y-93255680D01*
X132032830Y-93255680D02*
X132070925Y-93293775D01*
X132070925Y-93293775D02*
X132109021Y-93255680D01*
X132109021Y-93255680D02*
X132070925Y-93217584D01*
X132070925Y-93217584D02*
X132070925Y-93293775D01*
X131385211Y-93255680D02*
X131461402Y-93293775D01*
X131461402Y-93293775D02*
X131613783Y-93293775D01*
X131613783Y-93293775D02*
X131689973Y-93255680D01*
X131689973Y-93255680D02*
X131728069Y-93179489D01*
X131728069Y-93179489D02*
X131728069Y-92874727D01*
X131728069Y-92874727D02*
X131689973Y-92798537D01*
X131689973Y-92798537D02*
X131613783Y-92760441D01*
X131613783Y-92760441D02*
X131461402Y-92760441D01*
X131461402Y-92760441D02*
X131385211Y-92798537D01*
X131385211Y-92798537D02*
X131347116Y-92874727D01*
X131347116Y-92874727D02*
X131347116Y-92950918D01*
X131347116Y-92950918D02*
X131728069Y-93027108D01*
X131042355Y-93255680D02*
X130966164Y-93293775D01*
X130966164Y-93293775D02*
X130813783Y-93293775D01*
X130813783Y-93293775D02*
X130737593Y-93255680D01*
X130737593Y-93255680D02*
X130699497Y-93179489D01*
X130699497Y-93179489D02*
X130699497Y-93141394D01*
X130699497Y-93141394D02*
X130737593Y-93065203D01*
X130737593Y-93065203D02*
X130813783Y-93027108D01*
X130813783Y-93027108D02*
X130928069Y-93027108D01*
X130928069Y-93027108D02*
X131004259Y-92989013D01*
X131004259Y-92989013D02*
X131042355Y-92912822D01*
X131042355Y-92912822D02*
X131042355Y-92874727D01*
X131042355Y-92874727D02*
X131004259Y-92798537D01*
X131004259Y-92798537D02*
X130928069Y-92760441D01*
X130928069Y-92760441D02*
X130813783Y-92760441D01*
X130813783Y-92760441D02*
X130737593Y-92798537D01*
D11*
X145130326Y-100167219D02*
X145130326Y-99167219D01*
X144654136Y-100167219D02*
X144654136Y-99167219D01*
X144654136Y-99167219D02*
X144082708Y-100167219D01*
X144082708Y-100167219D02*
X144082708Y-99167219D01*
X143654136Y-100119600D02*
X143511279Y-100167219D01*
X143511279Y-100167219D02*
X143273184Y-100167219D01*
X143273184Y-100167219D02*
X143177946Y-100119600D01*
X143177946Y-100119600D02*
X143130327Y-100071980D01*
X143130327Y-100071980D02*
X143082708Y-99976742D01*
X143082708Y-99976742D02*
X143082708Y-99881504D01*
X143082708Y-99881504D02*
X143130327Y-99786266D01*
X143130327Y-99786266D02*
X143177946Y-99738647D01*
X143177946Y-99738647D02*
X143273184Y-99691028D01*
X143273184Y-99691028D02*
X143463660Y-99643409D01*
X143463660Y-99643409D02*
X143558898Y-99595790D01*
X143558898Y-99595790D02*
X143606517Y-99548171D01*
X143606517Y-99548171D02*
X143654136Y-99452933D01*
X143654136Y-99452933D02*
X143654136Y-99357695D01*
X143654136Y-99357695D02*
X143606517Y-99262457D01*
X143606517Y-99262457D02*
X143558898Y-99214838D01*
X143558898Y-99214838D02*
X143463660Y-99167219D01*
X143463660Y-99167219D02*
X143225565Y-99167219D01*
X143225565Y-99167219D02*
X143082708Y-99214838D01*
X142796993Y-99167219D02*
X142225565Y-99167219D01*
X142511279Y-100167219D02*
X142511279Y-99167219D01*
X141939850Y-99881504D02*
X141463660Y-99881504D01*
X142035088Y-100167219D02*
X141701755Y-99167219D01*
X141701755Y-99167219D02*
X141368422Y-100167219D01*
X140558898Y-100167219D02*
X141035088Y-100167219D01*
X141035088Y-100167219D02*
X141035088Y-99167219D01*
X139749374Y-100167219D02*
X140225564Y-100167219D01*
X140225564Y-100167219D02*
X140225564Y-99167219D01*
X138654135Y-100167219D02*
X138654135Y-99167219D01*
X138654135Y-99167219D02*
X138320802Y-99881504D01*
X138320802Y-99881504D02*
X137987469Y-99167219D01*
X137987469Y-99167219D02*
X137987469Y-100167219D01*
X137558897Y-99881504D02*
X137082707Y-99881504D01*
X137654135Y-100167219D02*
X137320802Y-99167219D01*
X137320802Y-99167219D02*
X136987469Y-100167219D01*
X136654135Y-100167219D02*
X136654135Y-99167219D01*
X136654135Y-99167219D02*
X136082707Y-100167219D01*
X136082707Y-100167219D02*
X136082707Y-99167219D01*
X135606516Y-99167219D02*
X135606516Y-99976742D01*
X135606516Y-99976742D02*
X135558897Y-100071980D01*
X135558897Y-100071980D02*
X135511278Y-100119600D01*
X135511278Y-100119600D02*
X135416040Y-100167219D01*
X135416040Y-100167219D02*
X135225564Y-100167219D01*
X135225564Y-100167219D02*
X135130326Y-100119600D01*
X135130326Y-100119600D02*
X135082707Y-100071980D01*
X135082707Y-100071980D02*
X135035088Y-99976742D01*
X135035088Y-99976742D02*
X135035088Y-99167219D01*
X134606516Y-99881504D02*
X134130326Y-99881504D01*
X134701754Y-100167219D02*
X134368421Y-99167219D01*
X134368421Y-99167219D02*
X134035088Y-100167219D01*
X133225564Y-100167219D02*
X133701754Y-100167219D01*
X133701754Y-100167219D02*
X133701754Y-99167219D01*
D12*
X140621427Y-106249757D02*
X140764285Y-106178328D01*
X140764285Y-106178328D02*
X140978570Y-106178328D01*
X140978570Y-106178328D02*
X141192856Y-106249757D01*
X141192856Y-106249757D02*
X141335713Y-106392614D01*
X141335713Y-106392614D02*
X141407142Y-106535471D01*
X141407142Y-106535471D02*
X141478570Y-106821185D01*
X141478570Y-106821185D02*
X141478570Y-107035471D01*
X141478570Y-107035471D02*
X141407142Y-107321185D01*
X141407142Y-107321185D02*
X141335713Y-107464042D01*
X141335713Y-107464042D02*
X141192856Y-107606900D01*
X141192856Y-107606900D02*
X140978570Y-107678328D01*
X140978570Y-107678328D02*
X140835713Y-107678328D01*
X140835713Y-107678328D02*
X140621427Y-107606900D01*
X140621427Y-107606900D02*
X140549999Y-107535471D01*
X140549999Y-107535471D02*
X140549999Y-107035471D01*
X140549999Y-107035471D02*
X140835713Y-107035471D01*
X139692856Y-106178328D02*
X139692856Y-106535471D01*
X140049999Y-106392614D02*
X139692856Y-106535471D01*
X139692856Y-106535471D02*
X139335713Y-106392614D01*
X139907142Y-106821185D02*
X139692856Y-106535471D01*
X139692856Y-106535471D02*
X139478570Y-106821185D01*
X138549999Y-106178328D02*
X138549999Y-106535471D01*
X138907142Y-106392614D02*
X138549999Y-106535471D01*
X138549999Y-106535471D02*
X138192856Y-106392614D01*
X138764285Y-106821185D02*
X138549999Y-106535471D01*
X138549999Y-106535471D02*
X138335713Y-106821185D01*
X137407142Y-106178328D02*
X137407142Y-106535471D01*
X137764285Y-106392614D02*
X137407142Y-106535471D01*
X137407142Y-106535471D02*
X137049999Y-106392614D01*
X137621428Y-106821185D02*
X137407142Y-106535471D01*
X137407142Y-106535471D02*
X137192856Y-106821185D01*
D13*
%TO.C,G\u002A\u002A\u002A*%
G36*
X135087020Y-102237500D02*
G01*
X135087020Y-102787019D01*
X134537500Y-102787019D01*
X133987981Y-102787019D01*
X133987981Y-102237500D01*
X133987981Y-101687980D01*
X134537500Y-101687980D01*
X135087020Y-101687980D01*
X135087020Y-102237500D01*
G37*
G36*
X138017789Y-107732692D02*
G01*
X138017789Y-107915865D01*
X137468270Y-107915865D01*
X136918750Y-107915865D01*
X136918750Y-107732692D01*
X136918750Y-107549519D01*
X137468270Y-107549519D01*
X138017789Y-107549519D01*
X138017789Y-107732692D01*
G37*
G36*
X144612020Y-102237500D02*
G01*
X144612020Y-102787019D01*
X144062500Y-102787019D01*
X143512981Y-102787019D01*
X143512981Y-102237500D01*
X143512981Y-101687980D01*
X144062500Y-101687980D01*
X144612020Y-101687980D01*
X144612020Y-102237500D01*
G37*
G36*
X144612020Y-111762500D02*
G01*
X144612020Y-112312019D01*
X144062500Y-112312019D01*
X143512981Y-112312019D01*
X143512981Y-111762500D01*
X143512981Y-111212980D01*
X144062500Y-111212980D01*
X144612020Y-111212980D01*
X144612020Y-111762500D01*
G37*
G36*
X133535140Y-112317630D02*
G01*
X133606506Y-112365451D01*
X133621635Y-112495192D01*
X133616023Y-112591870D01*
X133568203Y-112663236D01*
X133438462Y-112678365D01*
X133341784Y-112672753D01*
X133270418Y-112624933D01*
X133255289Y-112495192D01*
X133260900Y-112398514D01*
X133308720Y-112327148D01*
X133438462Y-112312019D01*
X133535140Y-112317630D01*
G37*
G36*
X135733217Y-110485900D02*
G01*
X135804583Y-110533720D01*
X135819712Y-110663461D01*
X135814100Y-110760139D01*
X135766280Y-110831505D01*
X135636539Y-110846634D01*
X135539861Y-110841023D01*
X135468495Y-110793203D01*
X135453366Y-110663461D01*
X135458977Y-110566783D01*
X135506797Y-110495417D01*
X135636539Y-110480288D01*
X135733217Y-110485900D01*
G37*
G36*
X137198601Y-105357054D02*
G01*
X137269967Y-105404874D01*
X137285096Y-105534615D01*
X137279485Y-105631293D01*
X137231665Y-105702659D01*
X137101923Y-105717788D01*
X137005245Y-105712177D01*
X136933880Y-105664356D01*
X136918750Y-105534615D01*
X136924362Y-105437937D01*
X136972182Y-105366571D01*
X137101923Y-105351442D01*
X137198601Y-105357054D01*
G37*
G36*
X137564948Y-103891669D02*
G01*
X137636313Y-103939489D01*
X137651443Y-104069230D01*
X137645831Y-104165908D01*
X137598011Y-104237274D01*
X137468270Y-104252404D01*
X137371592Y-104246792D01*
X137300226Y-104198972D01*
X137285096Y-104069230D01*
X137290708Y-103972552D01*
X137338528Y-103901187D01*
X137468270Y-103886057D01*
X137564948Y-103891669D01*
G37*
G36*
X140495717Y-106822438D02*
G01*
X140567083Y-106870258D01*
X140582212Y-107000000D01*
X140576600Y-107096678D01*
X140528780Y-107168043D01*
X140399039Y-107183173D01*
X140302361Y-107177561D01*
X140230995Y-107129741D01*
X140215866Y-107000000D01*
X140221477Y-106903322D01*
X140269297Y-106831956D01*
X140399039Y-106816827D01*
X140495717Y-106822438D01*
G37*
G36*
X145258217Y-103891669D02*
G01*
X145329583Y-103939489D01*
X145344712Y-104069230D01*
X145339100Y-104165908D01*
X145291280Y-104237274D01*
X145161539Y-104252404D01*
X145064861Y-104246792D01*
X144993495Y-104198972D01*
X144978366Y-104069230D01*
X144983977Y-103972552D01*
X145031797Y-103901187D01*
X145161539Y-103886057D01*
X145258217Y-103891669D01*
G37*
G36*
X145258217Y-106456092D02*
G01*
X145329583Y-106503912D01*
X145344712Y-106633654D01*
X145339100Y-106730331D01*
X145291280Y-106801697D01*
X145161539Y-106816827D01*
X145064861Y-106811215D01*
X144993495Y-106763395D01*
X144978366Y-106633654D01*
X144983977Y-106536976D01*
X145031797Y-106465610D01*
X145161539Y-106450480D01*
X145258217Y-106456092D01*
G37*
G36*
X140215866Y-104435577D02*
G01*
X140215866Y-104985096D01*
X140399039Y-104985096D01*
X140495717Y-104990707D01*
X140567083Y-105038527D01*
X140582212Y-105168269D01*
X140582212Y-105351442D01*
X140215866Y-105351442D01*
X139849520Y-105351442D01*
X139849520Y-104618750D01*
X139849520Y-103886057D01*
X140032693Y-103886057D01*
X140215866Y-103886057D01*
X140215866Y-104435577D01*
G37*
G36*
X141681250Y-105900961D02*
G01*
X141681250Y-106084134D01*
X141131731Y-106084134D01*
X140582212Y-106084134D01*
X140582212Y-106267307D01*
X140576600Y-106363985D01*
X140528780Y-106435351D01*
X140399039Y-106450480D01*
X140215866Y-106450480D01*
X140215866Y-106084134D01*
X140215866Y-105717788D01*
X140948558Y-105717788D01*
X141681250Y-105717788D01*
X141681250Y-105900961D01*
G37*
G36*
X135819712Y-103519711D02*
G01*
X134537500Y-103519711D01*
X133255289Y-103519711D01*
X133255289Y-102237500D01*
X133255289Y-101321634D01*
X133621635Y-101321634D01*
X133621635Y-102237500D01*
X133621635Y-103153365D01*
X134537500Y-103153365D01*
X135453366Y-103153365D01*
X135453366Y-102237500D01*
X135453366Y-101321634D01*
X134537500Y-101321634D01*
X133621635Y-101321634D01*
X133255289Y-101321634D01*
X133255289Y-100955288D01*
X134537500Y-100955288D01*
X135819712Y-100955288D01*
X135819712Y-102237500D01*
X135819712Y-103519711D01*
G37*
G36*
X145344712Y-103519711D02*
G01*
X144062500Y-103519711D01*
X142780289Y-103519711D01*
X142780289Y-102237500D01*
X142780289Y-101321634D01*
X143146635Y-101321634D01*
X143146635Y-102237500D01*
X143146635Y-103153365D01*
X144062500Y-103153365D01*
X144978366Y-103153365D01*
X144978366Y-102237500D01*
X144978366Y-101321634D01*
X144062500Y-101321634D01*
X143146635Y-101321634D01*
X142780289Y-101321634D01*
X142780289Y-100955288D01*
X144062500Y-100955288D01*
X145344712Y-100955288D01*
X145344712Y-102237500D01*
X145344712Y-103519711D01*
G37*
G36*
X145344712Y-113044711D02*
G01*
X144062500Y-113044711D01*
X142780289Y-113044711D01*
X142780289Y-111762500D01*
X142780289Y-110846634D01*
X143146635Y-110846634D01*
X143146635Y-111762500D01*
X143146635Y-112678365D01*
X144062500Y-112678365D01*
X144978366Y-112678365D01*
X144978366Y-111762500D01*
X144978366Y-110846634D01*
X144062500Y-110846634D01*
X143146635Y-110846634D01*
X142780289Y-110846634D01*
X142780289Y-110480288D01*
X144062500Y-110480288D01*
X145344712Y-110480288D01*
X145344712Y-111762500D01*
X145344712Y-113044711D01*
G37*
G36*
X139396678Y-110852246D02*
G01*
X139468044Y-110900066D01*
X139483173Y-111029807D01*
X139477562Y-111126485D01*
X139429742Y-111197851D01*
X139300000Y-111212980D01*
X139203322Y-111218592D01*
X139131957Y-111266412D01*
X139116827Y-111396154D01*
X139111216Y-111492831D01*
X139063396Y-111564197D01*
X138933654Y-111579327D01*
X138836976Y-111573715D01*
X138765610Y-111525895D01*
X138750481Y-111396154D01*
X138756093Y-111299476D01*
X138803913Y-111228110D01*
X138933654Y-111212980D01*
X139030332Y-111207369D01*
X139101698Y-111159549D01*
X139116827Y-111029807D01*
X139122439Y-110933129D01*
X139170259Y-110861764D01*
X139300000Y-110846634D01*
X139396678Y-110852246D01*
G37*
G36*
X136832255Y-100960900D02*
G01*
X136903621Y-101008720D01*
X136918750Y-101138461D01*
X136924362Y-101235139D01*
X136972182Y-101306505D01*
X137101923Y-101321634D01*
X137198601Y-101327246D01*
X137269967Y-101375066D01*
X137285096Y-101504807D01*
X137279485Y-101601485D01*
X137231665Y-101672851D01*
X137101923Y-101687980D01*
X137005245Y-101693592D01*
X136933880Y-101741412D01*
X136918750Y-101871154D01*
X136924362Y-101967831D01*
X136972182Y-102039197D01*
X137101923Y-102054327D01*
X137198601Y-102059938D01*
X137269967Y-102107758D01*
X137285096Y-102237500D01*
X137279485Y-102334178D01*
X137231665Y-102405543D01*
X137101923Y-102420673D01*
X137005245Y-102415061D01*
X136933880Y-102367241D01*
X136918750Y-102237500D01*
X136913139Y-102140822D01*
X136865319Y-102069456D01*
X136735577Y-102054327D01*
X136552404Y-102054327D01*
X136552404Y-101504807D01*
X136552404Y-100955288D01*
X136735577Y-100955288D01*
X136832255Y-100960900D01*
G37*
G36*
X142963462Y-103886057D02*
G01*
X143512981Y-103886057D01*
X143512981Y-104069230D01*
X143512981Y-104252404D01*
X143146635Y-104252404D01*
X142780289Y-104252404D01*
X142780289Y-104435577D01*
X142780289Y-104618750D01*
X143329808Y-104618750D01*
X143879327Y-104618750D01*
X143879327Y-104252404D01*
X143879327Y-103886057D01*
X144245673Y-103886057D01*
X144612020Y-103886057D01*
X144612020Y-104069230D01*
X144606408Y-104165908D01*
X144558588Y-104237274D01*
X144428846Y-104252404D01*
X144245673Y-104252404D01*
X144245673Y-104618750D01*
X144245673Y-104985096D01*
X143512981Y-104985096D01*
X142780289Y-104985096D01*
X142780289Y-104801923D01*
X142774677Y-104705245D01*
X142726857Y-104633879D01*
X142597116Y-104618750D01*
X142500438Y-104624361D01*
X142429072Y-104672181D01*
X142413943Y-104801923D01*
X142413943Y-104985096D01*
X142047596Y-104985096D01*
X141681250Y-104985096D01*
X141681250Y-104801923D01*
X141681250Y-104618750D01*
X142047596Y-104618750D01*
X142413943Y-104618750D01*
X142413943Y-104252404D01*
X142413943Y-103886057D01*
X142963462Y-103886057D01*
G37*
G36*
X142413943Y-103519711D02*
G01*
X142413943Y-103886057D01*
X142230770Y-103886057D01*
X142047596Y-103886057D01*
X142047596Y-103519711D01*
X142047596Y-103153365D01*
X142230770Y-103153365D01*
X142413943Y-103153365D01*
X142413943Y-103519711D01*
G37*
G36*
X142413943Y-110663461D02*
G01*
X142413943Y-111212980D01*
X142230770Y-111212980D01*
X142134092Y-111218592D01*
X142062726Y-111266412D01*
X142047596Y-111396154D01*
X142053208Y-111492831D01*
X142101028Y-111564197D01*
X142230770Y-111579327D01*
X142413943Y-111579327D01*
X142413943Y-111945673D01*
X142413943Y-112312019D01*
X142230770Y-112312019D01*
X142134092Y-112317630D01*
X142062726Y-112365451D01*
X142047596Y-112495192D01*
X142053208Y-112591870D01*
X142101028Y-112663236D01*
X142230770Y-112678365D01*
X142327448Y-112683977D01*
X142398813Y-112731797D01*
X142413943Y-112861538D01*
X142413943Y-113044711D01*
X142047596Y-113044711D01*
X141681250Y-113044711D01*
X141681250Y-112861538D01*
X141675639Y-112764860D01*
X141627819Y-112693494D01*
X141498077Y-112678365D01*
X141401399Y-112683977D01*
X141330034Y-112731797D01*
X141314904Y-112861538D01*
X141309293Y-112958216D01*
X141261473Y-113029582D01*
X141131731Y-113044711D01*
X141035053Y-113039100D01*
X140963687Y-112991280D01*
X140948558Y-112861538D01*
X140942946Y-112764860D01*
X140895126Y-112693494D01*
X140765385Y-112678365D01*
X140582212Y-112678365D01*
X140582212Y-112312019D01*
X140582212Y-111945673D01*
X140399039Y-111945673D01*
X140215866Y-111945673D01*
X140215866Y-112495192D01*
X140215866Y-113044711D01*
X139300000Y-113044711D01*
X138384135Y-113044711D01*
X138384135Y-112861538D01*
X138378523Y-112764860D01*
X138330703Y-112693494D01*
X138200962Y-112678365D01*
X138017789Y-112678365D01*
X138017789Y-112312019D01*
X138017789Y-111945673D01*
X137834616Y-111945673D01*
X137737938Y-111951284D01*
X137666572Y-111999104D01*
X137651443Y-112128846D01*
X137645831Y-112225524D01*
X137598011Y-112296890D01*
X137468270Y-112312019D01*
X137371592Y-112317630D01*
X137300226Y-112365451D01*
X137285096Y-112495192D01*
X137290708Y-112591870D01*
X137338528Y-112663236D01*
X137468270Y-112678365D01*
X137564948Y-112683977D01*
X137636313Y-112731797D01*
X137651443Y-112861538D01*
X137645831Y-112958216D01*
X137598011Y-113029582D01*
X137468270Y-113044711D01*
X137371592Y-113039100D01*
X137300226Y-112991280D01*
X137285096Y-112861538D01*
X137279485Y-112764860D01*
X137231665Y-112693494D01*
X137101923Y-112678365D01*
X137005245Y-112683977D01*
X136933880Y-112731797D01*
X136918750Y-112861538D01*
X136913139Y-112958216D01*
X136865319Y-113029582D01*
X136735577Y-113044711D01*
X136638899Y-113039100D01*
X136567534Y-112991280D01*
X136552404Y-112861538D01*
X136552404Y-112678365D01*
X135819712Y-112678365D01*
X135087020Y-112678365D01*
X135087020Y-112861538D01*
X135087020Y-113044711D01*
X134537500Y-113044711D01*
X133987981Y-113044711D01*
X133987981Y-112861538D01*
X133987981Y-112678365D01*
X134354327Y-112678365D01*
X134720673Y-112678365D01*
X134720673Y-112495192D01*
X134720673Y-112312019D01*
X134354327Y-112312019D01*
X133987981Y-112312019D01*
X133987981Y-111945673D01*
X133987981Y-111579327D01*
X134354327Y-111579327D01*
X134354327Y-111945673D01*
X134537500Y-111945673D01*
X134634178Y-111951284D01*
X134705544Y-111999104D01*
X134720673Y-112128846D01*
X134726285Y-112225524D01*
X134774105Y-112296890D01*
X134903846Y-112312019D01*
X135087020Y-112312019D01*
X135087020Y-111945673D01*
X135087020Y-111579327D01*
X135453366Y-111579327D01*
X135453366Y-111762500D01*
X135458977Y-111859178D01*
X135506797Y-111930543D01*
X135636539Y-111945673D01*
X135733217Y-111951284D01*
X135804583Y-111999104D01*
X135819712Y-112128846D01*
X135825323Y-112225524D01*
X135873144Y-112296890D01*
X136002885Y-112312019D01*
X136099563Y-112306407D01*
X136170929Y-112258587D01*
X136186058Y-112128846D01*
X136191670Y-112032168D01*
X136239490Y-111960802D01*
X136369231Y-111945673D01*
X136552404Y-111945673D01*
X136552404Y-112312019D01*
X136552404Y-112678365D01*
X136735577Y-112678365D01*
X136832255Y-112672753D01*
X136903621Y-112624933D01*
X136918750Y-112495192D01*
X136924362Y-112398514D01*
X136972182Y-112327148D01*
X137101923Y-112312019D01*
X137198601Y-112306407D01*
X137269967Y-112258587D01*
X137285096Y-112128846D01*
X137290708Y-112032168D01*
X137338528Y-111960802D01*
X137468270Y-111945673D01*
X137651443Y-111945673D01*
X137651443Y-111579327D01*
X137651443Y-111212980D01*
X137285096Y-111212980D01*
X136918750Y-111212980D01*
X136918750Y-111396154D01*
X136924362Y-111492831D01*
X136972182Y-111564197D01*
X137101923Y-111579327D01*
X137198601Y-111584938D01*
X137269967Y-111632758D01*
X137285096Y-111762500D01*
X137285096Y-111945673D01*
X136918750Y-111945673D01*
X136552404Y-111945673D01*
X136552404Y-111762500D01*
X136552404Y-111579327D01*
X136002885Y-111579327D01*
X135453366Y-111579327D01*
X135087020Y-111579327D01*
X134903846Y-111579327D01*
X134807169Y-111573715D01*
X134735803Y-111525895D01*
X134720673Y-111396154D01*
X134715062Y-111299476D01*
X134667242Y-111228110D01*
X134537500Y-111212980D01*
X134354327Y-111212980D01*
X134354327Y-111579327D01*
X133987981Y-111579327D01*
X133804808Y-111579327D01*
X133708130Y-111584938D01*
X133636764Y-111632758D01*
X133621635Y-111762500D01*
X133616023Y-111859178D01*
X133568203Y-111930543D01*
X133438462Y-111945673D01*
X133255289Y-111945673D01*
X133255289Y-111396154D01*
X133255289Y-110846634D01*
X133438462Y-110846634D01*
X133535140Y-110852246D01*
X133606506Y-110900066D01*
X133621635Y-111029807D01*
X133627247Y-111126485D01*
X133675067Y-111197851D01*
X133804808Y-111212980D01*
X133901486Y-111207369D01*
X133972852Y-111159549D01*
X133987981Y-111029807D01*
X133987981Y-110846634D01*
X134354327Y-110846634D01*
X134720673Y-110846634D01*
X134720673Y-110663461D01*
X134715062Y-110566783D01*
X134667242Y-110495417D01*
X134537500Y-110480288D01*
X134440822Y-110474677D01*
X134369457Y-110426856D01*
X134354327Y-110297115D01*
X134359939Y-110200437D01*
X134407759Y-110129071D01*
X134537500Y-110113942D01*
X135087020Y-110113942D01*
X135087020Y-110663461D01*
X135087020Y-111212980D01*
X135636539Y-111212980D01*
X136186058Y-111212980D01*
X136186058Y-110663461D01*
X136186058Y-110113942D01*
X135636539Y-110113942D01*
X135087020Y-110113942D01*
X134537500Y-110113942D01*
X134634178Y-110108330D01*
X134705544Y-110060510D01*
X134720673Y-109930769D01*
X134715062Y-109834091D01*
X134667242Y-109762725D01*
X134537500Y-109747596D01*
X134440822Y-109741984D01*
X134369457Y-109694164D01*
X134354327Y-109564423D01*
X134348716Y-109467745D01*
X134300896Y-109396379D01*
X134171154Y-109381250D01*
X134074476Y-109386861D01*
X134003110Y-109434681D01*
X133987981Y-109564423D01*
X133982370Y-109661101D01*
X133934549Y-109732466D01*
X133804808Y-109747596D01*
X133708130Y-109741984D01*
X133636764Y-109694164D01*
X133621635Y-109564423D01*
X133616023Y-109467745D01*
X133568203Y-109396379D01*
X133438462Y-109381250D01*
X133255289Y-109381250D01*
X133255289Y-109014904D01*
X133255289Y-108648557D01*
X133438462Y-108648557D01*
X133535140Y-108654169D01*
X133606506Y-108701989D01*
X133621635Y-108831730D01*
X133627247Y-108928408D01*
X133675067Y-108999774D01*
X133804808Y-109014904D01*
X133987981Y-109014904D01*
X133987981Y-108648557D01*
X133987981Y-108282211D01*
X134354327Y-108282211D01*
X134720673Y-108282211D01*
X134720673Y-108648557D01*
X134720673Y-109014904D01*
X134537500Y-109014904D01*
X134440822Y-109020515D01*
X134369457Y-109068335D01*
X134354327Y-109198077D01*
X134354327Y-109381250D01*
X134903846Y-109381250D01*
X135453366Y-109381250D01*
X135819712Y-109381250D01*
X135819712Y-109564423D01*
X135819712Y-109747596D01*
X136186058Y-109747596D01*
X136552404Y-109747596D01*
X136552404Y-109930769D01*
X136558016Y-110027447D01*
X136605836Y-110098813D01*
X136735577Y-110113942D01*
X136918750Y-110113942D01*
X136918750Y-110480288D01*
X136918750Y-110663461D01*
X136918750Y-110846634D01*
X137101923Y-110846634D01*
X137285096Y-110846634D01*
X137285096Y-110480288D01*
X137285096Y-110113942D01*
X137468270Y-110113942D01*
X137564948Y-110119554D01*
X137636313Y-110167374D01*
X137651443Y-110297115D01*
X137657054Y-110393793D01*
X137704874Y-110465159D01*
X137834616Y-110480288D01*
X137931294Y-110474677D01*
X138002659Y-110426856D01*
X138017789Y-110297115D01*
X138023400Y-110200437D01*
X138071220Y-110129071D01*
X138200962Y-110113942D01*
X138384135Y-110113942D01*
X138384135Y-110663461D01*
X138384135Y-111212980D01*
X138200962Y-111212980D01*
X138104284Y-111218592D01*
X138032918Y-111266412D01*
X138017789Y-111396154D01*
X138017789Y-111579327D01*
X138384135Y-111579327D01*
X138750481Y-111579327D01*
X138750481Y-111762500D01*
X138744870Y-111859178D01*
X138697049Y-111930543D01*
X138567308Y-111945673D01*
X138470630Y-111951284D01*
X138399264Y-111999104D01*
X138384135Y-112128846D01*
X138384135Y-112312019D01*
X139116827Y-112312019D01*
X139849520Y-112312019D01*
X139849520Y-112128846D01*
X139855131Y-112032168D01*
X139902951Y-111960802D01*
X140032693Y-111945673D01*
X140129371Y-111940061D01*
X140200736Y-111892241D01*
X140215866Y-111762500D01*
X140210254Y-111665822D01*
X140162434Y-111594456D01*
X140032693Y-111579327D01*
X139849520Y-111579327D01*
X139849520Y-111212980D01*
X140582212Y-111212980D01*
X140582212Y-111396154D01*
X140587823Y-111492831D01*
X140635644Y-111564197D01*
X140765385Y-111579327D01*
X140862063Y-111584938D01*
X140933429Y-111632758D01*
X140948558Y-111762500D01*
X140954170Y-111859178D01*
X141001990Y-111930543D01*
X141131731Y-111945673D01*
X141314904Y-111945673D01*
X141314904Y-111579327D01*
X141314904Y-111212980D01*
X140948558Y-111212980D01*
X140582212Y-111212980D01*
X139849520Y-111212980D01*
X139849520Y-111029807D01*
X139849520Y-110480288D01*
X140215866Y-110480288D01*
X140582212Y-110480288D01*
X140582212Y-110663461D01*
X140582212Y-110846634D01*
X140948558Y-110846634D01*
X141314904Y-110846634D01*
X141314904Y-111029807D01*
X141314904Y-111212980D01*
X141681250Y-111212980D01*
X142047596Y-111212980D01*
X142047596Y-110846634D01*
X142047596Y-110480288D01*
X141864423Y-110480288D01*
X141767745Y-110485900D01*
X141696380Y-110533720D01*
X141681250Y-110663461D01*
X141675639Y-110760139D01*
X141627819Y-110831505D01*
X141498077Y-110846634D01*
X141401399Y-110841023D01*
X141330034Y-110793203D01*
X141314904Y-110663461D01*
X141309293Y-110566783D01*
X141261473Y-110495417D01*
X141131731Y-110480288D01*
X141035053Y-110474677D01*
X140963687Y-110426856D01*
X140948558Y-110297115D01*
X140948558Y-110113942D01*
X140399039Y-110113942D01*
X139849520Y-110113942D01*
X139849520Y-110297115D01*
X139849520Y-110480288D01*
X139300000Y-110480288D01*
X138750481Y-110480288D01*
X138750481Y-110113942D01*
X138750481Y-109747596D01*
X138933654Y-109747596D01*
X139030332Y-109753207D01*
X139101698Y-109801027D01*
X139116827Y-109930769D01*
X139122439Y-110027447D01*
X139170259Y-110098813D01*
X139300000Y-110113942D01*
X139396678Y-110108330D01*
X139468044Y-110060510D01*
X139483173Y-109930769D01*
X139477562Y-109834091D01*
X139429742Y-109762725D01*
X139300000Y-109747596D01*
X139203322Y-109741984D01*
X139131957Y-109694164D01*
X139116827Y-109564423D01*
X139111216Y-109467745D01*
X139063396Y-109396379D01*
X138933654Y-109381250D01*
X138836976Y-109386861D01*
X138765610Y-109434681D01*
X138750481Y-109564423D01*
X138750481Y-109747596D01*
X138384135Y-109747596D01*
X138017789Y-109747596D01*
X138017789Y-109564423D01*
X138023400Y-109467745D01*
X138071220Y-109396379D01*
X138200962Y-109381250D01*
X138384135Y-109381250D01*
X138384135Y-109014904D01*
X138384135Y-108648557D01*
X138017789Y-108648557D01*
X137651443Y-108648557D01*
X137651443Y-109014904D01*
X137651443Y-109381250D01*
X137468270Y-109381250D01*
X137285096Y-109381250D01*
X137285096Y-109014904D01*
X137285096Y-108648557D01*
X137101923Y-108648557D01*
X136918750Y-108648557D01*
X136918750Y-109014904D01*
X136918750Y-109381250D01*
X137101923Y-109381250D01*
X137285096Y-109381250D01*
X137285096Y-109747596D01*
X137285096Y-110113942D01*
X137101923Y-110113942D01*
X137005245Y-110108330D01*
X136933880Y-110060510D01*
X136918750Y-109930769D01*
X136913139Y-109834091D01*
X136865319Y-109762725D01*
X136735577Y-109747596D01*
X136638899Y-109741984D01*
X136567534Y-109694164D01*
X136552404Y-109564423D01*
X136552404Y-109381250D01*
X136186058Y-109381250D01*
X135819712Y-109381250D01*
X135453366Y-109381250D01*
X135453366Y-109014904D01*
X135453366Y-108648557D01*
X135636539Y-108648557D01*
X135733217Y-108654169D01*
X135804583Y-108701989D01*
X135819712Y-108831730D01*
X135819712Y-109014904D01*
X136186058Y-109014904D01*
X136552404Y-109014904D01*
X136552404Y-108831730D01*
X136546793Y-108735052D01*
X136498973Y-108663687D01*
X136369231Y-108648557D01*
X136186058Y-108648557D01*
X136186058Y-108282211D01*
X136186058Y-107915865D01*
X136552404Y-107915865D01*
X136918750Y-107915865D01*
X136918750Y-108099038D01*
X136918750Y-108282211D01*
X137834616Y-108282211D01*
X138750481Y-108282211D01*
X138750481Y-108465384D01*
X138756093Y-108562062D01*
X138803913Y-108633428D01*
X138933654Y-108648557D01*
X139030332Y-108654169D01*
X139101698Y-108701989D01*
X139116827Y-108831730D01*
X139122439Y-108928408D01*
X139170259Y-108999774D01*
X139300000Y-109014904D01*
X139396678Y-109009292D01*
X139468044Y-108961472D01*
X139483173Y-108831730D01*
X139488785Y-108735052D01*
X139536605Y-108663687D01*
X139666346Y-108648557D01*
X139849520Y-108648557D01*
X139849520Y-108282211D01*
X139849520Y-107915865D01*
X140032693Y-107915865D01*
X140215866Y-107915865D01*
X140215866Y-108465384D01*
X140215866Y-109014904D01*
X139849520Y-109014904D01*
X139483173Y-109014904D01*
X139483173Y-109381250D01*
X139483173Y-109747596D01*
X140215866Y-109747596D01*
X140948558Y-109747596D01*
X140948558Y-109930769D01*
X140954170Y-110027447D01*
X141001990Y-110098813D01*
X141131731Y-110113942D01*
X141228409Y-110119554D01*
X141299775Y-110167374D01*
X141314904Y-110297115D01*
X141320516Y-110393793D01*
X141368336Y-110465159D01*
X141498077Y-110480288D01*
X141681250Y-110480288D01*
X141681250Y-110113942D01*
X141681250Y-109747596D01*
X141498077Y-109747596D01*
X141314904Y-109747596D01*
X141314904Y-109381250D01*
X141314904Y-109014904D01*
X141681250Y-109014904D01*
X142047596Y-109014904D01*
X142047596Y-109564423D01*
X142047596Y-110113942D01*
X142230770Y-110113942D01*
X142327448Y-110108330D01*
X142398813Y-110060510D01*
X142413943Y-109930769D01*
X142413943Y-109747596D01*
X142780289Y-109747596D01*
X143146635Y-109747596D01*
X143146635Y-109564423D01*
X143146635Y-109381250D01*
X142780289Y-109381250D01*
X142413943Y-109381250D01*
X142413943Y-109198077D01*
X142413943Y-109014904D01*
X142780289Y-109014904D01*
X143146635Y-109014904D01*
X143146635Y-109198077D01*
X143152247Y-109294755D01*
X143200067Y-109366120D01*
X143329808Y-109381250D01*
X143426486Y-109386861D01*
X143497852Y-109434681D01*
X143512981Y-109564423D01*
X143518593Y-109661101D01*
X143566413Y-109732466D01*
X143696154Y-109747596D01*
X143792832Y-109753207D01*
X143864198Y-109801027D01*
X143879327Y-109930769D01*
X143873716Y-110027447D01*
X143825896Y-110098813D01*
X143696154Y-110113942D01*
X143599476Y-110108330D01*
X143528110Y-110060510D01*
X143512981Y-109930769D01*
X143507370Y-109834091D01*
X143459549Y-109762725D01*
X143329808Y-109747596D01*
X143233130Y-109753207D01*
X143161764Y-109801027D01*
X143146635Y-109930769D01*
X143146635Y-110113942D01*
X142780289Y-110113942D01*
X142413943Y-110113942D01*
X142413943Y-110480288D01*
X142413943Y-110663461D01*
G37*
G36*
X143879327Y-107549519D02*
G01*
X143879327Y-107915865D01*
X144062500Y-107915865D01*
X144245673Y-107915865D01*
X144245673Y-107549519D01*
X144245673Y-107183173D01*
X144612020Y-107183173D01*
X144978366Y-107183173D01*
X144978366Y-107366346D01*
X144972754Y-107463024D01*
X144924934Y-107534390D01*
X144795193Y-107549519D01*
X144698515Y-107555130D01*
X144627149Y-107602951D01*
X144612020Y-107732692D01*
X144606408Y-107829370D01*
X144558588Y-107900736D01*
X144428846Y-107915865D01*
X144332169Y-107921477D01*
X144260803Y-107969297D01*
X144245673Y-108099038D01*
X144245673Y-108282211D01*
X144612020Y-108282211D01*
X144978366Y-108282211D01*
X144978366Y-108099038D01*
X144983977Y-108002360D01*
X145031797Y-107930994D01*
X145161539Y-107915865D01*
X145258217Y-107921477D01*
X145329583Y-107969297D01*
X145344712Y-108099038D01*
X145339100Y-108195716D01*
X145291280Y-108267082D01*
X145161539Y-108282211D01*
X145064861Y-108287823D01*
X144993495Y-108335643D01*
X144978366Y-108465384D01*
X144972754Y-108562062D01*
X144924934Y-108633428D01*
X144795193Y-108648557D01*
X144698515Y-108654169D01*
X144627149Y-108701989D01*
X144612020Y-108831730D01*
X144612020Y-109014904D01*
X144978366Y-109014904D01*
X145344712Y-109014904D01*
X145344712Y-109381250D01*
X145344712Y-109747596D01*
X145161539Y-109747596D01*
X145064861Y-109753207D01*
X144993495Y-109801027D01*
X144978366Y-109930769D01*
X144972754Y-110027447D01*
X144924934Y-110098813D01*
X144795193Y-110113942D01*
X144698515Y-110108330D01*
X144627149Y-110060510D01*
X144612020Y-109930769D01*
X144617631Y-109834091D01*
X144665451Y-109762725D01*
X144795193Y-109747596D01*
X144891871Y-109741984D01*
X144963236Y-109694164D01*
X144978366Y-109564423D01*
X144972754Y-109467745D01*
X144924934Y-109396379D01*
X144795193Y-109381250D01*
X144698515Y-109375638D01*
X144627149Y-109327818D01*
X144612020Y-109198077D01*
X144606408Y-109101399D01*
X144558588Y-109030033D01*
X144428846Y-109014904D01*
X144332169Y-109020515D01*
X144260803Y-109068335D01*
X144245673Y-109198077D01*
X144240062Y-109294755D01*
X144192242Y-109366120D01*
X144062500Y-109381250D01*
X143965822Y-109375638D01*
X143894457Y-109327818D01*
X143879327Y-109198077D01*
X143879327Y-109014904D01*
X143512981Y-109014904D01*
X143146635Y-109014904D01*
X143146635Y-108831730D01*
X143146635Y-108648557D01*
X142780289Y-108648557D01*
X142413943Y-108648557D01*
X142413943Y-108831730D01*
X142408331Y-108928408D01*
X142360511Y-108999774D01*
X142230770Y-109014904D01*
X142134092Y-109009292D01*
X142062726Y-108961472D01*
X142047596Y-108831730D01*
X142047596Y-108648557D01*
X141681250Y-108648557D01*
X141314904Y-108648557D01*
X141314904Y-108831730D01*
X141314904Y-109014904D01*
X141131731Y-109014904D01*
X141035053Y-109020515D01*
X140963687Y-109068335D01*
X140948558Y-109198077D01*
X140942946Y-109294755D01*
X140895126Y-109366120D01*
X140765385Y-109381250D01*
X140582212Y-109381250D01*
X140582212Y-109014904D01*
X140582212Y-108648557D01*
X140765385Y-108648557D01*
X140862063Y-108642946D01*
X140933429Y-108595126D01*
X140948558Y-108465384D01*
X140942946Y-108368706D01*
X140895126Y-108297341D01*
X140765385Y-108282211D01*
X140582212Y-108282211D01*
X140582212Y-108099038D01*
X140948558Y-108099038D01*
X140954170Y-108195716D01*
X141001990Y-108267082D01*
X141131731Y-108282211D01*
X141228409Y-108276600D01*
X141299775Y-108228780D01*
X141314904Y-108099038D01*
X141309293Y-108002360D01*
X141261473Y-107930994D01*
X141131731Y-107915865D01*
X141035053Y-107921477D01*
X140963687Y-107969297D01*
X140948558Y-108099038D01*
X140582212Y-108099038D01*
X140582212Y-107915865D01*
X140582212Y-107549519D01*
X140765385Y-107549519D01*
X140948558Y-107549519D01*
X141681250Y-107549519D01*
X141681250Y-107732692D01*
X141681250Y-107915865D01*
X142047596Y-107915865D01*
X142413943Y-107915865D01*
X142413943Y-108099038D01*
X142413943Y-108282211D01*
X142780289Y-108282211D01*
X143146635Y-108282211D01*
X143146635Y-108099038D01*
X143141023Y-108002360D01*
X143093203Y-107930994D01*
X142963462Y-107915865D01*
X143512981Y-107915865D01*
X143512981Y-108282211D01*
X143512981Y-108648557D01*
X143696154Y-108648557D01*
X143879327Y-108648557D01*
X143879327Y-108282211D01*
X143879327Y-107915865D01*
X143696154Y-107915865D01*
X143512981Y-107915865D01*
X142963462Y-107915865D01*
X142866784Y-107910253D01*
X142795418Y-107862433D01*
X142780289Y-107732692D01*
X142785900Y-107636014D01*
X142833720Y-107564648D01*
X142963462Y-107549519D01*
X143060140Y-107543907D01*
X143131506Y-107496087D01*
X143146635Y-107366346D01*
X143141023Y-107269668D01*
X143093203Y-107198302D01*
X142963462Y-107183173D01*
X142866784Y-107177561D01*
X142795418Y-107129741D01*
X142780289Y-107000000D01*
X142780289Y-106816827D01*
X142413943Y-106816827D01*
X142047596Y-106816827D01*
X142047596Y-107000000D01*
X142053208Y-107096678D01*
X142101028Y-107168043D01*
X142230770Y-107183173D01*
X142327448Y-107188784D01*
X142398813Y-107236604D01*
X142413943Y-107366346D01*
X142413943Y-107549519D01*
X142047596Y-107549519D01*
X141681250Y-107549519D01*
X140948558Y-107549519D01*
X140948558Y-107000000D01*
X140948558Y-106450480D01*
X141314904Y-106450480D01*
X141681250Y-106450480D01*
X141681250Y-106633654D01*
X141686862Y-106730331D01*
X141734682Y-106801697D01*
X141864423Y-106816827D01*
X142047596Y-106816827D01*
X142047596Y-106450480D01*
X142047596Y-106084134D01*
X142230770Y-106084134D01*
X142327448Y-106078523D01*
X142398813Y-106030703D01*
X142413943Y-105900961D01*
X142408331Y-105804283D01*
X142360511Y-105732917D01*
X142230770Y-105717788D01*
X142134092Y-105712177D01*
X142062726Y-105664356D01*
X142047596Y-105534615D01*
X142053208Y-105437937D01*
X142101028Y-105366571D01*
X142230770Y-105351442D01*
X142327448Y-105357054D01*
X142398813Y-105404874D01*
X142413943Y-105534615D01*
X142419554Y-105631293D01*
X142467374Y-105702659D01*
X142597116Y-105717788D01*
X142693794Y-105712177D01*
X142765159Y-105664356D01*
X142780289Y-105534615D01*
X142785900Y-105437937D01*
X142833720Y-105366571D01*
X142963462Y-105351442D01*
X143060140Y-105357054D01*
X143131506Y-105404874D01*
X143146635Y-105534615D01*
X143146635Y-105717788D01*
X143512981Y-105717788D01*
X143879327Y-105717788D01*
X143879327Y-105900961D01*
X143873716Y-105997639D01*
X143825896Y-106069005D01*
X143696154Y-106084134D01*
X143599476Y-106089746D01*
X143528110Y-106137566D01*
X143512981Y-106267307D01*
X143512981Y-106450480D01*
X143146635Y-106450480D01*
X142780289Y-106450480D01*
X142780289Y-106267307D01*
X142785900Y-106170629D01*
X142833720Y-106099264D01*
X142963462Y-106084134D01*
X143060140Y-106078523D01*
X143131506Y-106030703D01*
X143146635Y-105900961D01*
X143141023Y-105804283D01*
X143093203Y-105732917D01*
X142963462Y-105717788D01*
X142866784Y-105723400D01*
X142795418Y-105771220D01*
X142780289Y-105900961D01*
X142774677Y-105997639D01*
X142726857Y-106069005D01*
X142597116Y-106084134D01*
X142500438Y-106089746D01*
X142429072Y-106137566D01*
X142413943Y-106267307D01*
X142419554Y-106363985D01*
X142467374Y-106435351D01*
X142597116Y-106450480D01*
X142693794Y-106456092D01*
X142765159Y-106503912D01*
X142780289Y-106633654D01*
X142780289Y-106816827D01*
X143146635Y-106816827D01*
X143512981Y-106816827D01*
X143512981Y-106633654D01*
X143512981Y-106450480D01*
X143879327Y-106450480D01*
X144245673Y-106450480D01*
X144245673Y-105900961D01*
X144245673Y-105351442D01*
X144795193Y-105351442D01*
X145344712Y-105351442D01*
X145344712Y-105717788D01*
X145344712Y-106084134D01*
X144978366Y-106084134D01*
X144612020Y-106084134D01*
X144612020Y-106450480D01*
X144612020Y-106816827D01*
X144062500Y-106816827D01*
X143512981Y-106816827D01*
X143512981Y-107000000D01*
X143518593Y-107096678D01*
X143566413Y-107168043D01*
X143696154Y-107183173D01*
X143879327Y-107183173D01*
X143879327Y-107366346D01*
X143879327Y-107549519D01*
G37*
G36*
X142413943Y-101687980D02*
G01*
X142230770Y-101687980D01*
X142134092Y-101693592D01*
X142062726Y-101741412D01*
X142047596Y-101871154D01*
X142053208Y-101967831D01*
X142101028Y-102039197D01*
X142230770Y-102054327D01*
X142327448Y-102059938D01*
X142398813Y-102107758D01*
X142413943Y-102237500D01*
X142413943Y-102420673D01*
X142047596Y-102420673D01*
X141681250Y-102420673D01*
X141681250Y-102603846D01*
X141675639Y-102700524D01*
X141627819Y-102771890D01*
X141498077Y-102787019D01*
X141401399Y-102792630D01*
X141330034Y-102840451D01*
X141314904Y-102970192D01*
X141320516Y-103066870D01*
X141368336Y-103138236D01*
X141498077Y-103153365D01*
X141681250Y-103153365D01*
X141681250Y-103336538D01*
X141681250Y-103519711D01*
X141681250Y-103886057D01*
X141498077Y-103886057D01*
X141314904Y-103886057D01*
X141314904Y-104435577D01*
X141314904Y-104985096D01*
X141131731Y-104985096D01*
X140948558Y-104985096D01*
X140948558Y-104618750D01*
X140948558Y-104252404D01*
X140765385Y-104252404D01*
X140668707Y-104246792D01*
X140597341Y-104198972D01*
X140582212Y-104069230D01*
X140587823Y-103972552D01*
X140635644Y-103901187D01*
X140765385Y-103886057D01*
X140862063Y-103880446D01*
X140933429Y-103832626D01*
X140948558Y-103702884D01*
X140942946Y-103606206D01*
X140895126Y-103534841D01*
X140765385Y-103519711D01*
X140668707Y-103514100D01*
X140597341Y-103466280D01*
X140582212Y-103336538D01*
X140576600Y-103239860D01*
X140528780Y-103168494D01*
X140399039Y-103153365D01*
X140302361Y-103158977D01*
X140230995Y-103206797D01*
X140215866Y-103336538D01*
X140210254Y-103433216D01*
X140162434Y-103504582D01*
X140032693Y-103519711D01*
X139936015Y-103514100D01*
X139864649Y-103466280D01*
X139849520Y-103336538D01*
X139855131Y-103239860D01*
X139902951Y-103168494D01*
X140032693Y-103153365D01*
X140129371Y-103147753D01*
X140200736Y-103099933D01*
X140215866Y-102970192D01*
X140582212Y-102970192D01*
X140587823Y-103066870D01*
X140635644Y-103138236D01*
X140765385Y-103153365D01*
X140862063Y-103158977D01*
X140933429Y-103206797D01*
X140948558Y-103336538D01*
X140954170Y-103433216D01*
X141001990Y-103504582D01*
X141131731Y-103519711D01*
X141228409Y-103514100D01*
X141299775Y-103466280D01*
X141314904Y-103336538D01*
X141309293Y-103239860D01*
X141261473Y-103168494D01*
X141131731Y-103153365D01*
X141035053Y-103147753D01*
X140963687Y-103099933D01*
X140948558Y-102970192D01*
X140942946Y-102873514D01*
X140895126Y-102802148D01*
X140765385Y-102787019D01*
X140668707Y-102792630D01*
X140597341Y-102840451D01*
X140582212Y-102970192D01*
X140215866Y-102970192D01*
X140210254Y-102873514D01*
X140162434Y-102802148D01*
X140032693Y-102787019D01*
X139936015Y-102781407D01*
X139864649Y-102733587D01*
X139849520Y-102603846D01*
X139849520Y-102420673D01*
X139483173Y-102420673D01*
X139116827Y-102420673D01*
X139116827Y-102787019D01*
X139116827Y-103153365D01*
X139300000Y-103153365D01*
X139396678Y-103158977D01*
X139468044Y-103206797D01*
X139483173Y-103336538D01*
X139477562Y-103433216D01*
X139429742Y-103504582D01*
X139300000Y-103519711D01*
X139116827Y-103519711D01*
X139116827Y-103886057D01*
X139116827Y-104252404D01*
X139300000Y-104252404D01*
X139396678Y-104258015D01*
X139468044Y-104305835D01*
X139483173Y-104435577D01*
X139477562Y-104532255D01*
X139429742Y-104603620D01*
X139300000Y-104618750D01*
X139203322Y-104624361D01*
X139131957Y-104672181D01*
X139116827Y-104801923D01*
X139111216Y-104898601D01*
X139063396Y-104969966D01*
X138933654Y-104985096D01*
X138750481Y-104985096D01*
X138750481Y-105534615D01*
X138750481Y-106084134D01*
X138933654Y-106084134D01*
X139030332Y-106078523D01*
X139101698Y-106030703D01*
X139116827Y-105900961D01*
X139122439Y-105804283D01*
X139170259Y-105732917D01*
X139300000Y-105717788D01*
X139396678Y-105712177D01*
X139468044Y-105664356D01*
X139483173Y-105534615D01*
X139488785Y-105437937D01*
X139536605Y-105366571D01*
X139666346Y-105351442D01*
X139849520Y-105351442D01*
X139849520Y-105534615D01*
X139843908Y-105631293D01*
X139796088Y-105702659D01*
X139666346Y-105717788D01*
X139569669Y-105723400D01*
X139498303Y-105771220D01*
X139483173Y-105900961D01*
X139488785Y-105997639D01*
X139536605Y-106069005D01*
X139666346Y-106084134D01*
X139763024Y-106089746D01*
X139834390Y-106137566D01*
X139849520Y-106267307D01*
X139843908Y-106363985D01*
X139796088Y-106435351D01*
X139666346Y-106450480D01*
X139569669Y-106456092D01*
X139498303Y-106503912D01*
X139483173Y-106633654D01*
X139488785Y-106730331D01*
X139536605Y-106801697D01*
X139666346Y-106816827D01*
X139849520Y-106816827D01*
X139849520Y-107366346D01*
X139849520Y-107915865D01*
X139300000Y-107915865D01*
X138750481Y-107915865D01*
X138750481Y-107549519D01*
X138750481Y-107183173D01*
X138933654Y-107183173D01*
X139030332Y-107188784D01*
X139101698Y-107236604D01*
X139116827Y-107366346D01*
X139122439Y-107463024D01*
X139170259Y-107534390D01*
X139300000Y-107549519D01*
X139483173Y-107549519D01*
X139483173Y-107183173D01*
X139483173Y-106816827D01*
X139300000Y-106816827D01*
X139203322Y-106811215D01*
X139131957Y-106763395D01*
X139116827Y-106633654D01*
X139116827Y-106450480D01*
X138750481Y-106450480D01*
X138384135Y-106450480D01*
X138384135Y-106633654D01*
X138389747Y-106730331D01*
X138437567Y-106801697D01*
X138567308Y-106816827D01*
X138663986Y-106822438D01*
X138735352Y-106870258D01*
X138750481Y-107000000D01*
X138750481Y-107183173D01*
X137834616Y-107183173D01*
X136918750Y-107183173D01*
X136918750Y-107366346D01*
X136918750Y-107549519D01*
X136552404Y-107549519D01*
X136186058Y-107549519D01*
X136186058Y-107732692D01*
X136180446Y-107829370D01*
X136132626Y-107900736D01*
X136002885Y-107915865D01*
X135906207Y-107921477D01*
X135834841Y-107969297D01*
X135819712Y-108099038D01*
X135814100Y-108195716D01*
X135766280Y-108267082D01*
X135636539Y-108282211D01*
X135539861Y-108276600D01*
X135468495Y-108228780D01*
X135453366Y-108099038D01*
X135447754Y-108002360D01*
X135399934Y-107930994D01*
X135270193Y-107915865D01*
X135173515Y-107921477D01*
X135102149Y-107969297D01*
X135087020Y-108099038D01*
X135081408Y-108195716D01*
X135033588Y-108267082D01*
X134903846Y-108282211D01*
X134720673Y-108282211D01*
X134720673Y-107915865D01*
X134720673Y-107549519D01*
X134537500Y-107549519D01*
X134440822Y-107543907D01*
X134369457Y-107496087D01*
X134354327Y-107366346D01*
X134359939Y-107269668D01*
X134407759Y-107198302D01*
X134537500Y-107183173D01*
X134634178Y-107177561D01*
X134705544Y-107129741D01*
X134720673Y-107000000D01*
X134726285Y-106903322D01*
X134774105Y-106831956D01*
X134903846Y-106816827D01*
X135087020Y-106816827D01*
X135087020Y-107183173D01*
X135087020Y-107549519D01*
X135270193Y-107549519D01*
X135453366Y-107549519D01*
X135453366Y-107183173D01*
X135453366Y-107000000D01*
X136186058Y-107000000D01*
X136191670Y-107096678D01*
X136239490Y-107168043D01*
X136369231Y-107183173D01*
X136465909Y-107177561D01*
X136537275Y-107129741D01*
X136552404Y-107000000D01*
X136546793Y-106903322D01*
X136498973Y-106831956D01*
X136369231Y-106816827D01*
X136272553Y-106822438D01*
X136201187Y-106870258D01*
X136186058Y-107000000D01*
X135453366Y-107000000D01*
X135453366Y-106816827D01*
X135270193Y-106816827D01*
X135087020Y-106816827D01*
X135087020Y-106267307D01*
X135087020Y-105717788D01*
X134903846Y-105717788D01*
X134720673Y-105717788D01*
X134720673Y-106267307D01*
X134720673Y-106816827D01*
X134537500Y-106816827D01*
X134440822Y-106822438D01*
X134369457Y-106870258D01*
X134354327Y-107000000D01*
X134348716Y-107096678D01*
X134300896Y-107168043D01*
X134171154Y-107183173D01*
X134074476Y-107188784D01*
X134003110Y-107236604D01*
X133987981Y-107366346D01*
X133993593Y-107463024D01*
X134041413Y-107534390D01*
X134171154Y-107549519D01*
X134267832Y-107555130D01*
X134339198Y-107602951D01*
X134354327Y-107732692D01*
X134348716Y-107829370D01*
X134300896Y-107900736D01*
X134171154Y-107915865D01*
X134074476Y-107921477D01*
X134003110Y-107969297D01*
X133987981Y-108099038D01*
X133987981Y-108282211D01*
X133621635Y-108282211D01*
X133255289Y-108282211D01*
X133255289Y-108099038D01*
X133255289Y-107915865D01*
X133621635Y-107915865D01*
X133987981Y-107915865D01*
X133987981Y-107732692D01*
X133987981Y-107549519D01*
X133621635Y-107549519D01*
X133255289Y-107549519D01*
X133255289Y-107366346D01*
X133255289Y-107183173D01*
X133621635Y-107183173D01*
X133987981Y-107183173D01*
X133987981Y-106633654D01*
X133987981Y-106084134D01*
X133804808Y-106084134D01*
X133708130Y-106078523D01*
X133636764Y-106030703D01*
X133621635Y-105900961D01*
X133616023Y-105804283D01*
X133568203Y-105732917D01*
X133438462Y-105717788D01*
X133341784Y-105712177D01*
X133270418Y-105664356D01*
X133255289Y-105534615D01*
X133255289Y-105351442D01*
X133621635Y-105351442D01*
X133987981Y-105351442D01*
X133987981Y-105717788D01*
X133987981Y-106084134D01*
X134171154Y-106084134D01*
X134354327Y-106084134D01*
X134354327Y-105351442D01*
X134354327Y-105168269D01*
X134720673Y-105168269D01*
X134726285Y-105264947D01*
X134774105Y-105336313D01*
X134903846Y-105351442D01*
X135000524Y-105345830D01*
X135071890Y-105298010D01*
X135087020Y-105168269D01*
X135081408Y-105071591D01*
X135033588Y-105000225D01*
X134903846Y-104985096D01*
X134807169Y-104990707D01*
X134735803Y-105038527D01*
X134720673Y-105168269D01*
X134354327Y-105168269D01*
X134354327Y-104618750D01*
X134171154Y-104618750D01*
X134074476Y-104624361D01*
X134003110Y-104672181D01*
X133987981Y-104801923D01*
X133987981Y-104985096D01*
X133621635Y-104985096D01*
X133255289Y-104985096D01*
X133255289Y-104435577D01*
X133255289Y-103886057D01*
X133621635Y-103886057D01*
X133987981Y-103886057D01*
X133987981Y-104069230D01*
X133993593Y-104165908D01*
X134041413Y-104237274D01*
X134171154Y-104252404D01*
X134267832Y-104246792D01*
X134339198Y-104198972D01*
X134354327Y-104069230D01*
X134359939Y-103972552D01*
X134407759Y-103901187D01*
X134537500Y-103886057D01*
X134720673Y-103886057D01*
X134720673Y-104252404D01*
X134720673Y-104618750D01*
X134903846Y-104618750D01*
X135000524Y-104613138D01*
X135071890Y-104565318D01*
X135087020Y-104435577D01*
X135092631Y-104338899D01*
X135140451Y-104267533D01*
X135270193Y-104252404D01*
X135366871Y-104246792D01*
X135438236Y-104198972D01*
X135453366Y-104069230D01*
X135458977Y-103972552D01*
X135506797Y-103901187D01*
X135636539Y-103886057D01*
X135819712Y-103886057D01*
X135819712Y-104252404D01*
X135819712Y-104618750D01*
X135636539Y-104618750D01*
X135453366Y-104618750D01*
X135453366Y-105168269D01*
X135453366Y-105351442D01*
X135453366Y-106084134D01*
X135636539Y-106084134D01*
X135733217Y-106089746D01*
X135804583Y-106137566D01*
X135819712Y-106267307D01*
X135825323Y-106363985D01*
X135873144Y-106435351D01*
X136002885Y-106450480D01*
X136099563Y-106444869D01*
X136170929Y-106397049D01*
X136186058Y-106267307D01*
X136191670Y-106170629D01*
X136239490Y-106099264D01*
X136369231Y-106084134D01*
X136465909Y-106089746D01*
X136537275Y-106137566D01*
X136552404Y-106267307D01*
X136558016Y-106363985D01*
X136605836Y-106435351D01*
X136735577Y-106450480D01*
X136832255Y-106444869D01*
X136903621Y-106397049D01*
X136918750Y-106267307D01*
X136924362Y-106170629D01*
X136972182Y-106099264D01*
X137101923Y-106084134D01*
X137198601Y-106089746D01*
X137269967Y-106137566D01*
X137285096Y-106267307D01*
X137285096Y-106450480D01*
X137834616Y-106450480D01*
X138384135Y-106450480D01*
X138384135Y-106084134D01*
X138384135Y-105717788D01*
X138200962Y-105717788D01*
X138104284Y-105712177D01*
X138032918Y-105664356D01*
X138017789Y-105534615D01*
X138012177Y-105437937D01*
X137964357Y-105366571D01*
X137834616Y-105351442D01*
X137737938Y-105345830D01*
X137666572Y-105298010D01*
X137651443Y-105168269D01*
X137651443Y-104985096D01*
X137101923Y-104985096D01*
X136552404Y-104985096D01*
X136552404Y-105351442D01*
X136552404Y-105717788D01*
X136186058Y-105717788D01*
X135819712Y-105717788D01*
X135819712Y-105351442D01*
X135819712Y-104985096D01*
X136002885Y-104985096D01*
X136099563Y-104979484D01*
X136170929Y-104931664D01*
X136186058Y-104801923D01*
X136191670Y-104705245D01*
X136239490Y-104633879D01*
X136369231Y-104618750D01*
X136465909Y-104613138D01*
X136537275Y-104565318D01*
X136552404Y-104435577D01*
X136546793Y-104338899D01*
X136498973Y-104267533D01*
X136369231Y-104252404D01*
X136186058Y-104252404D01*
X136186058Y-103886057D01*
X136918750Y-103886057D01*
X136918750Y-104252404D01*
X136918750Y-104618750D01*
X137285096Y-104618750D01*
X137651443Y-104618750D01*
X137651443Y-104435577D01*
X137657054Y-104338899D01*
X137704874Y-104267533D01*
X137834616Y-104252404D01*
X137931294Y-104246792D01*
X138002659Y-104198972D01*
X138017789Y-104069230D01*
X138023400Y-103972552D01*
X138071220Y-103901187D01*
X138200962Y-103886057D01*
X138297640Y-103891669D01*
X138369006Y-103939489D01*
X138384135Y-104069230D01*
X138389747Y-104165908D01*
X138437567Y-104237274D01*
X138567308Y-104252404D01*
X138663986Y-104258015D01*
X138735352Y-104305835D01*
X138750481Y-104435577D01*
X138750481Y-104618750D01*
X138384135Y-104618750D01*
X138017789Y-104618750D01*
X138017789Y-104985096D01*
X138017789Y-105351442D01*
X138200962Y-105351442D01*
X138297640Y-105345830D01*
X138369006Y-105298010D01*
X138384135Y-105168269D01*
X138389747Y-105071591D01*
X138437567Y-105000225D01*
X138567308Y-104985096D01*
X138663986Y-104979484D01*
X138735352Y-104931664D01*
X138750481Y-104801923D01*
X138756093Y-104705245D01*
X138803913Y-104633879D01*
X138933654Y-104618750D01*
X139030332Y-104613138D01*
X139101698Y-104565318D01*
X139116827Y-104435577D01*
X139111216Y-104338899D01*
X139063396Y-104267533D01*
X138933654Y-104252404D01*
X138836976Y-104246792D01*
X138765610Y-104198972D01*
X138750481Y-104069230D01*
X138744870Y-103972552D01*
X138697049Y-103901187D01*
X138567308Y-103886057D01*
X138384135Y-103886057D01*
X138384135Y-103519711D01*
X138384135Y-103153365D01*
X138567308Y-103153365D01*
X138663986Y-103158977D01*
X138735352Y-103206797D01*
X138750481Y-103336538D01*
X138756093Y-103433216D01*
X138803913Y-103504582D01*
X138933654Y-103519711D01*
X139030332Y-103514100D01*
X139101698Y-103466280D01*
X139116827Y-103336538D01*
X139111216Y-103239860D01*
X139063396Y-103168494D01*
X138933654Y-103153365D01*
X138750481Y-103153365D01*
X138750481Y-102787019D01*
X138750481Y-102420673D01*
X138933654Y-102420673D01*
X139030332Y-102415061D01*
X139101698Y-102367241D01*
X139116827Y-102237500D01*
X139111216Y-102140822D01*
X139063396Y-102069456D01*
X138933654Y-102054327D01*
X138836976Y-102048715D01*
X138765610Y-102000895D01*
X138750481Y-101871154D01*
X138744870Y-101774476D01*
X138697049Y-101703110D01*
X138567308Y-101687980D01*
X138470630Y-101693592D01*
X138399264Y-101741412D01*
X138384135Y-101871154D01*
X138378523Y-101967831D01*
X138330703Y-102039197D01*
X138200962Y-102054327D01*
X138017789Y-102054327D01*
X138017789Y-102420673D01*
X138017789Y-102787019D01*
X138200962Y-102787019D01*
X138297640Y-102792630D01*
X138369006Y-102840451D01*
X138384135Y-102970192D01*
X138378523Y-103066870D01*
X138330703Y-103138236D01*
X138200962Y-103153365D01*
X138017789Y-103153365D01*
X138017789Y-103519711D01*
X138017789Y-103886057D01*
X137834616Y-103886057D01*
X137651443Y-103886057D01*
X137651443Y-103519711D01*
X137651443Y-103153365D01*
X137468270Y-103153365D01*
X137285096Y-103153365D01*
X137285096Y-103519711D01*
X137285096Y-103886057D01*
X137101923Y-103886057D01*
X136918750Y-103886057D01*
X136186058Y-103886057D01*
X136186058Y-103153365D01*
X136186058Y-102054327D01*
X136369231Y-102054327D01*
X136552404Y-102054327D01*
X136552404Y-102787019D01*
X136552404Y-103519711D01*
X136735577Y-103519711D01*
X136832255Y-103514100D01*
X136903621Y-103466280D01*
X136918750Y-103336538D01*
X136924362Y-103239860D01*
X136972182Y-103168494D01*
X137101923Y-103153365D01*
X137198601Y-103147753D01*
X137269967Y-103099933D01*
X137285096Y-102970192D01*
X137290708Y-102873514D01*
X137338528Y-102802148D01*
X137468270Y-102787019D01*
X137651443Y-102787019D01*
X137651443Y-102237500D01*
X137651443Y-101687980D01*
X138017789Y-101687980D01*
X138384135Y-101687980D01*
X138384135Y-101504807D01*
X138384135Y-101321634D01*
X138017789Y-101321634D01*
X137651443Y-101321634D01*
X137651443Y-101138461D01*
X137651443Y-100955288D01*
X138017789Y-100955288D01*
X138384135Y-100955288D01*
X138384135Y-101138461D01*
X138389747Y-101235139D01*
X138437567Y-101306505D01*
X138567308Y-101321634D01*
X138663986Y-101316023D01*
X138735352Y-101268203D01*
X138750481Y-101138461D01*
X138750481Y-100955288D01*
X139116827Y-100955288D01*
X139483173Y-100955288D01*
X139483173Y-101138461D01*
X139483173Y-101321634D01*
X139116827Y-101321634D01*
X138750481Y-101321634D01*
X138750481Y-101504807D01*
X138750481Y-101687980D01*
X139300000Y-101687980D01*
X139849520Y-101687980D01*
X139849520Y-101871154D01*
X139855131Y-101967831D01*
X139902951Y-102039197D01*
X140032693Y-102054327D01*
X140129371Y-102059938D01*
X140200736Y-102107758D01*
X140215866Y-102237500D01*
X140221477Y-102334178D01*
X140269297Y-102405543D01*
X140399039Y-102420673D01*
X140582212Y-102420673D01*
X140582212Y-102054327D01*
X140582212Y-101687980D01*
X140399039Y-101687980D01*
X140215866Y-101687980D01*
X140215866Y-101321634D01*
X140582212Y-101321634D01*
X140582212Y-101504807D01*
X140587823Y-101601485D01*
X140635644Y-101672851D01*
X140765385Y-101687980D01*
X140862063Y-101693592D01*
X140933429Y-101741412D01*
X140948558Y-101871154D01*
X140954170Y-101967831D01*
X141001990Y-102039197D01*
X141131731Y-102054327D01*
X141228409Y-102059938D01*
X141299775Y-102107758D01*
X141314904Y-102237500D01*
X141320516Y-102334178D01*
X141368336Y-102405543D01*
X141498077Y-102420673D01*
X141594755Y-102415061D01*
X141666121Y-102367241D01*
X141681250Y-102237500D01*
X141675639Y-102140822D01*
X141627819Y-102069456D01*
X141498077Y-102054327D01*
X141314904Y-102054327D01*
X141314904Y-101687980D01*
X141314904Y-101504807D01*
X141681250Y-101504807D01*
X141686862Y-101601485D01*
X141734682Y-101672851D01*
X141864423Y-101687980D01*
X141961101Y-101682369D01*
X142032467Y-101634549D01*
X142047596Y-101504807D01*
X142041985Y-101408129D01*
X141994165Y-101336764D01*
X141864423Y-101321634D01*
X141767745Y-101327246D01*
X141696380Y-101375066D01*
X141681250Y-101504807D01*
X141314904Y-101504807D01*
X141314904Y-101321634D01*
X140948558Y-101321634D01*
X140582212Y-101321634D01*
X140215866Y-101321634D01*
X140215866Y-100955288D01*
X140765385Y-100955288D01*
X141314904Y-100955288D01*
X141314904Y-101138461D01*
X141320516Y-101235139D01*
X141368336Y-101306505D01*
X141498077Y-101321634D01*
X141594755Y-101316023D01*
X141666121Y-101268203D01*
X141681250Y-101138461D01*
X141681250Y-100955288D01*
X142047596Y-100955288D01*
X142413943Y-100955288D01*
X142413943Y-101321634D01*
X142413943Y-101504807D01*
X142413943Y-101687980D01*
G37*
%TD*%
M02*
