%TF.GenerationSoftware,KiCad,Pcbnew,9.0.0*%
%TF.CreationDate,2026-02-19T11:36:58+01:00*%
%TF.ProjectId,SwitchlessMOD,53776974-6368-46c6-9573-734d4f442e6b,rev?*%
%TF.SameCoordinates,Original*%
%TF.FileFunction,Legend,Top*%
%TF.FilePolarity,Positive*%
%FSLAX46Y46*%
G04 Gerber Fmt 4.6, Leading zero omitted, Abs format (unit mm)*
G04 Created by KiCad (PCBNEW 9.0.0) date 2026-02-19 11:36:58*
%MOMM*%
%LPD*%
G01*
G04 APERTURE LIST*
%ADD10C,0.175000*%
%ADD11C,0.250000*%
%ADD12C,0.125000*%
%ADD13C,0.100000*%
%ADD14C,0.075000*%
%ADD15C,0.120000*%
G04 APERTURE END LIST*
D10*
X135948464Y-89838566D02*
X135881797Y-89805233D01*
X135881797Y-89805233D02*
X135781797Y-89805233D01*
X135781797Y-89805233D02*
X135681797Y-89838566D01*
X135681797Y-89838566D02*
X135615131Y-89905233D01*
X135615131Y-89905233D02*
X135581797Y-89971900D01*
X135581797Y-89971900D02*
X135548464Y-90105233D01*
X135548464Y-90105233D02*
X135548464Y-90205233D01*
X135548464Y-90205233D02*
X135581797Y-90338566D01*
X135581797Y-90338566D02*
X135615131Y-90405233D01*
X135615131Y-90405233D02*
X135681797Y-90471900D01*
X135681797Y-90471900D02*
X135781797Y-90505233D01*
X135781797Y-90505233D02*
X135848464Y-90505233D01*
X135848464Y-90505233D02*
X135948464Y-90471900D01*
X135948464Y-90471900D02*
X135981797Y-90438566D01*
X135981797Y-90438566D02*
X135981797Y-90205233D01*
X135981797Y-90205233D02*
X135848464Y-90205233D01*
X136248464Y-90305233D02*
X136581797Y-90305233D01*
X136181797Y-90505233D02*
X136415131Y-89805233D01*
X136415131Y-89805233D02*
X136648464Y-90505233D01*
X136881797Y-90505233D02*
X136881797Y-89805233D01*
X136881797Y-89805233D02*
X137115131Y-90305233D01*
X137115131Y-90305233D02*
X137348464Y-89805233D01*
X137348464Y-89805233D02*
X137348464Y-90505233D01*
X137681797Y-90138566D02*
X137915131Y-90138566D01*
X138015131Y-90505233D02*
X137681797Y-90505233D01*
X137681797Y-90505233D02*
X137681797Y-89805233D01*
X137681797Y-89805233D02*
X138015131Y-89805233D01*
X138715130Y-90505233D02*
X138481797Y-90171900D01*
X138315130Y-90505233D02*
X138315130Y-89805233D01*
X138315130Y-89805233D02*
X138581797Y-89805233D01*
X138581797Y-89805233D02*
X138648464Y-89838566D01*
X138648464Y-89838566D02*
X138681797Y-89871900D01*
X138681797Y-89871900D02*
X138715130Y-89938566D01*
X138715130Y-89938566D02*
X138715130Y-90038566D01*
X138715130Y-90038566D02*
X138681797Y-90105233D01*
X138681797Y-90105233D02*
X138648464Y-90138566D01*
X138648464Y-90138566D02*
X138581797Y-90171900D01*
X138581797Y-90171900D02*
X138315130Y-90171900D01*
X139915130Y-89838566D02*
X139848463Y-89805233D01*
X139848463Y-89805233D02*
X139748463Y-89805233D01*
X139748463Y-89805233D02*
X139648463Y-89838566D01*
X139648463Y-89838566D02*
X139581797Y-89905233D01*
X139581797Y-89905233D02*
X139548463Y-89971900D01*
X139548463Y-89971900D02*
X139515130Y-90105233D01*
X139515130Y-90105233D02*
X139515130Y-90205233D01*
X139515130Y-90205233D02*
X139548463Y-90338566D01*
X139548463Y-90338566D02*
X139581797Y-90405233D01*
X139581797Y-90405233D02*
X139648463Y-90471900D01*
X139648463Y-90471900D02*
X139748463Y-90505233D01*
X139748463Y-90505233D02*
X139815130Y-90505233D01*
X139815130Y-90505233D02*
X139915130Y-90471900D01*
X139915130Y-90471900D02*
X139948463Y-90438566D01*
X139948463Y-90438566D02*
X139948463Y-90205233D01*
X139948463Y-90205233D02*
X139815130Y-90205233D01*
X140215130Y-90305233D02*
X140548463Y-90305233D01*
X140148463Y-90505233D02*
X140381797Y-89805233D01*
X140381797Y-89805233D02*
X140615130Y-90505233D01*
X141248463Y-90505233D02*
X141015130Y-90171900D01*
X140848463Y-90505233D02*
X140848463Y-89805233D01*
X140848463Y-89805233D02*
X141115130Y-89805233D01*
X141115130Y-89805233D02*
X141181797Y-89838566D01*
X141181797Y-89838566D02*
X141215130Y-89871900D01*
X141215130Y-89871900D02*
X141248463Y-89938566D01*
X141248463Y-89938566D02*
X141248463Y-90038566D01*
X141248463Y-90038566D02*
X141215130Y-90105233D01*
X141215130Y-90105233D02*
X141181797Y-90138566D01*
X141181797Y-90138566D02*
X141115130Y-90171900D01*
X141115130Y-90171900D02*
X140848463Y-90171900D01*
X141515130Y-90305233D02*
X141848463Y-90305233D01*
X141448463Y-90505233D02*
X141681797Y-89805233D01*
X141681797Y-89805233D02*
X141915130Y-90505233D01*
X142515130Y-89838566D02*
X142448463Y-89805233D01*
X142448463Y-89805233D02*
X142348463Y-89805233D01*
X142348463Y-89805233D02*
X142248463Y-89838566D01*
X142248463Y-89838566D02*
X142181797Y-89905233D01*
X142181797Y-89905233D02*
X142148463Y-89971900D01*
X142148463Y-89971900D02*
X142115130Y-90105233D01*
X142115130Y-90105233D02*
X142115130Y-90205233D01*
X142115130Y-90205233D02*
X142148463Y-90338566D01*
X142148463Y-90338566D02*
X142181797Y-90405233D01*
X142181797Y-90405233D02*
X142248463Y-90471900D01*
X142248463Y-90471900D02*
X142348463Y-90505233D01*
X142348463Y-90505233D02*
X142415130Y-90505233D01*
X142415130Y-90505233D02*
X142515130Y-90471900D01*
X142515130Y-90471900D02*
X142548463Y-90438566D01*
X142548463Y-90438566D02*
X142548463Y-90205233D01*
X142548463Y-90205233D02*
X142415130Y-90205233D01*
X142848463Y-90138566D02*
X143081797Y-90138566D01*
X143181797Y-90505233D02*
X142848463Y-90505233D01*
X142848463Y-90505233D02*
X142848463Y-89805233D01*
X142848463Y-89805233D02*
X143181797Y-89805233D01*
D11*
X133854949Y-114217000D02*
X133997806Y-114264619D01*
X133997806Y-114264619D02*
X134235901Y-114264619D01*
X134235901Y-114264619D02*
X134331139Y-114217000D01*
X134331139Y-114217000D02*
X134378758Y-114169380D01*
X134378758Y-114169380D02*
X134426377Y-114074142D01*
X134426377Y-114074142D02*
X134426377Y-113978904D01*
X134426377Y-113978904D02*
X134378758Y-113883666D01*
X134378758Y-113883666D02*
X134331139Y-113836047D01*
X134331139Y-113836047D02*
X134235901Y-113788428D01*
X134235901Y-113788428D02*
X134045425Y-113740809D01*
X134045425Y-113740809D02*
X133950187Y-113693190D01*
X133950187Y-113693190D02*
X133902568Y-113645571D01*
X133902568Y-113645571D02*
X133854949Y-113550333D01*
X133854949Y-113550333D02*
X133854949Y-113455095D01*
X133854949Y-113455095D02*
X133902568Y-113359857D01*
X133902568Y-113359857D02*
X133950187Y-113312238D01*
X133950187Y-113312238D02*
X134045425Y-113264619D01*
X134045425Y-113264619D02*
X134283520Y-113264619D01*
X134283520Y-113264619D02*
X134426377Y-113312238D01*
X134759711Y-113597952D02*
X134950187Y-114264619D01*
X134950187Y-114264619D02*
X135140663Y-113788428D01*
X135140663Y-113788428D02*
X135331139Y-114264619D01*
X135331139Y-114264619D02*
X135521615Y-113597952D01*
X135902568Y-114264619D02*
X135902568Y-113597952D01*
X135902568Y-113264619D02*
X135854949Y-113312238D01*
X135854949Y-113312238D02*
X135902568Y-113359857D01*
X135902568Y-113359857D02*
X135950187Y-113312238D01*
X135950187Y-113312238D02*
X135902568Y-113264619D01*
X135902568Y-113264619D02*
X135902568Y-113359857D01*
X136235901Y-113597952D02*
X136616853Y-113597952D01*
X136378758Y-113264619D02*
X136378758Y-114121761D01*
X136378758Y-114121761D02*
X136426377Y-114217000D01*
X136426377Y-114217000D02*
X136521615Y-114264619D01*
X136521615Y-114264619D02*
X136616853Y-114264619D01*
X137378758Y-114217000D02*
X137283520Y-114264619D01*
X137283520Y-114264619D02*
X137093044Y-114264619D01*
X137093044Y-114264619D02*
X136997806Y-114217000D01*
X136997806Y-114217000D02*
X136950187Y-114169380D01*
X136950187Y-114169380D02*
X136902568Y-114074142D01*
X136902568Y-114074142D02*
X136902568Y-113788428D01*
X136902568Y-113788428D02*
X136950187Y-113693190D01*
X136950187Y-113693190D02*
X136997806Y-113645571D01*
X136997806Y-113645571D02*
X137093044Y-113597952D01*
X137093044Y-113597952D02*
X137283520Y-113597952D01*
X137283520Y-113597952D02*
X137378758Y-113645571D01*
X137807330Y-114264619D02*
X137807330Y-113264619D01*
X138235901Y-114264619D02*
X138235901Y-113740809D01*
X138235901Y-113740809D02*
X138188282Y-113645571D01*
X138188282Y-113645571D02*
X138093044Y-113597952D01*
X138093044Y-113597952D02*
X137950187Y-113597952D01*
X137950187Y-113597952D02*
X137854949Y-113645571D01*
X137854949Y-113645571D02*
X137807330Y-113693190D01*
X138854949Y-114264619D02*
X138759711Y-114217000D01*
X138759711Y-114217000D02*
X138712092Y-114121761D01*
X138712092Y-114121761D02*
X138712092Y-113264619D01*
X139616854Y-114217000D02*
X139521616Y-114264619D01*
X139521616Y-114264619D02*
X139331140Y-114264619D01*
X139331140Y-114264619D02*
X139235902Y-114217000D01*
X139235902Y-114217000D02*
X139188283Y-114121761D01*
X139188283Y-114121761D02*
X139188283Y-113740809D01*
X139188283Y-113740809D02*
X139235902Y-113645571D01*
X139235902Y-113645571D02*
X139331140Y-113597952D01*
X139331140Y-113597952D02*
X139521616Y-113597952D01*
X139521616Y-113597952D02*
X139616854Y-113645571D01*
X139616854Y-113645571D02*
X139664473Y-113740809D01*
X139664473Y-113740809D02*
X139664473Y-113836047D01*
X139664473Y-113836047D02*
X139188283Y-113931285D01*
X140045426Y-114217000D02*
X140140664Y-114264619D01*
X140140664Y-114264619D02*
X140331140Y-114264619D01*
X140331140Y-114264619D02*
X140426378Y-114217000D01*
X140426378Y-114217000D02*
X140473997Y-114121761D01*
X140473997Y-114121761D02*
X140473997Y-114074142D01*
X140473997Y-114074142D02*
X140426378Y-113978904D01*
X140426378Y-113978904D02*
X140331140Y-113931285D01*
X140331140Y-113931285D02*
X140188283Y-113931285D01*
X140188283Y-113931285D02*
X140093045Y-113883666D01*
X140093045Y-113883666D02*
X140045426Y-113788428D01*
X140045426Y-113788428D02*
X140045426Y-113740809D01*
X140045426Y-113740809D02*
X140093045Y-113645571D01*
X140093045Y-113645571D02*
X140188283Y-113597952D01*
X140188283Y-113597952D02*
X140331140Y-113597952D01*
X140331140Y-113597952D02*
X140426378Y-113645571D01*
X140854950Y-114217000D02*
X140950188Y-114264619D01*
X140950188Y-114264619D02*
X141140664Y-114264619D01*
X141140664Y-114264619D02*
X141235902Y-114217000D01*
X141235902Y-114217000D02*
X141283521Y-114121761D01*
X141283521Y-114121761D02*
X141283521Y-114074142D01*
X141283521Y-114074142D02*
X141235902Y-113978904D01*
X141235902Y-113978904D02*
X141140664Y-113931285D01*
X141140664Y-113931285D02*
X140997807Y-113931285D01*
X140997807Y-113931285D02*
X140902569Y-113883666D01*
X140902569Y-113883666D02*
X140854950Y-113788428D01*
X140854950Y-113788428D02*
X140854950Y-113740809D01*
X140854950Y-113740809D02*
X140902569Y-113645571D01*
X140902569Y-113645571D02*
X140997807Y-113597952D01*
X140997807Y-113597952D02*
X141140664Y-113597952D01*
X141140664Y-113597952D02*
X141235902Y-113645571D01*
X142473998Y-114264619D02*
X142473998Y-113264619D01*
X142473998Y-113264619D02*
X142807331Y-113978904D01*
X142807331Y-113978904D02*
X143140664Y-113264619D01*
X143140664Y-113264619D02*
X143140664Y-114264619D01*
X143807331Y-113264619D02*
X143997807Y-113264619D01*
X143997807Y-113264619D02*
X144093045Y-113312238D01*
X144093045Y-113312238D02*
X144188283Y-113407476D01*
X144188283Y-113407476D02*
X144235902Y-113597952D01*
X144235902Y-113597952D02*
X144235902Y-113931285D01*
X144235902Y-113931285D02*
X144188283Y-114121761D01*
X144188283Y-114121761D02*
X144093045Y-114217000D01*
X144093045Y-114217000D02*
X143997807Y-114264619D01*
X143997807Y-114264619D02*
X143807331Y-114264619D01*
X143807331Y-114264619D02*
X143712093Y-114217000D01*
X143712093Y-114217000D02*
X143616855Y-114121761D01*
X143616855Y-114121761D02*
X143569236Y-113931285D01*
X143569236Y-113931285D02*
X143569236Y-113597952D01*
X143569236Y-113597952D02*
X143616855Y-113407476D01*
X143616855Y-113407476D02*
X143712093Y-113312238D01*
X143712093Y-113312238D02*
X143807331Y-113264619D01*
X144664474Y-114264619D02*
X144664474Y-113264619D01*
X144664474Y-113264619D02*
X144902569Y-113264619D01*
X144902569Y-113264619D02*
X145045426Y-113312238D01*
X145045426Y-113312238D02*
X145140664Y-113407476D01*
X145140664Y-113407476D02*
X145188283Y-113502714D01*
X145188283Y-113502714D02*
X145235902Y-113693190D01*
X145235902Y-113693190D02*
X145235902Y-113836047D01*
X145235902Y-113836047D02*
X145188283Y-114026523D01*
X145188283Y-114026523D02*
X145140664Y-114121761D01*
X145140664Y-114121761D02*
X145045426Y-114217000D01*
X145045426Y-114217000D02*
X144902569Y-114264619D01*
X144902569Y-114264619D02*
X144664474Y-114264619D01*
D12*
X144632309Y-99898716D02*
X144132309Y-99898716D01*
X144132309Y-99898716D02*
X144132309Y-99708240D01*
X144132309Y-99708240D02*
X144156119Y-99660621D01*
X144156119Y-99660621D02*
X144179928Y-99636811D01*
X144179928Y-99636811D02*
X144227547Y-99613002D01*
X144227547Y-99613002D02*
X144298976Y-99613002D01*
X144298976Y-99613002D02*
X144346595Y-99636811D01*
X144346595Y-99636811D02*
X144370404Y-99660621D01*
X144370404Y-99660621D02*
X144394214Y-99708240D01*
X144394214Y-99708240D02*
X144394214Y-99898716D01*
X144156119Y-99136811D02*
X144132309Y-99184430D01*
X144132309Y-99184430D02*
X144132309Y-99255859D01*
X144132309Y-99255859D02*
X144156119Y-99327287D01*
X144156119Y-99327287D02*
X144203738Y-99374906D01*
X144203738Y-99374906D02*
X144251357Y-99398716D01*
X144251357Y-99398716D02*
X144346595Y-99422525D01*
X144346595Y-99422525D02*
X144418023Y-99422525D01*
X144418023Y-99422525D02*
X144513261Y-99398716D01*
X144513261Y-99398716D02*
X144560880Y-99374906D01*
X144560880Y-99374906D02*
X144608500Y-99327287D01*
X144608500Y-99327287D02*
X144632309Y-99255859D01*
X144632309Y-99255859D02*
X144632309Y-99208240D01*
X144632309Y-99208240D02*
X144608500Y-99136811D01*
X144608500Y-99136811D02*
X144584690Y-99113002D01*
X144584690Y-99113002D02*
X144418023Y-99113002D01*
X144418023Y-99113002D02*
X144418023Y-99208240D01*
X144584690Y-98613002D02*
X144608500Y-98636811D01*
X144608500Y-98636811D02*
X144632309Y-98708240D01*
X144632309Y-98708240D02*
X144632309Y-98755859D01*
X144632309Y-98755859D02*
X144608500Y-98827287D01*
X144608500Y-98827287D02*
X144560880Y-98874906D01*
X144560880Y-98874906D02*
X144513261Y-98898716D01*
X144513261Y-98898716D02*
X144418023Y-98922525D01*
X144418023Y-98922525D02*
X144346595Y-98922525D01*
X144346595Y-98922525D02*
X144251357Y-98898716D01*
X144251357Y-98898716D02*
X144203738Y-98874906D01*
X144203738Y-98874906D02*
X144156119Y-98827287D01*
X144156119Y-98827287D02*
X144132309Y-98755859D01*
X144132309Y-98755859D02*
X144132309Y-98708240D01*
X144132309Y-98708240D02*
X144156119Y-98636811D01*
X144156119Y-98636811D02*
X144179928Y-98613002D01*
X142132309Y-99898716D02*
X141632309Y-99898716D01*
X141632309Y-99898716D02*
X141632309Y-99708240D01*
X141632309Y-99708240D02*
X141656119Y-99660621D01*
X141656119Y-99660621D02*
X141679928Y-99636811D01*
X141679928Y-99636811D02*
X141727547Y-99613002D01*
X141727547Y-99613002D02*
X141798976Y-99613002D01*
X141798976Y-99613002D02*
X141846595Y-99636811D01*
X141846595Y-99636811D02*
X141870404Y-99660621D01*
X141870404Y-99660621D02*
X141894214Y-99708240D01*
X141894214Y-99708240D02*
X141894214Y-99898716D01*
X141656119Y-99136811D02*
X141632309Y-99184430D01*
X141632309Y-99184430D02*
X141632309Y-99255859D01*
X141632309Y-99255859D02*
X141656119Y-99327287D01*
X141656119Y-99327287D02*
X141703738Y-99374906D01*
X141703738Y-99374906D02*
X141751357Y-99398716D01*
X141751357Y-99398716D02*
X141846595Y-99422525D01*
X141846595Y-99422525D02*
X141918023Y-99422525D01*
X141918023Y-99422525D02*
X142013261Y-99398716D01*
X142013261Y-99398716D02*
X142060880Y-99374906D01*
X142060880Y-99374906D02*
X142108500Y-99327287D01*
X142108500Y-99327287D02*
X142132309Y-99255859D01*
X142132309Y-99255859D02*
X142132309Y-99208240D01*
X142132309Y-99208240D02*
X142108500Y-99136811D01*
X142108500Y-99136811D02*
X142084690Y-99113002D01*
X142084690Y-99113002D02*
X141918023Y-99113002D01*
X141918023Y-99113002D02*
X141918023Y-99208240D01*
X142132309Y-98898716D02*
X141632309Y-98898716D01*
X141632309Y-98898716D02*
X141632309Y-98779668D01*
X141632309Y-98779668D02*
X141656119Y-98708240D01*
X141656119Y-98708240D02*
X141703738Y-98660621D01*
X141703738Y-98660621D02*
X141751357Y-98636811D01*
X141751357Y-98636811D02*
X141846595Y-98613002D01*
X141846595Y-98613002D02*
X141918023Y-98613002D01*
X141918023Y-98613002D02*
X142013261Y-98636811D01*
X142013261Y-98636811D02*
X142060880Y-98660621D01*
X142060880Y-98660621D02*
X142108500Y-98708240D01*
X142108500Y-98708240D02*
X142132309Y-98779668D01*
X142132309Y-98779668D02*
X142132309Y-98898716D01*
D13*
X137384836Y-109733609D02*
X137384836Y-109233609D01*
X137384836Y-109233609D02*
X137575312Y-109233609D01*
X137575312Y-109233609D02*
X137622931Y-109257419D01*
X137622931Y-109257419D02*
X137646741Y-109281228D01*
X137646741Y-109281228D02*
X137670550Y-109328847D01*
X137670550Y-109328847D02*
X137670550Y-109400276D01*
X137670550Y-109400276D02*
X137646741Y-109447895D01*
X137646741Y-109447895D02*
X137622931Y-109471704D01*
X137622931Y-109471704D02*
X137575312Y-109495514D01*
X137575312Y-109495514D02*
X137384836Y-109495514D01*
X137884836Y-109733609D02*
X137884836Y-109233609D01*
X138408645Y-109685990D02*
X138384836Y-109709800D01*
X138384836Y-109709800D02*
X138313407Y-109733609D01*
X138313407Y-109733609D02*
X138265788Y-109733609D01*
X138265788Y-109733609D02*
X138194360Y-109709800D01*
X138194360Y-109709800D02*
X138146741Y-109662180D01*
X138146741Y-109662180D02*
X138122931Y-109614561D01*
X138122931Y-109614561D02*
X138099122Y-109519323D01*
X138099122Y-109519323D02*
X138099122Y-109447895D01*
X138099122Y-109447895D02*
X138122931Y-109352657D01*
X138122931Y-109352657D02*
X138146741Y-109305038D01*
X138146741Y-109305038D02*
X138194360Y-109257419D01*
X138194360Y-109257419D02*
X138265788Y-109233609D01*
X138265788Y-109233609D02*
X138313407Y-109233609D01*
X138313407Y-109233609D02*
X138384836Y-109257419D01*
X138384836Y-109257419D02*
X138408645Y-109281228D01*
X138884836Y-109733609D02*
X138599122Y-109733609D01*
X138741979Y-109733609D02*
X138741979Y-109233609D01*
X138741979Y-109233609D02*
X138694360Y-109305038D01*
X138694360Y-109305038D02*
X138646741Y-109352657D01*
X138646741Y-109352657D02*
X138599122Y-109376466D01*
X139313407Y-109233609D02*
X139218169Y-109233609D01*
X139218169Y-109233609D02*
X139170550Y-109257419D01*
X139170550Y-109257419D02*
X139146740Y-109281228D01*
X139146740Y-109281228D02*
X139099121Y-109352657D01*
X139099121Y-109352657D02*
X139075312Y-109447895D01*
X139075312Y-109447895D02*
X139075312Y-109638371D01*
X139075312Y-109638371D02*
X139099121Y-109685990D01*
X139099121Y-109685990D02*
X139122931Y-109709800D01*
X139122931Y-109709800D02*
X139170550Y-109733609D01*
X139170550Y-109733609D02*
X139265788Y-109733609D01*
X139265788Y-109733609D02*
X139313407Y-109709800D01*
X139313407Y-109709800D02*
X139337216Y-109685990D01*
X139337216Y-109685990D02*
X139361026Y-109638371D01*
X139361026Y-109638371D02*
X139361026Y-109519323D01*
X139361026Y-109519323D02*
X139337216Y-109471704D01*
X139337216Y-109471704D02*
X139313407Y-109447895D01*
X139313407Y-109447895D02*
X139265788Y-109424085D01*
X139265788Y-109424085D02*
X139170550Y-109424085D01*
X139170550Y-109424085D02*
X139122931Y-109447895D01*
X139122931Y-109447895D02*
X139099121Y-109471704D01*
X139099121Y-109471704D02*
X139075312Y-109519323D01*
X139741978Y-109471704D02*
X139575311Y-109471704D01*
X139575311Y-109733609D02*
X139575311Y-109233609D01*
X139575311Y-109233609D02*
X139813406Y-109233609D01*
X140218168Y-109233609D02*
X140122930Y-109233609D01*
X140122930Y-109233609D02*
X140075311Y-109257419D01*
X140075311Y-109257419D02*
X140051501Y-109281228D01*
X140051501Y-109281228D02*
X140003882Y-109352657D01*
X140003882Y-109352657D02*
X139980073Y-109447895D01*
X139980073Y-109447895D02*
X139980073Y-109638371D01*
X139980073Y-109638371D02*
X140003882Y-109685990D01*
X140003882Y-109685990D02*
X140027692Y-109709800D01*
X140027692Y-109709800D02*
X140075311Y-109733609D01*
X140075311Y-109733609D02*
X140170549Y-109733609D01*
X140170549Y-109733609D02*
X140218168Y-109709800D01*
X140218168Y-109709800D02*
X140241977Y-109685990D01*
X140241977Y-109685990D02*
X140265787Y-109638371D01*
X140265787Y-109638371D02*
X140265787Y-109519323D01*
X140265787Y-109519323D02*
X140241977Y-109471704D01*
X140241977Y-109471704D02*
X140218168Y-109447895D01*
X140218168Y-109447895D02*
X140170549Y-109424085D01*
X140170549Y-109424085D02*
X140075311Y-109424085D01*
X140075311Y-109424085D02*
X140027692Y-109447895D01*
X140027692Y-109447895D02*
X140003882Y-109471704D01*
X140003882Y-109471704D02*
X139980073Y-109519323D01*
X140551501Y-109447895D02*
X140503882Y-109424085D01*
X140503882Y-109424085D02*
X140480072Y-109400276D01*
X140480072Y-109400276D02*
X140456263Y-109352657D01*
X140456263Y-109352657D02*
X140456263Y-109328847D01*
X140456263Y-109328847D02*
X140480072Y-109281228D01*
X140480072Y-109281228D02*
X140503882Y-109257419D01*
X140503882Y-109257419D02*
X140551501Y-109233609D01*
X140551501Y-109233609D02*
X140646739Y-109233609D01*
X140646739Y-109233609D02*
X140694358Y-109257419D01*
X140694358Y-109257419D02*
X140718167Y-109281228D01*
X140718167Y-109281228D02*
X140741977Y-109328847D01*
X140741977Y-109328847D02*
X140741977Y-109352657D01*
X140741977Y-109352657D02*
X140718167Y-109400276D01*
X140718167Y-109400276D02*
X140694358Y-109424085D01*
X140694358Y-109424085D02*
X140646739Y-109447895D01*
X140646739Y-109447895D02*
X140551501Y-109447895D01*
X140551501Y-109447895D02*
X140503882Y-109471704D01*
X140503882Y-109471704D02*
X140480072Y-109495514D01*
X140480072Y-109495514D02*
X140456263Y-109543133D01*
X140456263Y-109543133D02*
X140456263Y-109638371D01*
X140456263Y-109638371D02*
X140480072Y-109685990D01*
X140480072Y-109685990D02*
X140503882Y-109709800D01*
X140503882Y-109709800D02*
X140551501Y-109733609D01*
X140551501Y-109733609D02*
X140646739Y-109733609D01*
X140646739Y-109733609D02*
X140694358Y-109709800D01*
X140694358Y-109709800D02*
X140718167Y-109685990D01*
X140718167Y-109685990D02*
X140741977Y-109638371D01*
X140741977Y-109638371D02*
X140741977Y-109543133D01*
X140741977Y-109543133D02*
X140718167Y-109495514D01*
X140718167Y-109495514D02*
X140694358Y-109471704D01*
X140694358Y-109471704D02*
X140646739Y-109447895D01*
X141170548Y-109400276D02*
X141170548Y-109733609D01*
X141051500Y-109209800D02*
X140932453Y-109566942D01*
X140932453Y-109566942D02*
X141241976Y-109566942D01*
X141741976Y-109233609D02*
X142027690Y-109233609D01*
X141884833Y-109733609D02*
X141884833Y-109233609D01*
X142170547Y-109709800D02*
X142241975Y-109733609D01*
X142241975Y-109733609D02*
X142361023Y-109733609D01*
X142361023Y-109733609D02*
X142408642Y-109709800D01*
X142408642Y-109709800D02*
X142432451Y-109685990D01*
X142432451Y-109685990D02*
X142456261Y-109638371D01*
X142456261Y-109638371D02*
X142456261Y-109590752D01*
X142456261Y-109590752D02*
X142432451Y-109543133D01*
X142432451Y-109543133D02*
X142408642Y-109519323D01*
X142408642Y-109519323D02*
X142361023Y-109495514D01*
X142361023Y-109495514D02*
X142265785Y-109471704D01*
X142265785Y-109471704D02*
X142218166Y-109447895D01*
X142218166Y-109447895D02*
X142194356Y-109424085D01*
X142194356Y-109424085D02*
X142170547Y-109376466D01*
X142170547Y-109376466D02*
X142170547Y-109328847D01*
X142170547Y-109328847D02*
X142194356Y-109281228D01*
X142194356Y-109281228D02*
X142218166Y-109257419D01*
X142218166Y-109257419D02*
X142265785Y-109233609D01*
X142265785Y-109233609D02*
X142384832Y-109233609D01*
X142384832Y-109233609D02*
X142456261Y-109257419D01*
X142646737Y-109709800D02*
X142718165Y-109733609D01*
X142718165Y-109733609D02*
X142837213Y-109733609D01*
X142837213Y-109733609D02*
X142884832Y-109709800D01*
X142884832Y-109709800D02*
X142908641Y-109685990D01*
X142908641Y-109685990D02*
X142932451Y-109638371D01*
X142932451Y-109638371D02*
X142932451Y-109590752D01*
X142932451Y-109590752D02*
X142908641Y-109543133D01*
X142908641Y-109543133D02*
X142884832Y-109519323D01*
X142884832Y-109519323D02*
X142837213Y-109495514D01*
X142837213Y-109495514D02*
X142741975Y-109471704D01*
X142741975Y-109471704D02*
X142694356Y-109447895D01*
X142694356Y-109447895D02*
X142670546Y-109424085D01*
X142670546Y-109424085D02*
X142646737Y-109376466D01*
X142646737Y-109376466D02*
X142646737Y-109328847D01*
X142646737Y-109328847D02*
X142670546Y-109281228D01*
X142670546Y-109281228D02*
X142694356Y-109257419D01*
X142694356Y-109257419D02*
X142741975Y-109233609D01*
X142741975Y-109233609D02*
X142861022Y-109233609D01*
X142861022Y-109233609D02*
X142932451Y-109257419D01*
X143241974Y-109233609D02*
X143337212Y-109233609D01*
X143337212Y-109233609D02*
X143384831Y-109257419D01*
X143384831Y-109257419D02*
X143432450Y-109305038D01*
X143432450Y-109305038D02*
X143456260Y-109400276D01*
X143456260Y-109400276D02*
X143456260Y-109566942D01*
X143456260Y-109566942D02*
X143432450Y-109662180D01*
X143432450Y-109662180D02*
X143384831Y-109709800D01*
X143384831Y-109709800D02*
X143337212Y-109733609D01*
X143337212Y-109733609D02*
X143241974Y-109733609D01*
X143241974Y-109733609D02*
X143194355Y-109709800D01*
X143194355Y-109709800D02*
X143146736Y-109662180D01*
X143146736Y-109662180D02*
X143122927Y-109566942D01*
X143122927Y-109566942D02*
X143122927Y-109400276D01*
X143122927Y-109400276D02*
X143146736Y-109305038D01*
X143146736Y-109305038D02*
X143194355Y-109257419D01*
X143194355Y-109257419D02*
X143241974Y-109233609D01*
X143670546Y-109733609D02*
X143670546Y-109233609D01*
X143670546Y-109233609D02*
X143861022Y-109233609D01*
X143861022Y-109233609D02*
X143908641Y-109257419D01*
X143908641Y-109257419D02*
X143932451Y-109281228D01*
X143932451Y-109281228D02*
X143956260Y-109328847D01*
X143956260Y-109328847D02*
X143956260Y-109400276D01*
X143956260Y-109400276D02*
X143932451Y-109447895D01*
X143932451Y-109447895D02*
X143908641Y-109471704D01*
X143908641Y-109471704D02*
X143861022Y-109495514D01*
X143861022Y-109495514D02*
X143670546Y-109495514D01*
X144432451Y-109733609D02*
X144146737Y-109733609D01*
X144289594Y-109733609D02*
X144289594Y-109233609D01*
X144289594Y-109233609D02*
X144241975Y-109305038D01*
X144241975Y-109305038D02*
X144194356Y-109352657D01*
X144194356Y-109352657D02*
X144146737Y-109376466D01*
X144861022Y-109400276D02*
X144861022Y-109733609D01*
X144741974Y-109209800D02*
X144622927Y-109566942D01*
X144622927Y-109566942D02*
X144932450Y-109566942D01*
D12*
X134532309Y-100398716D02*
X134032309Y-100398716D01*
X134032309Y-100398716D02*
X134389452Y-100232049D01*
X134389452Y-100232049D02*
X134032309Y-100065383D01*
X134032309Y-100065383D02*
X134532309Y-100065383D01*
X134484690Y-99541573D02*
X134508500Y-99565382D01*
X134508500Y-99565382D02*
X134532309Y-99636811D01*
X134532309Y-99636811D02*
X134532309Y-99684430D01*
X134532309Y-99684430D02*
X134508500Y-99755858D01*
X134508500Y-99755858D02*
X134460880Y-99803477D01*
X134460880Y-99803477D02*
X134413261Y-99827287D01*
X134413261Y-99827287D02*
X134318023Y-99851096D01*
X134318023Y-99851096D02*
X134246595Y-99851096D01*
X134246595Y-99851096D02*
X134151357Y-99827287D01*
X134151357Y-99827287D02*
X134103738Y-99803477D01*
X134103738Y-99803477D02*
X134056119Y-99755858D01*
X134056119Y-99755858D02*
X134032309Y-99684430D01*
X134032309Y-99684430D02*
X134032309Y-99636811D01*
X134032309Y-99636811D02*
X134056119Y-99565382D01*
X134056119Y-99565382D02*
X134079928Y-99541573D01*
X134532309Y-99089192D02*
X134532309Y-99327287D01*
X134532309Y-99327287D02*
X134032309Y-99327287D01*
X134532309Y-98636811D02*
X134294214Y-98803477D01*
X134532309Y-98922525D02*
X134032309Y-98922525D01*
X134032309Y-98922525D02*
X134032309Y-98732049D01*
X134032309Y-98732049D02*
X134056119Y-98684430D01*
X134056119Y-98684430D02*
X134079928Y-98660620D01*
X134079928Y-98660620D02*
X134127547Y-98636811D01*
X134127547Y-98636811D02*
X134198976Y-98636811D01*
X134198976Y-98636811D02*
X134246595Y-98660620D01*
X134246595Y-98660620D02*
X134270404Y-98684430D01*
X134270404Y-98684430D02*
X134294214Y-98732049D01*
X134294214Y-98732049D02*
X134294214Y-98922525D01*
D14*
X149592199Y-105159385D02*
X149492199Y-105016528D01*
X149420770Y-105159385D02*
X149420770Y-104859385D01*
X149420770Y-104859385D02*
X149535056Y-104859385D01*
X149535056Y-104859385D02*
X149563627Y-104873671D01*
X149563627Y-104873671D02*
X149577913Y-104887957D01*
X149577913Y-104887957D02*
X149592199Y-104916528D01*
X149592199Y-104916528D02*
X149592199Y-104959385D01*
X149592199Y-104959385D02*
X149577913Y-104987957D01*
X149577913Y-104987957D02*
X149563627Y-105002242D01*
X149563627Y-105002242D02*
X149535056Y-105016528D01*
X149535056Y-105016528D02*
X149420770Y-105016528D01*
X149892199Y-105130814D02*
X149877913Y-105145100D01*
X149877913Y-105145100D02*
X149835056Y-105159385D01*
X149835056Y-105159385D02*
X149806484Y-105159385D01*
X149806484Y-105159385D02*
X149763627Y-105145100D01*
X149763627Y-105145100D02*
X149735056Y-105116528D01*
X149735056Y-105116528D02*
X149720770Y-105087957D01*
X149720770Y-105087957D02*
X149706484Y-105030814D01*
X149706484Y-105030814D02*
X149706484Y-104987957D01*
X149706484Y-104987957D02*
X149720770Y-104930814D01*
X149720770Y-104930814D02*
X149735056Y-104902242D01*
X149735056Y-104902242D02*
X149763627Y-104873671D01*
X149763627Y-104873671D02*
X149806484Y-104859385D01*
X149806484Y-104859385D02*
X149835056Y-104859385D01*
X149835056Y-104859385D02*
X149877913Y-104873671D01*
X149877913Y-104873671D02*
X149892199Y-104887957D01*
X150077913Y-104859385D02*
X150106484Y-104859385D01*
X150106484Y-104859385D02*
X150135056Y-104873671D01*
X150135056Y-104873671D02*
X150149342Y-104887957D01*
X150149342Y-104887957D02*
X150163627Y-104916528D01*
X150163627Y-104916528D02*
X150177913Y-104973671D01*
X150177913Y-104973671D02*
X150177913Y-105045100D01*
X150177913Y-105045100D02*
X150163627Y-105102242D01*
X150163627Y-105102242D02*
X150149342Y-105130814D01*
X150149342Y-105130814D02*
X150135056Y-105145100D01*
X150135056Y-105145100D02*
X150106484Y-105159385D01*
X150106484Y-105159385D02*
X150077913Y-105159385D01*
X150077913Y-105159385D02*
X150049342Y-105145100D01*
X150049342Y-105145100D02*
X150035056Y-105130814D01*
X150035056Y-105130814D02*
X150020770Y-105102242D01*
X150020770Y-105102242D02*
X150006484Y-105045100D01*
X150006484Y-105045100D02*
X150006484Y-104973671D01*
X150006484Y-104973671D02*
X150020770Y-104916528D01*
X150020770Y-104916528D02*
X150035056Y-104887957D01*
X150035056Y-104887957D02*
X150049342Y-104873671D01*
X150049342Y-104873671D02*
X150077913Y-104859385D01*
D12*
X139056119Y-99636811D02*
X139032309Y-99684430D01*
X139032309Y-99684430D02*
X139032309Y-99755859D01*
X139032309Y-99755859D02*
X139056119Y-99827287D01*
X139056119Y-99827287D02*
X139103738Y-99874906D01*
X139103738Y-99874906D02*
X139151357Y-99898716D01*
X139151357Y-99898716D02*
X139246595Y-99922525D01*
X139246595Y-99922525D02*
X139318023Y-99922525D01*
X139318023Y-99922525D02*
X139413261Y-99898716D01*
X139413261Y-99898716D02*
X139460880Y-99874906D01*
X139460880Y-99874906D02*
X139508500Y-99827287D01*
X139508500Y-99827287D02*
X139532309Y-99755859D01*
X139532309Y-99755859D02*
X139532309Y-99708240D01*
X139532309Y-99708240D02*
X139508500Y-99636811D01*
X139508500Y-99636811D02*
X139484690Y-99613002D01*
X139484690Y-99613002D02*
X139318023Y-99613002D01*
X139318023Y-99613002D02*
X139318023Y-99708240D01*
X139532309Y-99398716D02*
X139032309Y-99398716D01*
X139032309Y-99398716D02*
X139532309Y-99113002D01*
X139532309Y-99113002D02*
X139032309Y-99113002D01*
X139532309Y-98874906D02*
X139032309Y-98874906D01*
X139032309Y-98874906D02*
X139032309Y-98755858D01*
X139032309Y-98755858D02*
X139056119Y-98684430D01*
X139056119Y-98684430D02*
X139103738Y-98636811D01*
X139103738Y-98636811D02*
X139151357Y-98613001D01*
X139151357Y-98613001D02*
X139246595Y-98589192D01*
X139246595Y-98589192D02*
X139318023Y-98589192D01*
X139318023Y-98589192D02*
X139413261Y-98613001D01*
X139413261Y-98613001D02*
X139460880Y-98636811D01*
X139460880Y-98636811D02*
X139508500Y-98684430D01*
X139508500Y-98684430D02*
X139532309Y-98755858D01*
X139532309Y-98755858D02*
X139532309Y-98874906D01*
X136532309Y-99870144D02*
X137032309Y-99703478D01*
X137032309Y-99703478D02*
X136532309Y-99536811D01*
X137032309Y-99370145D02*
X136532309Y-99370145D01*
X136532309Y-99370145D02*
X136532309Y-99251097D01*
X136532309Y-99251097D02*
X136556119Y-99179669D01*
X136556119Y-99179669D02*
X136603738Y-99132050D01*
X136603738Y-99132050D02*
X136651357Y-99108240D01*
X136651357Y-99108240D02*
X136746595Y-99084431D01*
X136746595Y-99084431D02*
X136818023Y-99084431D01*
X136818023Y-99084431D02*
X136913261Y-99108240D01*
X136913261Y-99108240D02*
X136960880Y-99132050D01*
X136960880Y-99132050D02*
X137008500Y-99179669D01*
X137008500Y-99179669D02*
X137032309Y-99251097D01*
X137032309Y-99251097D02*
X137032309Y-99370145D01*
X137032309Y-98870145D02*
X136532309Y-98870145D01*
X136532309Y-98870145D02*
X136532309Y-98751097D01*
X136532309Y-98751097D02*
X136556119Y-98679669D01*
X136556119Y-98679669D02*
X136603738Y-98632050D01*
X136603738Y-98632050D02*
X136651357Y-98608240D01*
X136651357Y-98608240D02*
X136746595Y-98584431D01*
X136746595Y-98584431D02*
X136818023Y-98584431D01*
X136818023Y-98584431D02*
X136913261Y-98608240D01*
X136913261Y-98608240D02*
X136960880Y-98632050D01*
X136960880Y-98632050D02*
X137008500Y-98679669D01*
X137008500Y-98679669D02*
X137032309Y-98751097D01*
X137032309Y-98751097D02*
X137032309Y-98870145D01*
D14*
X149592199Y-101659385D02*
X149492199Y-101516528D01*
X149420770Y-101659385D02*
X149420770Y-101359385D01*
X149420770Y-101359385D02*
X149535056Y-101359385D01*
X149535056Y-101359385D02*
X149563627Y-101373671D01*
X149563627Y-101373671D02*
X149577913Y-101387957D01*
X149577913Y-101387957D02*
X149592199Y-101416528D01*
X149592199Y-101416528D02*
X149592199Y-101459385D01*
X149592199Y-101459385D02*
X149577913Y-101487957D01*
X149577913Y-101487957D02*
X149563627Y-101502242D01*
X149563627Y-101502242D02*
X149535056Y-101516528D01*
X149535056Y-101516528D02*
X149420770Y-101516528D01*
X149706484Y-101573671D02*
X149849342Y-101573671D01*
X149677913Y-101659385D02*
X149777913Y-101359385D01*
X149777913Y-101359385D02*
X149877913Y-101659385D01*
X149963627Y-101387957D02*
X149977913Y-101373671D01*
X149977913Y-101373671D02*
X150006485Y-101359385D01*
X150006485Y-101359385D02*
X150077913Y-101359385D01*
X150077913Y-101359385D02*
X150106485Y-101373671D01*
X150106485Y-101373671D02*
X150120770Y-101387957D01*
X150120770Y-101387957D02*
X150135056Y-101416528D01*
X150135056Y-101416528D02*
X150135056Y-101445100D01*
X150135056Y-101445100D02*
X150120770Y-101487957D01*
X150120770Y-101487957D02*
X149949342Y-101659385D01*
X149949342Y-101659385D02*
X150135056Y-101659385D01*
D12*
X129754761Y-105974809D02*
X129588095Y-105736714D01*
X129469047Y-105974809D02*
X129469047Y-105474809D01*
X129469047Y-105474809D02*
X129659523Y-105474809D01*
X129659523Y-105474809D02*
X129707142Y-105498619D01*
X129707142Y-105498619D02*
X129730952Y-105522428D01*
X129730952Y-105522428D02*
X129754761Y-105570047D01*
X129754761Y-105570047D02*
X129754761Y-105641476D01*
X129754761Y-105641476D02*
X129730952Y-105689095D01*
X129730952Y-105689095D02*
X129707142Y-105712904D01*
X129707142Y-105712904D02*
X129659523Y-105736714D01*
X129659523Y-105736714D02*
X129469047Y-105736714D01*
X130254761Y-105927190D02*
X130230952Y-105951000D01*
X130230952Y-105951000D02*
X130159523Y-105974809D01*
X130159523Y-105974809D02*
X130111904Y-105974809D01*
X130111904Y-105974809D02*
X130040476Y-105951000D01*
X130040476Y-105951000D02*
X129992857Y-105903380D01*
X129992857Y-105903380D02*
X129969047Y-105855761D01*
X129969047Y-105855761D02*
X129945238Y-105760523D01*
X129945238Y-105760523D02*
X129945238Y-105689095D01*
X129945238Y-105689095D02*
X129969047Y-105593857D01*
X129969047Y-105593857D02*
X129992857Y-105546238D01*
X129992857Y-105546238D02*
X130040476Y-105498619D01*
X130040476Y-105498619D02*
X130111904Y-105474809D01*
X130111904Y-105474809D02*
X130159523Y-105474809D01*
X130159523Y-105474809D02*
X130230952Y-105498619D01*
X130230952Y-105498619D02*
X130254761Y-105522428D01*
X130683333Y-105641476D02*
X130683333Y-105974809D01*
X130564285Y-105451000D02*
X130445238Y-105808142D01*
X130445238Y-105808142D02*
X130754761Y-105808142D01*
X131302380Y-105451000D02*
X130873809Y-106093857D01*
X131730952Y-105498619D02*
X131683333Y-105474809D01*
X131683333Y-105474809D02*
X131611904Y-105474809D01*
X131611904Y-105474809D02*
X131540476Y-105498619D01*
X131540476Y-105498619D02*
X131492857Y-105546238D01*
X131492857Y-105546238D02*
X131469047Y-105593857D01*
X131469047Y-105593857D02*
X131445238Y-105689095D01*
X131445238Y-105689095D02*
X131445238Y-105760523D01*
X131445238Y-105760523D02*
X131469047Y-105855761D01*
X131469047Y-105855761D02*
X131492857Y-105903380D01*
X131492857Y-105903380D02*
X131540476Y-105951000D01*
X131540476Y-105951000D02*
X131611904Y-105974809D01*
X131611904Y-105974809D02*
X131659523Y-105974809D01*
X131659523Y-105974809D02*
X131730952Y-105951000D01*
X131730952Y-105951000D02*
X131754761Y-105927190D01*
X131754761Y-105927190D02*
X131754761Y-105760523D01*
X131754761Y-105760523D02*
X131659523Y-105760523D01*
X140916666Y-100977190D02*
X140892857Y-101001000D01*
X140892857Y-101001000D02*
X140821428Y-101024809D01*
X140821428Y-101024809D02*
X140773809Y-101024809D01*
X140773809Y-101024809D02*
X140702381Y-101001000D01*
X140702381Y-101001000D02*
X140654762Y-100953380D01*
X140654762Y-100953380D02*
X140630952Y-100905761D01*
X140630952Y-100905761D02*
X140607143Y-100810523D01*
X140607143Y-100810523D02*
X140607143Y-100739095D01*
X140607143Y-100739095D02*
X140630952Y-100643857D01*
X140630952Y-100643857D02*
X140654762Y-100596238D01*
X140654762Y-100596238D02*
X140702381Y-100548619D01*
X140702381Y-100548619D02*
X140773809Y-100524809D01*
X140773809Y-100524809D02*
X140821428Y-100524809D01*
X140821428Y-100524809D02*
X140892857Y-100548619D01*
X140892857Y-100548619D02*
X140916666Y-100572428D01*
X141107143Y-100572428D02*
X141130952Y-100548619D01*
X141130952Y-100548619D02*
X141178571Y-100524809D01*
X141178571Y-100524809D02*
X141297619Y-100524809D01*
X141297619Y-100524809D02*
X141345238Y-100548619D01*
X141345238Y-100548619D02*
X141369047Y-100572428D01*
X141369047Y-100572428D02*
X141392857Y-100620047D01*
X141392857Y-100620047D02*
X141392857Y-100667666D01*
X141392857Y-100667666D02*
X141369047Y-100739095D01*
X141369047Y-100739095D02*
X141083333Y-101024809D01*
X141083333Y-101024809D02*
X141392857Y-101024809D01*
X141409047Y-112048619D02*
X141361428Y-112024809D01*
X141361428Y-112024809D02*
X141289999Y-112024809D01*
X141289999Y-112024809D02*
X141218571Y-112048619D01*
X141218571Y-112048619D02*
X141170952Y-112096238D01*
X141170952Y-112096238D02*
X141147142Y-112143857D01*
X141147142Y-112143857D02*
X141123333Y-112239095D01*
X141123333Y-112239095D02*
X141123333Y-112310523D01*
X141123333Y-112310523D02*
X141147142Y-112405761D01*
X141147142Y-112405761D02*
X141170952Y-112453380D01*
X141170952Y-112453380D02*
X141218571Y-112501000D01*
X141218571Y-112501000D02*
X141289999Y-112524809D01*
X141289999Y-112524809D02*
X141337618Y-112524809D01*
X141337618Y-112524809D02*
X141409047Y-112501000D01*
X141409047Y-112501000D02*
X141432856Y-112477190D01*
X141432856Y-112477190D02*
X141432856Y-112310523D01*
X141432856Y-112310523D02*
X141337618Y-112310523D01*
X141647142Y-112524809D02*
X141647142Y-112024809D01*
X141647142Y-112024809D02*
X141932856Y-112524809D01*
X141932856Y-112524809D02*
X141932856Y-112024809D01*
X142170952Y-112524809D02*
X142170952Y-112024809D01*
X142170952Y-112024809D02*
X142290000Y-112024809D01*
X142290000Y-112024809D02*
X142361428Y-112048619D01*
X142361428Y-112048619D02*
X142409047Y-112096238D01*
X142409047Y-112096238D02*
X142432857Y-112143857D01*
X142432857Y-112143857D02*
X142456666Y-112239095D01*
X142456666Y-112239095D02*
X142456666Y-112310523D01*
X142456666Y-112310523D02*
X142432857Y-112405761D01*
X142432857Y-112405761D02*
X142409047Y-112453380D01*
X142409047Y-112453380D02*
X142361428Y-112501000D01*
X142361428Y-112501000D02*
X142290000Y-112524809D01*
X142290000Y-112524809D02*
X142170952Y-112524809D01*
X129302381Y-95474809D02*
X129135715Y-95236714D01*
X129016667Y-95474809D02*
X129016667Y-94974809D01*
X129016667Y-94974809D02*
X129207143Y-94974809D01*
X129207143Y-94974809D02*
X129254762Y-94998619D01*
X129254762Y-94998619D02*
X129278572Y-95022428D01*
X129278572Y-95022428D02*
X129302381Y-95070047D01*
X129302381Y-95070047D02*
X129302381Y-95141476D01*
X129302381Y-95141476D02*
X129278572Y-95189095D01*
X129278572Y-95189095D02*
X129254762Y-95212904D01*
X129254762Y-95212904D02*
X129207143Y-95236714D01*
X129207143Y-95236714D02*
X129016667Y-95236714D01*
X129516667Y-95212904D02*
X129683334Y-95212904D01*
X129754762Y-95474809D02*
X129516667Y-95474809D01*
X129516667Y-95474809D02*
X129516667Y-94974809D01*
X129516667Y-94974809D02*
X129754762Y-94974809D01*
X129945239Y-95451000D02*
X130016667Y-95474809D01*
X130016667Y-95474809D02*
X130135715Y-95474809D01*
X130135715Y-95474809D02*
X130183334Y-95451000D01*
X130183334Y-95451000D02*
X130207143Y-95427190D01*
X130207143Y-95427190D02*
X130230953Y-95379571D01*
X130230953Y-95379571D02*
X130230953Y-95331952D01*
X130230953Y-95331952D02*
X130207143Y-95284333D01*
X130207143Y-95284333D02*
X130183334Y-95260523D01*
X130183334Y-95260523D02*
X130135715Y-95236714D01*
X130135715Y-95236714D02*
X130040477Y-95212904D01*
X130040477Y-95212904D02*
X129992858Y-95189095D01*
X129992858Y-95189095D02*
X129969048Y-95165285D01*
X129969048Y-95165285D02*
X129945239Y-95117666D01*
X129945239Y-95117666D02*
X129945239Y-95070047D01*
X129945239Y-95070047D02*
X129969048Y-95022428D01*
X129969048Y-95022428D02*
X129992858Y-94998619D01*
X129992858Y-94998619D02*
X130040477Y-94974809D01*
X130040477Y-94974809D02*
X130159524Y-94974809D01*
X130159524Y-94974809D02*
X130230953Y-94998619D01*
X130445238Y-95212904D02*
X130611905Y-95212904D01*
X130683333Y-95474809D02*
X130445238Y-95474809D01*
X130445238Y-95474809D02*
X130445238Y-94974809D01*
X130445238Y-94974809D02*
X130683333Y-94974809D01*
X130826191Y-94974809D02*
X131111905Y-94974809D01*
X130969048Y-95474809D02*
X130969048Y-94974809D01*
X131659523Y-95474809D02*
X131659523Y-94974809D01*
X131897618Y-95474809D02*
X131897618Y-94974809D01*
X131897618Y-94974809D02*
X132183332Y-95474809D01*
X132183332Y-95474809D02*
X132183332Y-94974809D01*
X129754761Y-109474809D02*
X129588095Y-109236714D01*
X129469047Y-109474809D02*
X129469047Y-108974809D01*
X129469047Y-108974809D02*
X129659523Y-108974809D01*
X129659523Y-108974809D02*
X129707142Y-108998619D01*
X129707142Y-108998619D02*
X129730952Y-109022428D01*
X129730952Y-109022428D02*
X129754761Y-109070047D01*
X129754761Y-109070047D02*
X129754761Y-109141476D01*
X129754761Y-109141476D02*
X129730952Y-109189095D01*
X129730952Y-109189095D02*
X129707142Y-109212904D01*
X129707142Y-109212904D02*
X129659523Y-109236714D01*
X129659523Y-109236714D02*
X129469047Y-109236714D01*
X130254761Y-109427190D02*
X130230952Y-109451000D01*
X130230952Y-109451000D02*
X130159523Y-109474809D01*
X130159523Y-109474809D02*
X130111904Y-109474809D01*
X130111904Y-109474809D02*
X130040476Y-109451000D01*
X130040476Y-109451000D02*
X129992857Y-109403380D01*
X129992857Y-109403380D02*
X129969047Y-109355761D01*
X129969047Y-109355761D02*
X129945238Y-109260523D01*
X129945238Y-109260523D02*
X129945238Y-109189095D01*
X129945238Y-109189095D02*
X129969047Y-109093857D01*
X129969047Y-109093857D02*
X129992857Y-109046238D01*
X129992857Y-109046238D02*
X130040476Y-108998619D01*
X130040476Y-108998619D02*
X130111904Y-108974809D01*
X130111904Y-108974809D02*
X130159523Y-108974809D01*
X130159523Y-108974809D02*
X130230952Y-108998619D01*
X130230952Y-108998619D02*
X130254761Y-109022428D01*
X130421428Y-108974809D02*
X130730952Y-108974809D01*
X130730952Y-108974809D02*
X130564285Y-109165285D01*
X130564285Y-109165285D02*
X130635714Y-109165285D01*
X130635714Y-109165285D02*
X130683333Y-109189095D01*
X130683333Y-109189095D02*
X130707142Y-109212904D01*
X130707142Y-109212904D02*
X130730952Y-109260523D01*
X130730952Y-109260523D02*
X130730952Y-109379571D01*
X130730952Y-109379571D02*
X130707142Y-109427190D01*
X130707142Y-109427190D02*
X130683333Y-109451000D01*
X130683333Y-109451000D02*
X130635714Y-109474809D01*
X130635714Y-109474809D02*
X130492857Y-109474809D01*
X130492857Y-109474809D02*
X130445238Y-109451000D01*
X130445238Y-109451000D02*
X130421428Y-109427190D01*
X131302380Y-108951000D02*
X130873809Y-109593857D01*
X131754761Y-109474809D02*
X131588095Y-109236714D01*
X131469047Y-109474809D02*
X131469047Y-108974809D01*
X131469047Y-108974809D02*
X131659523Y-108974809D01*
X131659523Y-108974809D02*
X131707142Y-108998619D01*
X131707142Y-108998619D02*
X131730952Y-109022428D01*
X131730952Y-109022428D02*
X131754761Y-109070047D01*
X131754761Y-109070047D02*
X131754761Y-109141476D01*
X131754761Y-109141476D02*
X131730952Y-109189095D01*
X131730952Y-109189095D02*
X131707142Y-109212904D01*
X131707142Y-109212904D02*
X131659523Y-109236714D01*
X131659523Y-109236714D02*
X131469047Y-109236714D01*
X147702381Y-95474809D02*
X147535715Y-95236714D01*
X147416667Y-95474809D02*
X147416667Y-94974809D01*
X147416667Y-94974809D02*
X147607143Y-94974809D01*
X147607143Y-94974809D02*
X147654762Y-94998619D01*
X147654762Y-94998619D02*
X147678572Y-95022428D01*
X147678572Y-95022428D02*
X147702381Y-95070047D01*
X147702381Y-95070047D02*
X147702381Y-95141476D01*
X147702381Y-95141476D02*
X147678572Y-95189095D01*
X147678572Y-95189095D02*
X147654762Y-95212904D01*
X147654762Y-95212904D02*
X147607143Y-95236714D01*
X147607143Y-95236714D02*
X147416667Y-95236714D01*
X147892858Y-95331952D02*
X148130953Y-95331952D01*
X147845239Y-95474809D02*
X148011905Y-94974809D01*
X148011905Y-94974809D02*
X148178572Y-95474809D01*
X148607143Y-95474809D02*
X148321429Y-95474809D01*
X148464286Y-95474809D02*
X148464286Y-94974809D01*
X148464286Y-94974809D02*
X148416667Y-95046238D01*
X148416667Y-95046238D02*
X148369048Y-95093857D01*
X148369048Y-95093857D02*
X148321429Y-95117666D01*
X147428571Y-102474809D02*
X147190476Y-102474809D01*
X147190476Y-102474809D02*
X147190476Y-101974809D01*
X147571429Y-102331952D02*
X147809524Y-102331952D01*
X147523810Y-102474809D02*
X147690476Y-101974809D01*
X147690476Y-101974809D02*
X147857143Y-102474809D01*
X148023809Y-102474809D02*
X148023809Y-101974809D01*
X148023809Y-101974809D02*
X148309523Y-102474809D01*
X148309523Y-102474809D02*
X148309523Y-101974809D01*
X148809524Y-101998619D02*
X148761905Y-101974809D01*
X148761905Y-101974809D02*
X148690476Y-101974809D01*
X148690476Y-101974809D02*
X148619048Y-101998619D01*
X148619048Y-101998619D02*
X148571429Y-102046238D01*
X148571429Y-102046238D02*
X148547619Y-102093857D01*
X148547619Y-102093857D02*
X148523810Y-102189095D01*
X148523810Y-102189095D02*
X148523810Y-102260523D01*
X148523810Y-102260523D02*
X148547619Y-102355761D01*
X148547619Y-102355761D02*
X148571429Y-102403380D01*
X148571429Y-102403380D02*
X148619048Y-102451000D01*
X148619048Y-102451000D02*
X148690476Y-102474809D01*
X148690476Y-102474809D02*
X148738095Y-102474809D01*
X148738095Y-102474809D02*
X148809524Y-102451000D01*
X148809524Y-102451000D02*
X148833333Y-102427190D01*
X148833333Y-102427190D02*
X148833333Y-102260523D01*
X148833333Y-102260523D02*
X148738095Y-102260523D01*
X146678571Y-98474809D02*
X146440476Y-98474809D01*
X146440476Y-98474809D02*
X146416667Y-98712904D01*
X146416667Y-98712904D02*
X146440476Y-98689095D01*
X146440476Y-98689095D02*
X146488095Y-98665285D01*
X146488095Y-98665285D02*
X146607143Y-98665285D01*
X146607143Y-98665285D02*
X146654762Y-98689095D01*
X146654762Y-98689095D02*
X146678571Y-98712904D01*
X146678571Y-98712904D02*
X146702381Y-98760523D01*
X146702381Y-98760523D02*
X146702381Y-98879571D01*
X146702381Y-98879571D02*
X146678571Y-98927190D01*
X146678571Y-98927190D02*
X146654762Y-98951000D01*
X146654762Y-98951000D02*
X146607143Y-98974809D01*
X146607143Y-98974809D02*
X146488095Y-98974809D01*
X146488095Y-98974809D02*
X146440476Y-98951000D01*
X146440476Y-98951000D02*
X146416667Y-98927190D01*
X147011904Y-98474809D02*
X147059523Y-98474809D01*
X147059523Y-98474809D02*
X147107142Y-98498619D01*
X147107142Y-98498619D02*
X147130952Y-98522428D01*
X147130952Y-98522428D02*
X147154761Y-98570047D01*
X147154761Y-98570047D02*
X147178571Y-98665285D01*
X147178571Y-98665285D02*
X147178571Y-98784333D01*
X147178571Y-98784333D02*
X147154761Y-98879571D01*
X147154761Y-98879571D02*
X147130952Y-98927190D01*
X147130952Y-98927190D02*
X147107142Y-98951000D01*
X147107142Y-98951000D02*
X147059523Y-98974809D01*
X147059523Y-98974809D02*
X147011904Y-98974809D01*
X147011904Y-98974809D02*
X146964285Y-98951000D01*
X146964285Y-98951000D02*
X146940476Y-98927190D01*
X146940476Y-98927190D02*
X146916666Y-98879571D01*
X146916666Y-98879571D02*
X146892857Y-98784333D01*
X146892857Y-98784333D02*
X146892857Y-98665285D01*
X146892857Y-98665285D02*
X146916666Y-98570047D01*
X146916666Y-98570047D02*
X146940476Y-98522428D01*
X146940476Y-98522428D02*
X146964285Y-98498619D01*
X146964285Y-98498619D02*
X147011904Y-98474809D01*
X147749999Y-98451000D02*
X147321428Y-99093857D01*
X148130952Y-98474809D02*
X148035714Y-98474809D01*
X148035714Y-98474809D02*
X147988095Y-98498619D01*
X147988095Y-98498619D02*
X147964285Y-98522428D01*
X147964285Y-98522428D02*
X147916666Y-98593857D01*
X147916666Y-98593857D02*
X147892857Y-98689095D01*
X147892857Y-98689095D02*
X147892857Y-98879571D01*
X147892857Y-98879571D02*
X147916666Y-98927190D01*
X147916666Y-98927190D02*
X147940476Y-98951000D01*
X147940476Y-98951000D02*
X147988095Y-98974809D01*
X147988095Y-98974809D02*
X148083333Y-98974809D01*
X148083333Y-98974809D02*
X148130952Y-98951000D01*
X148130952Y-98951000D02*
X148154761Y-98927190D01*
X148154761Y-98927190D02*
X148178571Y-98879571D01*
X148178571Y-98879571D02*
X148178571Y-98760523D01*
X148178571Y-98760523D02*
X148154761Y-98712904D01*
X148154761Y-98712904D02*
X148130952Y-98689095D01*
X148130952Y-98689095D02*
X148083333Y-98665285D01*
X148083333Y-98665285D02*
X147988095Y-98665285D01*
X147988095Y-98665285D02*
X147940476Y-98689095D01*
X147940476Y-98689095D02*
X147916666Y-98712904D01*
X147916666Y-98712904D02*
X147892857Y-98760523D01*
X148488094Y-98474809D02*
X148535713Y-98474809D01*
X148535713Y-98474809D02*
X148583332Y-98498619D01*
X148583332Y-98498619D02*
X148607142Y-98522428D01*
X148607142Y-98522428D02*
X148630951Y-98570047D01*
X148630951Y-98570047D02*
X148654761Y-98665285D01*
X148654761Y-98665285D02*
X148654761Y-98784333D01*
X148654761Y-98784333D02*
X148630951Y-98879571D01*
X148630951Y-98879571D02*
X148607142Y-98927190D01*
X148607142Y-98927190D02*
X148583332Y-98951000D01*
X148583332Y-98951000D02*
X148535713Y-98974809D01*
X148535713Y-98974809D02*
X148488094Y-98974809D01*
X148488094Y-98974809D02*
X148440475Y-98951000D01*
X148440475Y-98951000D02*
X148416666Y-98927190D01*
X148416666Y-98927190D02*
X148392856Y-98879571D01*
X148392856Y-98879571D02*
X148369047Y-98784333D01*
X148369047Y-98784333D02*
X148369047Y-98665285D01*
X148369047Y-98665285D02*
X148392856Y-98570047D01*
X148392856Y-98570047D02*
X148416666Y-98522428D01*
X148416666Y-98522428D02*
X148440475Y-98498619D01*
X148440475Y-98498619D02*
X148488094Y-98474809D01*
X148869046Y-98974809D02*
X148869046Y-98474809D01*
X148869046Y-98712904D02*
X149154760Y-98712904D01*
X149154760Y-98974809D02*
X149154760Y-98474809D01*
X149345237Y-98641476D02*
X149607142Y-98641476D01*
X149607142Y-98641476D02*
X149345237Y-98974809D01*
X149345237Y-98974809D02*
X149607142Y-98974809D01*
X130302381Y-98974809D02*
X130135715Y-98736714D01*
X130016667Y-98974809D02*
X130016667Y-98474809D01*
X130016667Y-98474809D02*
X130207143Y-98474809D01*
X130207143Y-98474809D02*
X130254762Y-98498619D01*
X130254762Y-98498619D02*
X130278572Y-98522428D01*
X130278572Y-98522428D02*
X130302381Y-98570047D01*
X130302381Y-98570047D02*
X130302381Y-98641476D01*
X130302381Y-98641476D02*
X130278572Y-98689095D01*
X130278572Y-98689095D02*
X130254762Y-98712904D01*
X130254762Y-98712904D02*
X130207143Y-98736714D01*
X130207143Y-98736714D02*
X130016667Y-98736714D01*
X130492858Y-98831952D02*
X130730953Y-98831952D01*
X130445239Y-98974809D02*
X130611905Y-98474809D01*
X130611905Y-98474809D02*
X130778572Y-98974809D01*
X130897619Y-98474809D02*
X131207143Y-98474809D01*
X131207143Y-98474809D02*
X131040476Y-98665285D01*
X131040476Y-98665285D02*
X131111905Y-98665285D01*
X131111905Y-98665285D02*
X131159524Y-98689095D01*
X131159524Y-98689095D02*
X131183333Y-98712904D01*
X131183333Y-98712904D02*
X131207143Y-98760523D01*
X131207143Y-98760523D02*
X131207143Y-98879571D01*
X131207143Y-98879571D02*
X131183333Y-98927190D01*
X131183333Y-98927190D02*
X131159524Y-98951000D01*
X131159524Y-98951000D02*
X131111905Y-98974809D01*
X131111905Y-98974809D02*
X130969048Y-98974809D01*
X130969048Y-98974809D02*
X130921429Y-98951000D01*
X130921429Y-98951000D02*
X130897619Y-98927190D01*
X147666666Y-105974809D02*
X147500000Y-105736714D01*
X147380952Y-105974809D02*
X147380952Y-105474809D01*
X147380952Y-105474809D02*
X147571428Y-105474809D01*
X147571428Y-105474809D02*
X147619047Y-105498619D01*
X147619047Y-105498619D02*
X147642857Y-105522428D01*
X147642857Y-105522428D02*
X147666666Y-105570047D01*
X147666666Y-105570047D02*
X147666666Y-105641476D01*
X147666666Y-105641476D02*
X147642857Y-105689095D01*
X147642857Y-105689095D02*
X147619047Y-105712904D01*
X147619047Y-105712904D02*
X147571428Y-105736714D01*
X147571428Y-105736714D02*
X147380952Y-105736714D01*
X148166666Y-105927190D02*
X148142857Y-105951000D01*
X148142857Y-105951000D02*
X148071428Y-105974809D01*
X148071428Y-105974809D02*
X148023809Y-105974809D01*
X148023809Y-105974809D02*
X147952381Y-105951000D01*
X147952381Y-105951000D02*
X147904762Y-105903380D01*
X147904762Y-105903380D02*
X147880952Y-105855761D01*
X147880952Y-105855761D02*
X147857143Y-105760523D01*
X147857143Y-105760523D02*
X147857143Y-105689095D01*
X147857143Y-105689095D02*
X147880952Y-105593857D01*
X147880952Y-105593857D02*
X147904762Y-105546238D01*
X147904762Y-105546238D02*
X147952381Y-105498619D01*
X147952381Y-105498619D02*
X148023809Y-105474809D01*
X148023809Y-105474809D02*
X148071428Y-105474809D01*
X148071428Y-105474809D02*
X148142857Y-105498619D01*
X148142857Y-105498619D02*
X148166666Y-105522428D01*
X148642857Y-105974809D02*
X148357143Y-105974809D01*
X148500000Y-105974809D02*
X148500000Y-105474809D01*
X148500000Y-105474809D02*
X148452381Y-105546238D01*
X148452381Y-105546238D02*
X148404762Y-105593857D01*
X148404762Y-105593857D02*
X148357143Y-105617666D01*
X147666666Y-109474809D02*
X147500000Y-109236714D01*
X147380952Y-109474809D02*
X147380952Y-108974809D01*
X147380952Y-108974809D02*
X147571428Y-108974809D01*
X147571428Y-108974809D02*
X147619047Y-108998619D01*
X147619047Y-108998619D02*
X147642857Y-109022428D01*
X147642857Y-109022428D02*
X147666666Y-109070047D01*
X147666666Y-109070047D02*
X147666666Y-109141476D01*
X147666666Y-109141476D02*
X147642857Y-109189095D01*
X147642857Y-109189095D02*
X147619047Y-109212904D01*
X147619047Y-109212904D02*
X147571428Y-109236714D01*
X147571428Y-109236714D02*
X147380952Y-109236714D01*
X148166666Y-109427190D02*
X148142857Y-109451000D01*
X148142857Y-109451000D02*
X148071428Y-109474809D01*
X148071428Y-109474809D02*
X148023809Y-109474809D01*
X148023809Y-109474809D02*
X147952381Y-109451000D01*
X147952381Y-109451000D02*
X147904762Y-109403380D01*
X147904762Y-109403380D02*
X147880952Y-109355761D01*
X147880952Y-109355761D02*
X147857143Y-109260523D01*
X147857143Y-109260523D02*
X147857143Y-109189095D01*
X147857143Y-109189095D02*
X147880952Y-109093857D01*
X147880952Y-109093857D02*
X147904762Y-109046238D01*
X147904762Y-109046238D02*
X147952381Y-108998619D01*
X147952381Y-108998619D02*
X148023809Y-108974809D01*
X148023809Y-108974809D02*
X148071428Y-108974809D01*
X148071428Y-108974809D02*
X148142857Y-108998619D01*
X148142857Y-108998619D02*
X148166666Y-109022428D01*
X148357143Y-109022428D02*
X148380952Y-108998619D01*
X148380952Y-108998619D02*
X148428571Y-108974809D01*
X148428571Y-108974809D02*
X148547619Y-108974809D01*
X148547619Y-108974809D02*
X148595238Y-108998619D01*
X148595238Y-108998619D02*
X148619047Y-109022428D01*
X148619047Y-109022428D02*
X148642857Y-109070047D01*
X148642857Y-109070047D02*
X148642857Y-109117666D01*
X148642857Y-109117666D02*
X148619047Y-109189095D01*
X148619047Y-109189095D02*
X148333333Y-109474809D01*
X148333333Y-109474809D02*
X148642857Y-109474809D01*
X134166666Y-106524809D02*
X134000000Y-106286714D01*
X133880952Y-106524809D02*
X133880952Y-106024809D01*
X133880952Y-106024809D02*
X134071428Y-106024809D01*
X134071428Y-106024809D02*
X134119047Y-106048619D01*
X134119047Y-106048619D02*
X134142857Y-106072428D01*
X134142857Y-106072428D02*
X134166666Y-106120047D01*
X134166666Y-106120047D02*
X134166666Y-106191476D01*
X134166666Y-106191476D02*
X134142857Y-106239095D01*
X134142857Y-106239095D02*
X134119047Y-106262904D01*
X134119047Y-106262904D02*
X134071428Y-106286714D01*
X134071428Y-106286714D02*
X133880952Y-106286714D01*
X134357143Y-106072428D02*
X134380952Y-106048619D01*
X134380952Y-106048619D02*
X134428571Y-106024809D01*
X134428571Y-106024809D02*
X134547619Y-106024809D01*
X134547619Y-106024809D02*
X134595238Y-106048619D01*
X134595238Y-106048619D02*
X134619047Y-106072428D01*
X134619047Y-106072428D02*
X134642857Y-106120047D01*
X134642857Y-106120047D02*
X134642857Y-106167666D01*
X134642857Y-106167666D02*
X134619047Y-106239095D01*
X134619047Y-106239095D02*
X134333333Y-106524809D01*
X134333333Y-106524809D02*
X134642857Y-106524809D01*
X142369047Y-90998619D02*
X142321428Y-90974809D01*
X142321428Y-90974809D02*
X142249999Y-90974809D01*
X142249999Y-90974809D02*
X142178571Y-90998619D01*
X142178571Y-90998619D02*
X142130952Y-91046238D01*
X142130952Y-91046238D02*
X142107142Y-91093857D01*
X142107142Y-91093857D02*
X142083333Y-91189095D01*
X142083333Y-91189095D02*
X142083333Y-91260523D01*
X142083333Y-91260523D02*
X142107142Y-91355761D01*
X142107142Y-91355761D02*
X142130952Y-91403380D01*
X142130952Y-91403380D02*
X142178571Y-91451000D01*
X142178571Y-91451000D02*
X142249999Y-91474809D01*
X142249999Y-91474809D02*
X142297618Y-91474809D01*
X142297618Y-91474809D02*
X142369047Y-91451000D01*
X142369047Y-91451000D02*
X142392856Y-91427190D01*
X142392856Y-91427190D02*
X142392856Y-91260523D01*
X142392856Y-91260523D02*
X142297618Y-91260523D01*
X142607142Y-91474809D02*
X142607142Y-90974809D01*
X142607142Y-90974809D02*
X142892856Y-91474809D01*
X142892856Y-91474809D02*
X142892856Y-90974809D01*
X143130952Y-91474809D02*
X143130952Y-90974809D01*
X143130952Y-90974809D02*
X143250000Y-90974809D01*
X143250000Y-90974809D02*
X143321428Y-90998619D01*
X143321428Y-90998619D02*
X143369047Y-91046238D01*
X143369047Y-91046238D02*
X143392857Y-91093857D01*
X143392857Y-91093857D02*
X143416666Y-91189095D01*
X143416666Y-91189095D02*
X143416666Y-91260523D01*
X143416666Y-91260523D02*
X143392857Y-91355761D01*
X143392857Y-91355761D02*
X143369047Y-91403380D01*
X143369047Y-91403380D02*
X143321428Y-91451000D01*
X143321428Y-91451000D02*
X143250000Y-91474809D01*
X143250000Y-91474809D02*
X143130952Y-91474809D01*
X129754761Y-102474809D02*
X129588095Y-102236714D01*
X129469047Y-102474809D02*
X129469047Y-101974809D01*
X129469047Y-101974809D02*
X129659523Y-101974809D01*
X129659523Y-101974809D02*
X129707142Y-101998619D01*
X129707142Y-101998619D02*
X129730952Y-102022428D01*
X129730952Y-102022428D02*
X129754761Y-102070047D01*
X129754761Y-102070047D02*
X129754761Y-102141476D01*
X129754761Y-102141476D02*
X129730952Y-102189095D01*
X129730952Y-102189095D02*
X129707142Y-102212904D01*
X129707142Y-102212904D02*
X129659523Y-102236714D01*
X129659523Y-102236714D02*
X129469047Y-102236714D01*
X130254761Y-102427190D02*
X130230952Y-102451000D01*
X130230952Y-102451000D02*
X130159523Y-102474809D01*
X130159523Y-102474809D02*
X130111904Y-102474809D01*
X130111904Y-102474809D02*
X130040476Y-102451000D01*
X130040476Y-102451000D02*
X129992857Y-102403380D01*
X129992857Y-102403380D02*
X129969047Y-102355761D01*
X129969047Y-102355761D02*
X129945238Y-102260523D01*
X129945238Y-102260523D02*
X129945238Y-102189095D01*
X129945238Y-102189095D02*
X129969047Y-102093857D01*
X129969047Y-102093857D02*
X129992857Y-102046238D01*
X129992857Y-102046238D02*
X130040476Y-101998619D01*
X130040476Y-101998619D02*
X130111904Y-101974809D01*
X130111904Y-101974809D02*
X130159523Y-101974809D01*
X130159523Y-101974809D02*
X130230952Y-101998619D01*
X130230952Y-101998619D02*
X130254761Y-102022428D01*
X130707142Y-101974809D02*
X130469047Y-101974809D01*
X130469047Y-101974809D02*
X130445238Y-102212904D01*
X130445238Y-102212904D02*
X130469047Y-102189095D01*
X130469047Y-102189095D02*
X130516666Y-102165285D01*
X130516666Y-102165285D02*
X130635714Y-102165285D01*
X130635714Y-102165285D02*
X130683333Y-102189095D01*
X130683333Y-102189095D02*
X130707142Y-102212904D01*
X130707142Y-102212904D02*
X130730952Y-102260523D01*
X130730952Y-102260523D02*
X130730952Y-102379571D01*
X130730952Y-102379571D02*
X130707142Y-102427190D01*
X130707142Y-102427190D02*
X130683333Y-102451000D01*
X130683333Y-102451000D02*
X130635714Y-102474809D01*
X130635714Y-102474809D02*
X130516666Y-102474809D01*
X130516666Y-102474809D02*
X130469047Y-102451000D01*
X130469047Y-102451000D02*
X130445238Y-102427190D01*
X131302380Y-101951000D02*
X130873809Y-102593857D01*
X131635714Y-102212904D02*
X131707142Y-102236714D01*
X131707142Y-102236714D02*
X131730952Y-102260523D01*
X131730952Y-102260523D02*
X131754761Y-102308142D01*
X131754761Y-102308142D02*
X131754761Y-102379571D01*
X131754761Y-102379571D02*
X131730952Y-102427190D01*
X131730952Y-102427190D02*
X131707142Y-102451000D01*
X131707142Y-102451000D02*
X131659523Y-102474809D01*
X131659523Y-102474809D02*
X131469047Y-102474809D01*
X131469047Y-102474809D02*
X131469047Y-101974809D01*
X131469047Y-101974809D02*
X131635714Y-101974809D01*
X131635714Y-101974809D02*
X131683333Y-101998619D01*
X131683333Y-101998619D02*
X131707142Y-102022428D01*
X131707142Y-102022428D02*
X131730952Y-102070047D01*
X131730952Y-102070047D02*
X131730952Y-102117666D01*
X131730952Y-102117666D02*
X131707142Y-102165285D01*
X131707142Y-102165285D02*
X131683333Y-102189095D01*
X131683333Y-102189095D02*
X131635714Y-102212904D01*
X131635714Y-102212904D02*
X131469047Y-102212904D01*
X134166666Y-103024809D02*
X134000000Y-102786714D01*
X133880952Y-103024809D02*
X133880952Y-102524809D01*
X133880952Y-102524809D02*
X134071428Y-102524809D01*
X134071428Y-102524809D02*
X134119047Y-102548619D01*
X134119047Y-102548619D02*
X134142857Y-102572428D01*
X134142857Y-102572428D02*
X134166666Y-102620047D01*
X134166666Y-102620047D02*
X134166666Y-102691476D01*
X134166666Y-102691476D02*
X134142857Y-102739095D01*
X134142857Y-102739095D02*
X134119047Y-102762904D01*
X134119047Y-102762904D02*
X134071428Y-102786714D01*
X134071428Y-102786714D02*
X133880952Y-102786714D01*
X134333333Y-102524809D02*
X134642857Y-102524809D01*
X134642857Y-102524809D02*
X134476190Y-102715285D01*
X134476190Y-102715285D02*
X134547619Y-102715285D01*
X134547619Y-102715285D02*
X134595238Y-102739095D01*
X134595238Y-102739095D02*
X134619047Y-102762904D01*
X134619047Y-102762904D02*
X134642857Y-102810523D01*
X134642857Y-102810523D02*
X134642857Y-102929571D01*
X134642857Y-102929571D02*
X134619047Y-102977190D01*
X134619047Y-102977190D02*
X134595238Y-103001000D01*
X134595238Y-103001000D02*
X134547619Y-103024809D01*
X134547619Y-103024809D02*
X134404762Y-103024809D01*
X134404762Y-103024809D02*
X134357143Y-103001000D01*
X134357143Y-103001000D02*
X134333333Y-102977190D01*
X134166666Y-110024809D02*
X134000000Y-109786714D01*
X133880952Y-110024809D02*
X133880952Y-109524809D01*
X133880952Y-109524809D02*
X134071428Y-109524809D01*
X134071428Y-109524809D02*
X134119047Y-109548619D01*
X134119047Y-109548619D02*
X134142857Y-109572428D01*
X134142857Y-109572428D02*
X134166666Y-109620047D01*
X134166666Y-109620047D02*
X134166666Y-109691476D01*
X134166666Y-109691476D02*
X134142857Y-109739095D01*
X134142857Y-109739095D02*
X134119047Y-109762904D01*
X134119047Y-109762904D02*
X134071428Y-109786714D01*
X134071428Y-109786714D02*
X133880952Y-109786714D01*
X134642857Y-110024809D02*
X134357143Y-110024809D01*
X134500000Y-110024809D02*
X134500000Y-109524809D01*
X134500000Y-109524809D02*
X134452381Y-109596238D01*
X134452381Y-109596238D02*
X134404762Y-109643857D01*
X134404762Y-109643857D02*
X134357143Y-109667666D01*
X139176283Y-102924809D02*
X139176283Y-103329571D01*
X139176283Y-103329571D02*
X139200093Y-103377190D01*
X139200093Y-103377190D02*
X139223902Y-103401000D01*
X139223902Y-103401000D02*
X139271521Y-103424809D01*
X139271521Y-103424809D02*
X139366759Y-103424809D01*
X139366759Y-103424809D02*
X139414378Y-103401000D01*
X139414378Y-103401000D02*
X139438188Y-103377190D01*
X139438188Y-103377190D02*
X139461997Y-103329571D01*
X139461997Y-103329571D02*
X139461997Y-102924809D01*
X139961998Y-103424809D02*
X139676284Y-103424809D01*
X139819141Y-103424809D02*
X139819141Y-102924809D01*
X139819141Y-102924809D02*
X139771522Y-102996238D01*
X139771522Y-102996238D02*
X139723903Y-103043857D01*
X139723903Y-103043857D02*
X139676284Y-103067666D01*
X139236666Y-92177190D02*
X139212857Y-92201000D01*
X139212857Y-92201000D02*
X139141428Y-92224809D01*
X139141428Y-92224809D02*
X139093809Y-92224809D01*
X139093809Y-92224809D02*
X139022381Y-92201000D01*
X139022381Y-92201000D02*
X138974762Y-92153380D01*
X138974762Y-92153380D02*
X138950952Y-92105761D01*
X138950952Y-92105761D02*
X138927143Y-92010523D01*
X138927143Y-92010523D02*
X138927143Y-91939095D01*
X138927143Y-91939095D02*
X138950952Y-91843857D01*
X138950952Y-91843857D02*
X138974762Y-91796238D01*
X138974762Y-91796238D02*
X139022381Y-91748619D01*
X139022381Y-91748619D02*
X139093809Y-91724809D01*
X139093809Y-91724809D02*
X139141428Y-91724809D01*
X139141428Y-91724809D02*
X139212857Y-91748619D01*
X139212857Y-91748619D02*
X139236666Y-91772428D01*
X139712857Y-92224809D02*
X139427143Y-92224809D01*
X139570000Y-92224809D02*
X139570000Y-91724809D01*
X139570000Y-91724809D02*
X139522381Y-91796238D01*
X139522381Y-91796238D02*
X139474762Y-91843857D01*
X139474762Y-91843857D02*
X139427143Y-91867666D01*
X147702381Y-91974809D02*
X147535715Y-91736714D01*
X147416667Y-91974809D02*
X147416667Y-91474809D01*
X147416667Y-91474809D02*
X147607143Y-91474809D01*
X147607143Y-91474809D02*
X147654762Y-91498619D01*
X147654762Y-91498619D02*
X147678572Y-91522428D01*
X147678572Y-91522428D02*
X147702381Y-91570047D01*
X147702381Y-91570047D02*
X147702381Y-91641476D01*
X147702381Y-91641476D02*
X147678572Y-91689095D01*
X147678572Y-91689095D02*
X147654762Y-91712904D01*
X147654762Y-91712904D02*
X147607143Y-91736714D01*
X147607143Y-91736714D02*
X147416667Y-91736714D01*
X147892858Y-91831952D02*
X148130953Y-91831952D01*
X147845239Y-91974809D02*
X148011905Y-91474809D01*
X148011905Y-91474809D02*
X148178572Y-91974809D01*
X148440476Y-91474809D02*
X148488095Y-91474809D01*
X148488095Y-91474809D02*
X148535714Y-91498619D01*
X148535714Y-91498619D02*
X148559524Y-91522428D01*
X148559524Y-91522428D02*
X148583333Y-91570047D01*
X148583333Y-91570047D02*
X148607143Y-91665285D01*
X148607143Y-91665285D02*
X148607143Y-91784333D01*
X148607143Y-91784333D02*
X148583333Y-91879571D01*
X148583333Y-91879571D02*
X148559524Y-91927190D01*
X148559524Y-91927190D02*
X148535714Y-91951000D01*
X148535714Y-91951000D02*
X148488095Y-91974809D01*
X148488095Y-91974809D02*
X148440476Y-91974809D01*
X148440476Y-91974809D02*
X148392857Y-91951000D01*
X148392857Y-91951000D02*
X148369048Y-91927190D01*
X148369048Y-91927190D02*
X148345238Y-91879571D01*
X148345238Y-91879571D02*
X148321429Y-91784333D01*
X148321429Y-91784333D02*
X148321429Y-91665285D01*
X148321429Y-91665285D02*
X148345238Y-91570047D01*
X148345238Y-91570047D02*
X148369048Y-91522428D01*
X148369048Y-91522428D02*
X148392857Y-91498619D01*
X148392857Y-91498619D02*
X148440476Y-91474809D01*
X133043810Y-95474809D02*
X133043810Y-94974809D01*
X133567619Y-95427190D02*
X133543810Y-95451000D01*
X133543810Y-95451000D02*
X133472381Y-95474809D01*
X133472381Y-95474809D02*
X133424762Y-95474809D01*
X133424762Y-95474809D02*
X133353334Y-95451000D01*
X133353334Y-95451000D02*
X133305715Y-95403380D01*
X133305715Y-95403380D02*
X133281905Y-95355761D01*
X133281905Y-95355761D02*
X133258096Y-95260523D01*
X133258096Y-95260523D02*
X133258096Y-95189095D01*
X133258096Y-95189095D02*
X133281905Y-95093857D01*
X133281905Y-95093857D02*
X133305715Y-95046238D01*
X133305715Y-95046238D02*
X133353334Y-94998619D01*
X133353334Y-94998619D02*
X133424762Y-94974809D01*
X133424762Y-94974809D02*
X133472381Y-94974809D01*
X133472381Y-94974809D02*
X133543810Y-94998619D01*
X133543810Y-94998619D02*
X133567619Y-95022428D01*
X133758096Y-95451000D02*
X133829524Y-95474809D01*
X133829524Y-95474809D02*
X133948572Y-95474809D01*
X133948572Y-95474809D02*
X133996191Y-95451000D01*
X133996191Y-95451000D02*
X134020000Y-95427190D01*
X134020000Y-95427190D02*
X134043810Y-95379571D01*
X134043810Y-95379571D02*
X134043810Y-95331952D01*
X134043810Y-95331952D02*
X134020000Y-95284333D01*
X134020000Y-95284333D02*
X133996191Y-95260523D01*
X133996191Y-95260523D02*
X133948572Y-95236714D01*
X133948572Y-95236714D02*
X133853334Y-95212904D01*
X133853334Y-95212904D02*
X133805715Y-95189095D01*
X133805715Y-95189095D02*
X133781905Y-95165285D01*
X133781905Y-95165285D02*
X133758096Y-95117666D01*
X133758096Y-95117666D02*
X133758096Y-95070047D01*
X133758096Y-95070047D02*
X133781905Y-95022428D01*
X133781905Y-95022428D02*
X133805715Y-94998619D01*
X133805715Y-94998619D02*
X133853334Y-94974809D01*
X133853334Y-94974809D02*
X133972381Y-94974809D01*
X133972381Y-94974809D02*
X134043810Y-94998619D01*
X134258095Y-95474809D02*
X134258095Y-94974809D01*
X134258095Y-94974809D02*
X134448571Y-94974809D01*
X134448571Y-94974809D02*
X134496190Y-94998619D01*
X134496190Y-94998619D02*
X134520000Y-95022428D01*
X134520000Y-95022428D02*
X134543809Y-95070047D01*
X134543809Y-95070047D02*
X134543809Y-95141476D01*
X134543809Y-95141476D02*
X134520000Y-95189095D01*
X134520000Y-95189095D02*
X134496190Y-95212904D01*
X134496190Y-95212904D02*
X134448571Y-95236714D01*
X134448571Y-95236714D02*
X134258095Y-95236714D01*
X135020000Y-95474809D02*
X134734286Y-95474809D01*
X134877143Y-95474809D02*
X134877143Y-94974809D01*
X134877143Y-94974809D02*
X134829524Y-95046238D01*
X134829524Y-95046238D02*
X134781905Y-95093857D01*
X134781905Y-95093857D02*
X134734286Y-95117666D01*
X135333334Y-90974809D02*
X135500000Y-91474809D01*
X135500000Y-91474809D02*
X135666667Y-90974809D01*
X135833333Y-91474809D02*
X135833333Y-90974809D01*
X135833333Y-90974809D02*
X135952381Y-90974809D01*
X135952381Y-90974809D02*
X136023809Y-90998619D01*
X136023809Y-90998619D02*
X136071428Y-91046238D01*
X136071428Y-91046238D02*
X136095238Y-91093857D01*
X136095238Y-91093857D02*
X136119047Y-91189095D01*
X136119047Y-91189095D02*
X136119047Y-91260523D01*
X136119047Y-91260523D02*
X136095238Y-91355761D01*
X136095238Y-91355761D02*
X136071428Y-91403380D01*
X136071428Y-91403380D02*
X136023809Y-91451000D01*
X136023809Y-91451000D02*
X135952381Y-91474809D01*
X135952381Y-91474809D02*
X135833333Y-91474809D01*
X136333333Y-91474809D02*
X136333333Y-90974809D01*
X136333333Y-90974809D02*
X136452381Y-90974809D01*
X136452381Y-90974809D02*
X136523809Y-90998619D01*
X136523809Y-90998619D02*
X136571428Y-91046238D01*
X136571428Y-91046238D02*
X136595238Y-91093857D01*
X136595238Y-91093857D02*
X136619047Y-91189095D01*
X136619047Y-91189095D02*
X136619047Y-91260523D01*
X136619047Y-91260523D02*
X136595238Y-91355761D01*
X136595238Y-91355761D02*
X136571428Y-91403380D01*
X136571428Y-91403380D02*
X136523809Y-91451000D01*
X136523809Y-91451000D02*
X136452381Y-91474809D01*
X136452381Y-91474809D02*
X136333333Y-91474809D01*
X128969047Y-91974809D02*
X128802381Y-91736714D01*
X128683333Y-91974809D02*
X128683333Y-91474809D01*
X128683333Y-91474809D02*
X128873809Y-91474809D01*
X128873809Y-91474809D02*
X128921428Y-91498619D01*
X128921428Y-91498619D02*
X128945238Y-91522428D01*
X128945238Y-91522428D02*
X128969047Y-91570047D01*
X128969047Y-91570047D02*
X128969047Y-91641476D01*
X128969047Y-91641476D02*
X128945238Y-91689095D01*
X128945238Y-91689095D02*
X128921428Y-91712904D01*
X128921428Y-91712904D02*
X128873809Y-91736714D01*
X128873809Y-91736714D02*
X128683333Y-91736714D01*
X129183333Y-91712904D02*
X129350000Y-91712904D01*
X129421428Y-91974809D02*
X129183333Y-91974809D01*
X129183333Y-91974809D02*
X129183333Y-91474809D01*
X129183333Y-91474809D02*
X129421428Y-91474809D01*
X129635714Y-91712904D02*
X129802381Y-91712904D01*
X129873809Y-91974809D02*
X129635714Y-91974809D01*
X129635714Y-91974809D02*
X129635714Y-91474809D01*
X129635714Y-91474809D02*
X129873809Y-91474809D01*
X130064286Y-91951000D02*
X130135714Y-91974809D01*
X130135714Y-91974809D02*
X130254762Y-91974809D01*
X130254762Y-91974809D02*
X130302381Y-91951000D01*
X130302381Y-91951000D02*
X130326190Y-91927190D01*
X130326190Y-91927190D02*
X130350000Y-91879571D01*
X130350000Y-91879571D02*
X130350000Y-91831952D01*
X130350000Y-91831952D02*
X130326190Y-91784333D01*
X130326190Y-91784333D02*
X130302381Y-91760523D01*
X130302381Y-91760523D02*
X130254762Y-91736714D01*
X130254762Y-91736714D02*
X130159524Y-91712904D01*
X130159524Y-91712904D02*
X130111905Y-91689095D01*
X130111905Y-91689095D02*
X130088095Y-91665285D01*
X130088095Y-91665285D02*
X130064286Y-91617666D01*
X130064286Y-91617666D02*
X130064286Y-91570047D01*
X130064286Y-91570047D02*
X130088095Y-91522428D01*
X130088095Y-91522428D02*
X130111905Y-91498619D01*
X130111905Y-91498619D02*
X130159524Y-91474809D01*
X130159524Y-91474809D02*
X130278571Y-91474809D01*
X130278571Y-91474809D02*
X130350000Y-91498619D01*
X130492857Y-91474809D02*
X130778571Y-91474809D01*
X130635714Y-91974809D02*
X130635714Y-91474809D01*
X131421427Y-91474809D02*
X131516665Y-91474809D01*
X131516665Y-91474809D02*
X131564284Y-91498619D01*
X131564284Y-91498619D02*
X131611903Y-91546238D01*
X131611903Y-91546238D02*
X131635713Y-91641476D01*
X131635713Y-91641476D02*
X131635713Y-91808142D01*
X131635713Y-91808142D02*
X131611903Y-91903380D01*
X131611903Y-91903380D02*
X131564284Y-91951000D01*
X131564284Y-91951000D02*
X131516665Y-91974809D01*
X131516665Y-91974809D02*
X131421427Y-91974809D01*
X131421427Y-91974809D02*
X131373808Y-91951000D01*
X131373808Y-91951000D02*
X131326189Y-91903380D01*
X131326189Y-91903380D02*
X131302380Y-91808142D01*
X131302380Y-91808142D02*
X131302380Y-91641476D01*
X131302380Y-91641476D02*
X131326189Y-91546238D01*
X131326189Y-91546238D02*
X131373808Y-91498619D01*
X131373808Y-91498619D02*
X131421427Y-91474809D01*
X131849999Y-91474809D02*
X131849999Y-91879571D01*
X131849999Y-91879571D02*
X131873809Y-91927190D01*
X131873809Y-91927190D02*
X131897618Y-91951000D01*
X131897618Y-91951000D02*
X131945237Y-91974809D01*
X131945237Y-91974809D02*
X132040475Y-91974809D01*
X132040475Y-91974809D02*
X132088094Y-91951000D01*
X132088094Y-91951000D02*
X132111904Y-91927190D01*
X132111904Y-91927190D02*
X132135713Y-91879571D01*
X132135713Y-91879571D02*
X132135713Y-91474809D01*
X132302381Y-91474809D02*
X132588095Y-91474809D01*
X132445238Y-91974809D02*
X132445238Y-91474809D01*
D15*
%TO.C,RC4/G*%
X129400000Y-106300000D02*
X131800000Y-106300000D01*
X129400000Y-108700000D02*
X129400000Y-106300000D01*
X131800000Y-106300000D02*
X131800000Y-108700000D01*
X131800000Y-108700000D02*
X129400000Y-108700000D01*
%TO.C,C2*%
X140839420Y-101240000D02*
X141120580Y-101240000D01*
X140839420Y-102260000D02*
X141120580Y-102260000D01*
%TO.C,GND*%
X138300000Y-110200000D02*
X140700000Y-110200000D01*
X138300000Y-112600000D02*
X138300000Y-110200000D01*
X140700000Y-110200000D02*
X140700000Y-112600000D01*
X140700000Y-112600000D02*
X138300000Y-112600000D01*
%TO.C,RESET IN*%
X129400000Y-95800000D02*
X131800000Y-95800000D01*
X129400000Y-98200000D02*
X129400000Y-95800000D01*
X131800000Y-95800000D02*
X131800000Y-98200000D01*
X131800000Y-98200000D02*
X129400000Y-98200000D01*
%TO.C,RC3/R*%
X129400000Y-109800000D02*
X131800000Y-109800000D01*
X129400000Y-112200000D02*
X129400000Y-109800000D01*
X131800000Y-109800000D02*
X131800000Y-112200000D01*
X131800000Y-112200000D02*
X129400000Y-112200000D01*
%TO.C,RA1*%
X146800000Y-95800000D02*
X149200000Y-95800000D01*
X146800000Y-98200000D02*
X146800000Y-95800000D01*
X149200000Y-95800000D02*
X149200000Y-98200000D01*
X149200000Y-98200000D02*
X146800000Y-98200000D01*
%TO.C,LANG*%
X146800000Y-102800000D02*
X149200000Y-102800000D01*
X146800000Y-105200000D02*
X146800000Y-102800000D01*
X149200000Y-102800000D02*
X149200000Y-105200000D01*
X149200000Y-105200000D02*
X146800000Y-105200000D01*
%TO.C,50/60Hz*%
X146800000Y-99300000D02*
X149200000Y-99300000D01*
X146800000Y-101700000D02*
X146800000Y-99300000D01*
X149200000Y-99300000D02*
X149200000Y-101700000D01*
X149200000Y-101700000D02*
X146800000Y-101700000D01*
%TO.C,RA3*%
X129400000Y-99300000D02*
X131800000Y-99300000D01*
X129400000Y-101700000D02*
X129400000Y-99300000D01*
X131800000Y-99300000D02*
X131800000Y-101700000D01*
X131800000Y-101700000D02*
X129400000Y-101700000D01*
%TO.C,RC1*%
X146800000Y-106300000D02*
X149200000Y-106300000D01*
X146800000Y-108700000D02*
X146800000Y-106300000D01*
X149200000Y-106300000D02*
X149200000Y-108700000D01*
X149200000Y-108700000D02*
X146800000Y-108700000D01*
%TO.C,RC2*%
X146800000Y-109800000D02*
X149200000Y-109800000D01*
X146800000Y-112200000D02*
X146800000Y-109800000D01*
X149200000Y-109800000D02*
X149200000Y-112200000D01*
X149200000Y-112200000D02*
X146800000Y-112200000D01*
%TO.C,R2*%
X134477064Y-106765000D02*
X134022936Y-106765000D01*
X134477064Y-108235000D02*
X134022936Y-108235000D01*
%TO.C,GND*%
X141550000Y-91800000D02*
X143950000Y-91800000D01*
X141550000Y-94200000D02*
X141550000Y-91800000D01*
X143950000Y-91800000D02*
X143950000Y-94200000D01*
X143950000Y-94200000D02*
X141550000Y-94200000D01*
%TO.C,RC5/B*%
X129400000Y-102800000D02*
X131800000Y-102800000D01*
X129400000Y-105200000D02*
X129400000Y-102800000D01*
X131800000Y-102800000D02*
X131800000Y-105200000D01*
X131800000Y-105200000D02*
X129400000Y-105200000D01*
%TO.C,R3*%
X134477064Y-103265000D02*
X134022936Y-103265000D01*
X134477064Y-104735000D02*
X134022936Y-104735000D01*
%TO.C,R1*%
X134477064Y-110265000D02*
X134022936Y-110265000D01*
X134477064Y-111735000D02*
X134022936Y-111735000D01*
%TO.C,U1*%
X141112500Y-103640000D02*
X138912500Y-103640000D01*
X141112500Y-103640000D02*
X143312500Y-103640000D01*
X141112500Y-108860000D02*
X138912500Y-108860000D01*
X141112500Y-108860000D02*
X143312500Y-108860000D01*
X138212500Y-103840000D02*
X137972500Y-103510000D01*
X138452500Y-103510000D01*
X138212500Y-103840000D01*
G36*
X138212500Y-103840000D02*
G01*
X137972500Y-103510000D01*
X138452500Y-103510000D01*
X138212500Y-103840000D01*
G37*
%TO.C,C1*%
X139179420Y-92490000D02*
X139460580Y-92490000D01*
X139179420Y-93510000D02*
X139460580Y-93510000D01*
%TO.C,RA0*%
X146800000Y-92300000D02*
X149200000Y-92300000D01*
X146800000Y-94700000D02*
X146800000Y-92300000D01*
X149200000Y-92300000D02*
X149200000Y-94700000D01*
X149200000Y-94700000D02*
X146800000Y-94700000D01*
%TO.C,ICSP1*%
X132930000Y-98330000D02*
X132930000Y-97000000D01*
X134260000Y-98330000D02*
X132930000Y-98330000D01*
X135530000Y-95670000D02*
X145750000Y-95670000D01*
X135530000Y-98330000D02*
X135530000Y-95670000D01*
X135530000Y-98330000D02*
X145750000Y-98330000D01*
X145750000Y-98330000D02*
X145750000Y-95670000D01*
%TO.C,VDD*%
X134800000Y-91800000D02*
X137200000Y-91800000D01*
X134800000Y-94200000D02*
X134800000Y-91800000D01*
X137200000Y-91800000D02*
X137200000Y-94200000D01*
X137200000Y-94200000D02*
X134800000Y-94200000D01*
%TO.C,REEST OUT*%
X129400000Y-92300000D02*
X131800000Y-92300000D01*
X129400000Y-94700000D02*
X129400000Y-92300000D01*
X131800000Y-92300000D02*
X131800000Y-94700000D01*
X131800000Y-94700000D02*
X129400000Y-94700000D01*
%TD*%
M02*
